<?xml version="1.0" encoding="UTF-8"?>
<svg width="150px" height="51px" viewBox="0 0 150 51" version="1.1" xmlns="http://www.w3.org/2000/svg" xmlns:xlink="http://www.w3.org/1999/xlink">
    <!-- Generator: sketchtool 54.1 (76490) - https://sketchapp.com -->
    <title>5CC14300-61D9-4BD6-B780-447D1A553AEE</title>
    <desc>Created with sketchtool.</desc>
    <g id="Page-5-HOME-APROBADO" stroke="none" stroke-width="1" fill="none" fill-rule="evenodd">
        <g id="Home_cuponera_02" transform="translate(-710.000000, -1667.000000)" fill-rule="nonzero">
            <g id="Group-13" transform="translate(710.000000, 1608.000000)">
                <g id="Group-12">
                    <g id="Download_on_the_App_Store_Badge_ES_RGB_blk_100217" transform="translate(0.084507, 59.267606)">
                        <g id="Group">
                            <g id="Shape">
                                <path d="M137.203104,-2.98768172e-14 L11.8780626,-2.98768172e-14 C11.4212371,-2.98768172e-14 10.9698929,-2.98768172e-14 10.5142757,0.0024915493 C10.1328818,0.00498309859 9.75452761,0.0122210493 9.36947113,0.0183128873 C8.53295049,0.0281567539 7.69839707,0.101750214 6.87306331,0.238453725 C6.0488888,0.378133253 5.25053217,0.641468975 4.5049952,1.01955443 C3.76037004,1.40083835 3.07998474,1.89627772 2.48852206,2.48789918 C1.89395431,3.07785693 1.39833617,3.75976829 1.02072546,4.507412 C0.642072555,5.25356763 0.379513409,6.05314214 0.242116303,6.8785198 C0.103412926,7.702855 0.028775377,8.53669637 0.0188734859,9.37256065 C0.00731269718,9.75451515 0.00609183803,10.1377404 2.84217094e-14,10.5197447 L2.84217094e-14,39.3149038 C0.00609183803,39.7017168 0.00731269718,40.0764458 0.0188734859,40.4633835 C0.0287784135,41.2992063 0.103415964,42.133006 0.242116303,42.9572997 C0.379134015,43.7831599 0.641708684,44.5831934 1.02072546,45.3296284 C1.39816472,46.0748544 1.89385255,46.754005 2.48852206,47.3406824 C3.07774211,47.9349344 3.75856719,48.4307108 4.5049952,48.809077 C5.25052651,49.1881744 6.04879707,49.4530775 6.87306331,49.5949116 C7.69853738,49.7305201 8.53300497,49.8041435 9.36947113,49.8151646 C9.75452761,49.8236358 10.1328818,49.8284944 10.5142757,49.8284944 C10.9698804,49.8309859 11.421262,49.8309859 11.8780626,49.8309859 L137.203104,49.8309859 C137.650836,49.8309859 138.105793,49.8309859 138.553524,49.8284944 C138.933112,49.8284944 139.322416,49.8236358 139.702004,49.8151646 C140.536888,49.8047296 141.369785,49.7311015 142.193553,49.5949116 C143.020478,49.452079 143.821611,49.187246 144.57074,48.809077 C145.316495,48.4304918 145.996692,47.9347289 146.585407,47.3406824 C147.178542,46.7517073 147.675288,46.0730534 148.057414,45.3296284 C148.433587,44.5826504 148.693662,43.7826808 148.828673,42.9572997 C148.967596,42.1328929 149.044882,41.2992786 149.059889,40.4633835 C149.064748,40.0764458 149.064748,39.7017168 149.064748,39.3149038 C149.074465,38.8623139 149.074465,38.4122155 149.074465,37.9522755 L149.074465,11.879869 C149.074465,11.4236539 149.074465,10.9710888 149.064748,10.5197447 C149.064748,10.1377404 149.064748,9.75451515 149.059889,9.37251082 C149.044885,8.53657416 148.967599,7.70291824 148.828673,6.87846997 C148.693286,6.05356982 148.433226,5.25405866 148.057414,4.50736217 C147.288428,3.00879004 146.069037,1.78896403 144.57074,1.01944231 C143.821608,0.642280772 143.02039,0.37901499 142.193553,0.238341606 C141.369928,0.101035791 140.536944,0.0274167156 139.702004,0.0181384789 C139.322416,0.0120590986 138.933112,0.00475885915 138.553524,0.00232959859 C138.105793,-0.000161950704 137.650836,-0.000161950704 137.203104,-0.000161950704 L137.203104,-2.98768172e-14 Z" fill="#A6A6A6"></path>
                                <path d="M10.5203551,48.7409331 C10.1407925,48.7409331 9.77039878,48.7360746 9.39381356,48.7276033 C8.61368677,48.7174387 7.83538333,48.6495244 7.06528634,48.5244175 C6.34720975,48.4007471 5.65158656,48.1706978 5.00136165,47.8418575 C4.35709895,47.515742 3.76947959,47.0881301 3.26101446,46.575403 C2.74518942,46.0687157 2.31574151,45.4810448 1.98968898,44.8356787 C1.66004363,44.1861183 1.43190943,43.4898678 1.31323335,42.771181 C1.18507348,41.9989438 1.11573368,41.2180902 1.10581187,40.4353535 C1.09791365,40.1726196 1.08757373,39.2978367 1.08757373,39.2978367 L1.08757373,10.5197447 C1.08757373,10.5197447 1.09858637,9.65840364 1.10587415,9.40534944 C1.11537422,8.62385264 1.1843108,7.84421079 1.31208723,7.07317209 C1.43098237,6.35251647 1.65929319,5.65425827 1.98911592,5.00257005 C2.31397013,4.35764977 2.74103384,3.76954004 3.2537516,3.26103938 C3.76589308,2.74770725 4.35539213,2.31789344 5.00075122,1.98727218 C5.64948172,1.65948844 6.34379028,1.43106188 7.06041536,1.30964551 C7.83304147,1.18328178 8.61404688,1.11496343 9.39687817,1.10526373 L10.5209655,1.09005282 L138.54742,1.09005282 L139.684937,1.10587415 C140.460647,1.11509189 141.234558,1.18280075 142.000084,1.30842465 C142.723964,1.43136401 143.425508,1.66138442 144.081649,1.9909223 C145.374537,2.65721994 146.426535,3.71136567 147.090195,5.00560974 C147.414753,5.65279909 147.639542,6.34536159 147.756933,7.05979247 C147.886231,7.83715757 147.958596,8.62292614 147.973449,9.41083085 C147.977062,9.76363423 147.977062,10.1425989 147.977062,10.5197447 C147.986903,10.9869102 147.986903,11.4315645 147.986903,11.879869 L147.986903,37.9522755 C147.986903,38.4048654 147.986903,38.8464925 147.977062,39.2917324 C147.977062,39.6968583 147.977062,40.0679746 147.972203,40.4499291 C147.957671,41.223774 147.886514,41.9955172 147.7593,42.7589724 C147.643057,43.4828436 147.416165,44.1845287 147.086582,44.8394161 C146.758225,45.4777773 146.331243,46.0603577 145.821373,46.565686 C145.312451,47.0811684 144.723794,47.5112821 144.078036,47.8394906 C143.423713,48.1708587 142.723201,48.4017588 142.000084,48.5244175 C141.230045,48.6501921 140.451667,48.7181107 139.671482,48.7276033 C139.306595,48.7360746 138.924516,48.7409331 138.553524,48.7409331 L137.203104,48.7434246 L10.5203551,48.7409331 Z" fill="#000000"></path>
                            </g>
                            <g id="_Group_" transform="translate(12.239415, 10.479919)" fill="#FFFFFF">
                                <g id="_Group_2">
                                    <g id="_Group_3">
                                        <path d="M18.6170279,14.8101538 C18.6442568,12.6967334 19.7522313,10.7445758 21.5527706,9.63762271 C20.4117315,8.00801588 18.5690806,7.0118516 16.5806847,6.94963966 C14.4887301,6.73005943 12.4606712,8.2014314 11.3946494,8.2014314 C10.3079975,8.2014314 8.66668945,6.97144072 6.89927158,7.00780488 C4.57381054,7.08293558 2.45840534,8.37304369 1.32702124,10.4061162 C-1.08230692,14.5774929 0.714835125,20.7080122 3.0227697,24.0798384 C4.17747822,25.7309258 5.52700098,27.5752329 7.29282425,27.5098297 C9.02078844,27.4381603 9.66614953,26.4079669 11.75195,26.4079669 C13.8183912,26.4079669 14.423875,27.5098297 16.2255268,27.4682457 C18.0797129,27.4381478 19.247938,25.8098207 20.362134,24.1430988 C21.1917901,22.9666387 21.8302092,21.6663941 22.2537431,20.2905282 C20.0515332,19.3591015 18.6195983,17.2012368 18.6170279,14.8101538 L18.6170279,14.8101538 Z" id="_Path_"></path>
                                        <path d="M15.2140325,4.7320985 C16.2250118,3.51845476 16.7230829,1.95852134 16.6024733,0.383572601 C15.0579218,0.545797983 13.6311889,1.2839932 12.6065514,2.45107266 C11.594769,3.60255342 11.0822024,5.1089985 11.1817465,6.63860711 C12.7470086,6.6547234 14.2331919,5.95203979 15.2140325,4.7320985 L15.2140325,4.7320985 Z" id="_Path_2"></path>
                                    </g>
                                </g>
                                <g id="Group" transform="translate(30.630645, 11.725693)">
                                    <path d="M9.82903598,11.6042759 L3.93228626,11.6042759 L2.51618931,15.7856562 L0.0185606295,15.7856562 L5.60386669,0.315626639 L8.19881528,0.315626639 L13.7841213,15.7856562 L11.2438996,15.7856562 L9.82903598,11.6042759 Z M4.54300237,9.67478275 L9.21714885,9.67478275 L6.9129516,2.88871189 L6.84847031,2.88871189 L4.54300237,9.67478275 Z" id="Shape"></path>
                                    <path d="M25.8464839,10.1468192 C25.8464839,13.6517813 23.9705216,15.903656 21.1395486,15.903656 C19.6762433,15.9802021 18.2978898,15.2137593 17.5907976,13.9303489 L17.5372292,13.9303489 L17.5372292,19.5168759 L15.2220816,19.5168759 L15.2220816,4.50676137 L17.4630558,4.50676137 L17.4630558,6.38272358 L17.5056364,6.38272358 C18.244142,5.10735919 19.6239818,4.3412463 21.096968,4.38874914 C23.9595215,4.3887616 25.8464839,6.65158667 25.8464839,10.1468192 Z M23.466855,10.1468192 C23.466855,7.86331429 22.28677,6.36204372 20.4862394,6.36204372 C18.7173391,6.36204372 17.5275247,7.89493205 17.5275247,10.1468192 C17.5275247,12.4193863 18.7173391,13.9413242 20.4862394,13.9413242 C22.2867825,13.9413242 23.466855,12.4510165 23.466855,10.1468192 Z" id="Shape"></path>
                                    <path d="M38.2604289,10.1468192 C38.2604289,13.6517813 36.3844667,15.903656 33.5534936,15.903656 C32.0901884,15.9802021 30.7118348,15.2137593 30.0047426,13.9303489 L29.9511743,13.9303489 L29.9511743,19.5168759 L27.6360267,19.5168759 L27.6360267,4.50676137 L29.876951,4.50676137 L29.876951,6.38272358 L29.9195316,6.38272358 C30.6580425,5.10735996 32.0378877,4.34125158 33.5108757,4.3887616 C36.3735163,4.3887616 38.2604289,6.65158667 38.2604289,10.1468192 Z M35.8808,10.1468192 C35.8808,7.86331429 34.700715,6.36204372 32.9001845,6.36204372 C31.1312842,6.36204372 29.9414697,7.89493205 29.9414697,10.1468192 C29.9414697,12.4193863 31.1312842,13.9413242 32.9001845,13.9413242 C34.7007275,13.9413242 35.8808125,12.4510165 35.8808125,10.1468192 L35.8808,10.1468192 Z" id="Shape"></path>
                                    <path d="M46.465026,11.4753133 C46.6365692,13.0094225 48.1268894,14.0166936 50.1634195,14.0166936 C52.1148133,14.0166936 53.5187391,13.0093727 53.5187391,11.6261143 C53.5187391,10.4253495 52.6719985,9.7063756 50.6670862,9.21364681 L48.6621738,8.73065998 C45.8214713,8.04451222 44.5026942,6.71600567 44.5026942,4.56023002 C44.5026942,1.89105817 46.8287922,0.0576765407 50.1317892,0.0576765407 C53.4007019,0.0576765407 55.6416637,1.89105817 55.7170953,4.56023002 L53.3800221,4.56023002 C53.2401216,3.01639133 51.9639251,2.08450206 50.0989133,2.08450206 C48.2339014,2.08450206 46.9577174,3.02735415 46.9577174,4.39964967 C46.9577174,5.4933526 47.7728277,6.13691979 49.7667897,6.62958629 L51.4712088,7.04809182 C54.6452557,7.79872088 55.9640328,9.0737214 55.9640328,11.3365216 C55.9640328,14.230755 53.6586147,16.0434568 49.9918514,16.0434568 C46.5611001,16.0434568 44.2447441,14.2733356 44.0951017,11.4752012 L46.465026,11.4753133 Z" id="Shape"></path>
                                    <path d="M60.9605359,1.83758953 L60.9605359,4.50676137 L63.1053612,4.50676137 L63.1053612,6.34014301 L60.9605359,6.34014301 L60.9605359,12.5580659 C60.9605359,13.5240271 61.3899918,13.9741628 62.3328314,13.9741628 C62.5874571,13.9697228 62.8416707,13.9518418 63.0944108,13.9205945 L63.0944108,15.7430258 C62.670509,15.8222316 62.2396485,15.8581036 61.8084849,15.8500877 C59.5249799,15.8500877 58.6344379,14.9923968 58.6344379,12.8049909 L58.6344379,6.34014301 L56.9945002,6.34014301 L56.9945002,4.50676137 L58.634413,4.50676137 L58.634413,1.83758953 L60.9605359,1.83758953 Z" id="Shape"></path>
                                    <path d="M64.3475355,10.1468192 C64.3475355,6.59806819 66.437609,4.36808174 69.6968296,4.36808174 C72.966988,4.36808174 75.047332,6.59801836 75.047332,10.1468192 C75.047332,13.7053122 72.9779384,15.9255567 69.6968296,15.9255567 C66.4168793,15.9255567 64.3475355,13.7052998 64.3475355,10.1468192 Z M72.688383,10.1468192 C72.688383,7.71245098 71.5727793,6.27567417 69.6968171,6.27567417 C67.8208549,6.27567417 66.7064721,7.72340134 66.7064721,10.1468192 C66.7064721,12.590917 67.8208549,14.0167559 69.6968171,14.0167559 C71.5727793,14.0167559 72.6883332,12.590917 72.6883332,10.1468192 L72.688383,10.1468192 Z" id="Shape"></path>
                                    <path d="M76.9560955,4.50676137 L79.1641812,4.50676137 L79.1641812,6.4265001 L79.2177495,6.4265001 C79.5256752,5.19067721 80.6580302,4.34014095 81.9307104,4.38873668 C82.1975105,4.38780513 82.4635745,4.41678 82.72392,4.4751187 L82.72392,6.64062385 C82.3871011,6.53770208 82.0357411,6.49044732 81.6836982,6.50072336 C81.003067,6.47311131 80.344367,6.7443654 79.8805533,7.24326232 C79.4167396,7.74215924 79.1941503,8.41885597 79.2712306,9.09567195 L79.2712306,15.7856313 L76.956083,15.7856313 L76.9560955,4.50676137 Z" id="Shape"></path>
                                    <path d="M93.3981283,12.4729047 C93.0866846,14.5203977 91.0927102,15.9255443 88.5415506,15.9255443 C85.2604418,15.9255443 83.2238992,13.727188 83.2238992,10.2003377 C83.2238992,6.66253703 85.2713921,4.36806928 88.4442307,4.36806928 C91.5647467,4.36806928 93.5270909,6.51167372 93.5270909,9.93147462 L93.5270909,10.7246843 L85.5609475,10.7246843 L85.5609475,10.8645847 C85.4865716,11.7042763 85.7765183,12.5354544 86.3570348,13.1466943 C86.9375512,13.7579343 87.7526856,14.090323 88.595094,14.0593115 C89.7185862,14.164579 90.7778195,13.5194397 91.1997845,12.4728923 L93.3981283,12.4729047 Z M85.5718759,9.10664722 L91.2107224,9.10663477 C91.2527367,8.35211577 90.9780821,7.61427533 90.4529302,7.07087897 C89.9277783,6.52748261 89.1997441,6.22779956 88.4442307,6.24403149 C87.6827407,6.23948719 86.9509838,6.53931076 86.4116067,7.0768608 C85.8722296,7.61441084 85.5699249,8.34514619 85.5718759,9.10664722 L85.5718759,9.10664722 Z" id="Shape"></path>
                                </g>
                            </g>
                        </g>
                        <g id="_Group_4" transform="translate(44.180049, 9.760709)" fill="#FFFFFF">
                            <g id="Group">
                                <path d="M0.0181235735,4.66680711 C0.0181235735,2.23682905 1.29790882,0.735802169 3.35963999,0.735802169 C4.90040917,0.658729918 6.24217553,1.78802489 6.44496312,3.3325582 L5.29753301,3.3325582 C5.09884567,2.42147703 4.28264363,1.78488443 3.35963999,1.82110848 C2.02764627,1.82110848 1.19469792,2.91683764 1.19469792,4.66680711 C1.19469792,6.4118791 2.02764627,7.50699293 3.36450151,7.50699293 C4.25326288,7.57417306 5.06419655,6.99488711 5.29753301,6.12614264 L6.44496312,6.12614264 C6.21284271,7.63422766 4.87124904,8.70828101 3.36450151,8.59229925 C1.30282007,8.59229925 0.0181235735,7.09187514 0.0181235735,4.66680711 Z" id="Shape"></path>
                                <path d="M7.70531472,5.58104074 C7.60931172,4.5674951 8.09051064,3.58660163 8.94709798,3.04974436 C9.80368532,2.5128871 10.8875596,2.5128871 11.744147,3.04974436 C12.6007343,3.58660163 13.0819332,4.5674951 12.9859302,5.58104074 C13.0837598,6.59567552 12.6030001,7.57847148 11.7456532,8.11648449 C10.8883064,8.6544975 9.80293853,8.6544975 8.94559169,8.11648449 C8.08824485,7.57847148 7.60748514,6.59567552 7.70531472,5.58104074 Z M11.8494168,5.58104074 C11.8494168,4.35532749 11.3042305,3.63853758 10.347444,3.63853758 C9.38700202,3.63853758 8.84671456,4.35532749 8.84671456,5.5810533 C8.84671456,6.81658662 9.38703932,7.52785117 10.347444,7.52785117 C11.3042429,7.52783861 11.8494292,6.81166403 11.8494292,5.58104074 L11.8494168,5.58104074 Z" id="Shape"></path>
                                <path d="M14.4684818,2.75617523 L15.5321346,2.75617523 L15.5321346,3.65446067 L15.6147058,3.65446067 C15.9018398,2.99308502 16.572789,2.58851505 17.285464,2.64702426 C17.8372859,2.60512164 18.3780322,2.81892562 18.7550235,3.22806871 C19.1320148,3.63721179 19.3043406,4.19729435 19.2233446,4.75017726 L19.2233446,8.41072838 L18.1184124,8.41072838 L18.1184124,5.03041348 C18.1184124,4.12170521 17.7274394,3.66979354 16.9102693,3.66979354 C16.5359769,3.65218663 16.1727362,3.80054688 15.9157775,4.07597882 C15.6588189,4.35141076 15.5337697,4.7264446 15.573414,5.10275803 L15.573414,8.41079117 L14.4684818,8.41079117 L14.4684818,2.75617523 Z" id="Shape"></path>
                                <path d="M22.9789107,2.64703681 C24.2380562,2.64703681 25.0612815,3.2387401 25.1693539,4.23575367 L24.1093441,4.23575367 C24.007389,3.82063587 23.6054497,3.55575764 22.9789107,3.55575764 C22.3620947,3.55575764 21.8934618,3.85130162 21.8934618,4.2927779 C21.8934618,4.63057833 22.1763748,4.84340516 22.7834801,4.98381209 L23.7135096,5.20148617 C24.778381,5.45104408 25.2774139,5.91336604 25.2774139,6.74421696 C25.2774139,7.8086776 24.2951635,8.51994215 22.958271,8.51994215 C21.6262773,8.51994215 20.7581171,7.91229066 20.6597677,6.91037961 L21.7659558,6.91037961 C21.9621348,7.40117756 22.4652773,7.69274574 22.9838095,7.6161188 C23.6722676,7.6161188 24.1616023,7.30468941 24.1616023,6.8527275 C24.1616023,6.51549217 23.899329,6.29720277 23.3383646,6.16230863 L22.362132,5.93359639 C21.2972607,5.67912844 20.8042953,5.19657613 20.8042953,4.35530237 C20.804258,3.35278856 21.7137349,2.64703681 22.9789107,2.64703681 Z" id="Shape"></path>
                                <path d="M26.6725452,1.81067309 L27.9632595,0.0245250646 L29.2588354,0.0245250646 L27.8139077,1.81067309 L26.6725452,1.81067309 Z M26.7866852,2.75617523 L27.8867683,2.75617523 L27.8867683,8.41079117 L26.7866852,8.41079117 L26.7866852,2.75617523 Z" id="Shape"></path>
                                <path d="M29.6073105,8.9767513 L30.7377439,8.9767513 C30.8312442,9.38695906 31.2987084,9.65184985 32.0442364,9.65184985 C32.9646051,9.65184985 33.5097914,9.21037357 33.5097914,8.46291792 L33.5097914,7.3776116 L33.4272202,7.3776116 C33.0738397,7.99706923 32.4063192,8.36400896 31.699392,8.32740846 C30.2702673,8.32740846 29.3863166,7.21144895 29.3863166,5.51849115 C29.3863166,3.79432762 30.2799779,2.66236969 31.710321,2.66236969 C32.4347742,2.63689044 33.1128683,3.02141854 33.4684995,3.65938326 L33.5559198,3.65938326 L33.5559198,2.75618779 L34.6147112,2.75618779 L34.6147112,8.45735489 C34.6147112,9.75052776 33.6117713,10.5709433 32.0284334,10.5709433 C30.6296715,10.5710186 29.7250811,9.93757376 29.6073105,8.9767513 Z M33.530431,5.51297835 C33.530431,4.38655833 32.953676,3.66489606 32.0126677,3.66489606 C31.0619363,3.66489606 30.5276791,4.386596 30.5276791,5.51297835 C30.5276791,6.63997602 31.0619363,7.36167596 32.0126677,7.36167596 C32.959756,7.3616634 33.530431,6.64550138 33.530431,5.51297835 L33.530431,5.51297835 Z" id="Shape"></path>
                                <path d="M41.0955869,8.41079117 L40.0307156,8.41079117 L40.0307156,7.51250574 L39.9432953,7.51250574 C39.653007,8.18104199 38.9716377,8.5868816 38.2518974,8.51994215 C37.7034134,8.55925924 37.1667689,8.34580796 36.7921202,7.93931324 C36.4174715,7.53281851 36.2450566,6.9769386 36.3231182,6.42721198 L36.3231182,2.75617523 L37.4298781,2.75617523 L37.4298781,6.13655292 C37.4298781,7.05017122 37.7941811,7.48675002 38.6064525,7.48675002 C38.9878833,7.52330744 39.3652905,7.38413855 39.6336692,7.10796392 C39.9020479,6.83178929 40.0327594,6.44807951 39.9894362,6.06359305 L39.9894362,2.75617523 L41.0955869,2.75617523 L41.0955869,8.41079117 Z" id="Shape"></path>
                                <path d="M47.590438,6.88400857 C47.2806027,7.95062848 46.258617,8.63978349 45.1644411,8.51992959 C44.4178834,8.53983427 43.7004,8.22729877 43.2023573,7.66524671 C42.7043146,7.10319465 42.476063,6.34844738 42.5781633,5.60125854 C42.4787787,4.85199518 42.706177,4.09604209 43.2014458,3.52924465 C43.6967146,2.9624472 44.4111197,2.64057811 45.1595796,2.64702426 C46.7174163,2.64702426 47.6572186,3.72195796 47.6572186,5.4976078 L47.6572186,5.88702012 L43.7037104,5.88702012 L43.7037104,5.94955715 C43.6687249,6.3691582 43.810615,6.78419765 44.0944854,7.09260436 C44.3783559,7.40101106 44.777867,7.57416866 45.1947665,7.56949229 C45.7353423,7.63503648 46.2615558,7.36421643 46.5267602,6.8839709 L47.590438,6.88400857 Z M43.7037104,5.061682 L46.5316093,5.061682 C46.5597749,4.67792117 46.4261709,4.29999235 46.1637217,4.0210295 C45.9012724,3.74206665 45.5343858,3.58801347 45.1534747,3.59683367 C44.7673988,3.591928 44.3957236,3.74470411 44.1227625,4.02050529 C43.8498013,4.29630646 43.698691,4.6717551 43.7037104,5.061682 L43.7037104,5.061682 Z" id="Shape"></path>
                                <polygon id="Shape" points="49.1919662 0.548768727 50.2968984 0.548768727 50.2968984 8.41077861 49.1919662 8.41077861"></polygon>
                                <path d="M51.8328769,5.58104074 C51.7368739,4.5674951 52.2180729,3.58660163 53.0746602,3.04974436 C53.9312475,2.5128871 55.0151218,2.5128871 55.8717092,3.04974436 C56.7282965,3.58660163 57.2094954,4.5674951 57.1134924,5.58104074 C57.211322,6.59567552 56.7305623,7.57847148 55.8732155,8.11648449 C55.0158686,8.6544975 53.9305007,8.6544975 53.0731539,8.11648449 C52.2158071,7.57847148 51.7350474,6.59567552 51.8328769,5.58104074 Z M55.976979,5.58104074 C55.976979,4.35532749 55.4317927,3.63853758 54.4750062,3.63853758 C53.5145642,3.63853758 52.9742768,4.35532749 52.9742768,5.5810533 C52.9742768,6.81658662 53.5146015,7.52785117 54.4750062,7.52785117 C55.4318176,7.52783861 55.9769914,6.81166403 55.9769914,5.58104074 L55.976979,5.58104074 Z" id="Shape"></path>
                                <path d="M66.3682309,6.88400857 C66.0583956,7.95062848 65.0364099,8.63978349 63.942234,8.51992959 C63.1956764,8.53983427 62.4781929,8.22729877 61.9801502,7.66524671 C61.4821076,7.10319465 61.2538559,6.34844738 61.3559563,5.60125854 C61.2565717,4.85199518 61.4839699,4.09604209 61.9792387,3.52924465 C62.4745075,2.9624472 63.1889126,2.64057811 63.9373725,2.64702426 C65.4952092,2.64702426 66.4350115,3.72195796 66.4350115,5.4976078 L66.4350115,5.88702012 L62.4815406,5.88702012 L62.4815406,5.94955715 C62.4465551,6.3691582 62.5884452,6.78419765 62.8723156,7.09260436 C63.1561861,7.40101106 63.5556972,7.57416866 63.9725968,7.56949229 C64.5131725,7.63503648 65.039386,7.36421643 65.3045905,6.8839709 L66.3682309,6.88400857 Z M62.4815033,5.061682 L65.3094893,5.061682 C65.3376549,4.67792117 65.2040509,4.29999235 64.9416016,4.0210295 C64.6791523,3.74206665 64.3122658,3.58801347 63.9313547,3.59683367 C63.5452702,3.59191434 63.1735821,3.74468442 62.90061,4.02048711 C62.627638,4.2962898 62.4765209,4.67174628 62.4815406,5.061682 L62.4815033,5.061682 Z" id="Shape"></path>
                                <path d="M67.9187815,2.75617523 L68.9824344,2.75617523 L68.9824344,3.65446067 L69.0650056,3.65446067 C69.3521396,2.99308502 70.0230887,2.58851505 70.7357638,2.64702426 C71.2875856,2.60512164 71.828332,2.81892562 72.2053233,3.22806871 C72.5823146,3.63721179 72.7546404,4.19729435 72.6736444,4.75017726 L72.6736444,8.41072838 L71.5687122,8.41072838 L71.5687122,5.03041348 C71.5687122,4.12170521 71.1777392,3.66979354 70.360569,3.66979354 C69.9862767,3.65218663 69.623036,3.80054688 69.3660773,4.07597882 C69.1091186,4.35141076 68.9840695,4.7264446 69.0237138,5.10275803 L69.0237138,8.41079117 L67.9187815,8.41079117 L67.9187815,2.75617523 Z" id="Shape"></path>
                                <path d="M82.1542259,6.88400857 C81.8443905,7.95062848 80.8224048,8.63978349 79.728229,8.51992959 C78.9816713,8.53983427 78.2641879,8.22729877 77.7661452,7.66524671 C77.2681025,7.10319465 77.0398509,6.34844738 77.1419512,5.60125854 C77.0425666,4.85199518 77.2699648,4.09604209 77.7652337,3.52924465 C78.2605025,2.9624472 78.9749076,2.64057811 79.7233675,2.64702426 C81.2812042,2.64702426 82.2210064,3.72195796 82.2210064,5.4976078 L82.2210064,5.88702012 L78.2675356,5.88702012 L78.2675356,5.94955715 C78.2325501,6.3691582 78.3744402,6.78419765 78.6583106,7.09260436 C78.942181,7.40101106 79.3416922,7.57416866 79.7585917,7.56949229 C80.2991674,7.63503648 80.8253809,7.36421643 81.0905854,6.8839709 L82.1542259,6.88400857 Z M78.2674983,5.061682 L81.0953972,5.061682 C81.1235628,4.67792117 80.9899588,4.29999235 80.7275095,4.0210295 C80.4650603,3.74206665 80.0981737,3.58801347 79.7172626,3.59683367 C79.3311931,3.59193824 78.9595276,3.74471887 78.6865746,4.02051892 C78.4136216,4.29631896 78.2625164,4.67176172 78.2675356,5.061682 L78.2674983,5.061682 Z" id="Shape"></path>
                                <polygon id="Shape" points="83.7557789 0.548768727 84.8607112 0.548768727 84.8607112 8.41077861 83.7557789 8.41077861"></polygon>
                            </g>
                        </g>
                    </g>
                </g>
            </g>
        </g>
    </g>
</svg>