<?xml version="1.0" encoding="UTF-8"?>
<svg width="133px" height="14px" viewBox="0 0 133 14" version="1.1" xmlns="http://www.w3.org/2000/svg" xmlns:xlink="http://www.w3.org/1999/xlink">
    <!-- Generator: sketchtool 54.1 (76490) - https://sketchapp.com -->
    <title>FF0064C3-45F2-4EFC-9D34-247DB0E208D1</title>
    <desc>Created with sketchtool.</desc>
    <g id="Page-5--APROBADO" stroke="none" stroke-width="1" fill="none" fill-rule="evenodd">
        <g id="Home_cuponera_buscador-02" transform="translate(-653.000000, -598.000000)">
            <g id="Group-5-Copy" transform="translate(654.000000, 596.000000)">
                <g id="Group-21-Copy-4" transform="translate(66.500000, 8.000000) scale(-1, 1) translate(-66.500000, -8.000000) ">
                    <g id="Group-2">
                        <path d="M129.479608,8.21130957 L132.642676,4.40732757 C132.720506,4.31372735 132.720506,4.16375075 132.642676,4.07015052 C132.56492,3.97661649 132.440139,3.97661649 132.362382,4.07015052 L129.058331,8.04368088 C128.980556,8.13719285 128.980556,8.28725771 129.058331,8.38076967 L132.362382,12.3524907 C132.400508,12.3984303 132.451899,12.423077 132.501768,12.423077 C132.551655,12.423077 132.603046,12.4001513 132.641245,12.3524907 C132.719002,12.2589787 132.719002,12.1089139 132.641245,12.0154019 L129.479608,8.21130957 Z" id="Fill-1-Copy" stroke="#DA272C" stroke-width="1.5" fill="#DA272C" transform="translate(130.850524, 8.211539) scale(-1, 1) translate(-130.850524, -8.211539) "></path>
                        <text id="Volver-a-categorías" transform="translate(60.000000, 8.000000) scale(-1, 1) translate(-60.000000, -8.000000) " font-family="Roboto-Regular, Roboto" font-size="14" font-weight="normal" fill="#4A4A4A">
                            <tspan x="0" y="13">Volver a categorías</tspan>
                        </text>
                    </g>
                </g>
            </g>
        </g>
    </g>
</svg>