<svg xmlns="http://www.w3.org/2000/svg" width="434" height="97" viewBox="0 0 434 97">
    <g fill="none" fill-rule="evenodd">
        <path fill="#DA272C" d="M217.542 50.627c-5.217-5.217-11.518-7.773-18.67-7.773-7.155 0-13.336 2.556-18.423 7.773-5.225 5.222-7.764 11.526-7.764 18.815 0 7.281 2.539 13.592 7.764 18.687 5.087 5.228 11.268 7.893 18.423 7.893 7.152 0 13.453-2.665 18.67-7.893 5.088-5.095 7.634-11.406 7.634-18.687 0-7.29-2.546-13.593-7.634-18.815m-8.856 28.645c-2.662 2.806-5.939 4.125-9.814 4.125-3.751 0-7.032-1.319-9.697-4.125-2.672-2.791-4.127-6.072-4.127-9.83 0-4.002 1.455-7.29 4.127-9.954 2.665-2.781 5.946-4.132 9.697-4.005 3.875-.127 7.152 1.224 9.933 4.005 2.553 2.665 3.882 5.952 4.012 9.954-.13 3.758-1.46 7.039-4.131 9.83M32.924 29.872c-9.086-.124-16.61 3.034-22.91 9.588C3.59 45.89.445 53.538.445 62.644c0 8.973 3.144 16.88 9.567 23.3 6.301 6.315 13.825 9.48 22.91 9.48 7.279 0 13.949-2.19 19.76-6.688 5.696-4.61 9.458-10.312 11.392-17.348h-13.21c-1.694 3.397-4.113 6.174-7.15 8.368-3.397 2.068-6.91 3.161-10.791 3.161-5.573 0-10.299-2.067-14.18-5.956-3.991-4.005-5.939-8.727-5.82-14.317-.119-5.58 1.829-10.32 5.82-14.317 3.881-3.885 8.607-5.953 14.18-5.953 3.881 0 7.394 1.09 10.79 3.277 3.038 2.068 5.457 4.975 7.152 8.372h13.21c-1.935-7.04-5.697-12.869-11.393-17.345-5.811-4.623-12.481-6.93-19.76-6.806M112.935 42.737c-8.484-.127-14.43 2.183-17.826 6.677-2.173 2.791-3.267 6.434-3.636 11.05h12.616c.232-2.186.97-3.646 1.817-4.616 1.333-1.705 3.51-2.563 6.67-2.426 2.662-.137 4.726.355 6.17 1.21 1.453.724 2.061 2.186 2.188 4.247 0 1.695-.974 3.045-2.911 3.892l-9.701 1.568c-4.483.612-8.115 1.695-10.91 3.284-4.719 2.788-7.022 7.275-6.902 13.723-.12 4.476 1.332 8.129 4.237 10.794 2.545 2.194 6.058 3.4 10.312 3.527 6.902-.127 12.352-1.829 16.237-5.229v5.229h12.612v-37.15c0-6.072-2.198-10.313-6.311-12.503-4.37-2.307-9.212-3.404-14.662-3.277zm5.33 28.515l2.416-1.322v5.101c0 4.357-1.21 7.394-3.51 9.093-2.425 1.698-4.971 2.552-7.882 2.552-1.814 0-3.267-.492-4.483-1.448-1.199-1.104-1.818-2.68-1.818-4.983 0-2.545.981-4.373 3.034-5.71 1.217-.727 3.267-1.336 5.939-1.694l6.304-1.59zM70.504 95.664h12.608V29.876H70.504zM163.349 44.555c-3.386 1.343-6.414 3.653-8.966 7.162v-6.434l-12-.113v50.497h12.485V71.509c0-4.132.492-7.043 1.586-8.86.837-1.938 2.415-3.52 4.36-4.86 2.183-1.455 4.475-2.19 6.912-2.19l3.875.253-.12-12.876-3.27.243-4.862 1.336zM227.356 44.806l30.43-30.473-7.998-8.003-30.431 30.463zM194.752 32.668h11.272V0h-11.272zM232.936 68.714h33.338V57.427h-33.338z"/>
        <path fill="#231F20" d="M299.907 94.536c-2.5 1.052-5.369 1.579-8.617 1.579-2.35 0-4.775-.359-7.275-1.083-2.5-.72-4.768-2-6.796-3.836-2.03-1.835-3.713-4.3-5.05-7.401-1.332-3.098-2-7.025-2-11.775 0-4.754.668-8.678 2-11.779 1.337-3.097 3.02-5.552 5.05-7.355 2.028-1.804 4.296-3.07 6.796-3.79 2.5-.721 4.926-1.083 7.275-1.083 3.248 0 6.117.513 8.617 1.533 2.497 1.023 4.796 2.615 6.902 4.781l-7.943 7.946c-1.202-1.325-2.376-2.27-3.519-2.844-1.143-.57-2.496-.858-4.057-.858-2.771 0-4.997 1.023-6.68 3.073-.901 1.14-1.565 2.521-1.987 4.149-.419 1.624-.633 3.699-.633 6.227 0 4.813.872 8.301 2.62 10.467 1.683 2.046 3.909 3.07 6.68 3.07 1.56 0 2.914-.285 4.057-.859 1.143-.57 2.317-1.515 3.52-2.84l7.942 7.85c-2.106 2.163-4.405 3.773-6.902 4.828M328.29 95.573c-2.416 0-4.505-.39-6.26-1.174-1.757-.78-3.199-1.804-4.324-3.066a11.863 11.863 0 0 1-2.454-4.29 15.93 15.93 0 0 1-.773-4.915v-50.81h11.824v50.09c0 1.38.313 2.432.946 3.153.632.724 1.698 1.086 3.203 1.086h4.514v9.926h-6.677zM370.43 95.573v-4.332a15.251 15.251 0 0 1-5.397 3.657 16.938 16.938 0 0 1-6.294 1.217c-2.341 0-4.44-.36-6.297-1.083-1.863-.721-3.453-1.744-4.771-3.066-1.916-1.927-3.193-3.987-3.822-6.185-.626-2.194-.942-4.588-.942-7.173V48.554h11.82v28.43c0 1.624.226 2.978.672 4.057.447 1.087 1.04 1.959 1.78 2.62a6.936 6.936 0 0 0 2.499 1.441 8.692 8.692 0 0 0 2.721.454c.893 0 1.8-.151 2.718-.454a6.907 6.907 0 0 0 2.5-1.441c.746-.661 1.354-1.533 1.832-2.62.471-1.079.714-2.433.714-4.057v-28.43h11.82v47.02H370.43zM421.515 66.693c-.18-1.624-.535-3.038-1.073-4.24-.534-1.206-1.322-2.152-2.362-2.845-1.038-.689-2.423-1.037-4.15-1.037-1.722 0-3.107.348-4.148 1.037-1.04.693-1.825 1.639-2.363 2.845-.538 1.202-.893 2.616-1.069 4.24-.179 1.624-.27 3.4-.27 5.327s.091 3.713.27 5.369c.176 1.656.531 3.083 1.07 4.286.537 1.206 1.321 2.152 2.362 2.84 1.04.697 2.426 1.041 4.149 1.041 1.726 0 3.111-.344 4.149-1.04 1.04-.69 1.828-1.635 2.362-2.841.538-1.203.893-2.63 1.073-4.286.18-1.656.267-3.442.267-5.37 0-1.926-.088-3.702-.267-5.326m12 10.741c-.06 1.864-.24 3.671-.538 5.415-.302 1.744-.78 3.4-1.442 4.965-.66 1.56-1.557 2.918-2.696 4.057-1.322 1.326-2.989 2.363-4.997 3.115-2.007.753-4.152 1.129-6.43 1.129-2.521 0-4.694-.376-6.523-1.129-1.828-.752-3.554-2.028-5.172-3.836l.004 4.423h-11.462V31.315h11.82v21.388c1.562-1.744 3.239-2.96 5.039-3.653 1.8-.693 3.896-1.037 6.297-1.037 2.275 0 4.423.376 6.43 1.125 2.009.756 3.672 1.793 4.994 3.115a13.936 13.936 0 0 1 2.7 4.11 21.689 21.689 0 0 1 1.438 4.915c.299 1.748.478 3.538.538 5.37a165.304 165.304 0 0 1 0 10.786"/>
    </g>
</svg>
