<?xml version="1.0" encoding="UTF-8"?>
<svg width="395px" height="333px" viewBox="0 0 395 333" version="1.1" xmlns="http://www.w3.org/2000/svg" xmlns:xlink="http://www.w3.org/1999/xlink">
    <!-- Generator: sketchtool 54.1 (76490) - https://sketchapp.com -->
    <title>344C5312-733B-4AA5-9A4D-24CEF1108D80</title>
    <desc>Created with sketchtool.</desc>
    <g id="Page-5-HOME-APROBADO" stroke="none" stroke-width="1" fill="none" fill-rule="evenodd" opacity="0.119907924">
        <g id="Home_cuponera_cupon-_v2" transform="translate(-839.000000, -381.000000)" fill="#D3D3D3">
            <path d="M1233.99932,626.7873 C1233.99932,613.6671 1223.62079,603 1210.85151,603 L1203.14302,603 L1203.14302,577.4478 C1203.45583,577.1592 1203.77981,576.8928 1204.09262,576.6042 C1209.09755,571.9089 1219.56546,568.9119 1226.38021,568.812 C1230.64781,568.7565 1234.05518,565.1712 1233.99932,560.7867 C1233.94346,556.4466 1230.50257,552.9612 1226.29083,552.9612 L1226.19029,552.9612 C1219.56546,553.05 1210.77331,554.8593 1203.14302,558.5667 L1203.14302,537.7764 C1212.53844,533.8248 1218.78343,523.8903 1217.44283,512.8569 C1208.33787,437.6877 1145.80973,381 1071.98698,381 L1001.01302,381 C927.190266,381 864.662127,437.6877 855.557172,512.8458 C854.227737,523.857 860.428044,533.8137 869.856979,537.7764 L869.856979,558.2115 C862.204348,554.6484 853.378686,552.8613 846.608621,552.9612 C842.352194,553.0167 838.944818,556.6131 839.000677,560.9976 C839.056536,565.3377 842.497427,568.812 846.709167,568.812 L846.820884,568.812 C853.713838,568.7121 864.416349,571.6758 869.644716,576.5709 L869.856979,576.7596 L869.856979,603 L862.148489,603 C849.356865,603 839.000677,613.6449 839.000677,626.7873 C839.000677,638.5755 847.390642,648.3768 858.350103,650.2416 C856.540284,655.1367 856.417395,660.4758 858.093153,665.5596 C867.656149,694.5306 894.077276,714 923.861093,714 L1149.13891,714 C1178.92272,714 1205.35502,694.5306 1214.91802,665.5485 C1216.58261,660.4758 1216.45972,655.1367 1214.66107,650.2527 C1225.40827,648.4323 1233.99932,638.8086 1233.99932,626.7873 M871.059014,517.157508 C879.218664,450.364718 935.261693,400 1001.44552,400 L1072.55424,400 C1138.72688,400 1194.7811,450.364718 1202.94075,517.168533 C1203.5004,521.711061 1200.0194,525.680259 1195.71011,525.966923 C1195.66534,525.977949 1195.60938,525.977949 1195.55341,525.977949 C1195.43029,525.988974 1195.29598,526 1195.16166,526 L878.838104,526 C874.28258,526 870.476981,521.920546 871.059014,517.157508 M1158.84928,563.213179 C1141.75711,547.381648 1118.78352,547.381648 1101.68009,563.213179 C1090.51441,573.557331 1076.64463,573.557331 1065.47894,563.213179 C1048.37551,547.381648 1025.40192,547.381648 1008.30975,563.213179 C997.144071,573.557331 983.274289,573.557331 972.108607,563.213179 C955.016439,547.381648 932.042852,547.381648 914.939416,563.224242 C905.475065,571.986348 894.140377,573.380319 884,567.218081 L884,538 L1189,538 L1189,567.671674 C1179.08496,573.280749 1168.04322,571.731892 1158.84928,563.213179 M1189,587.122717 L1189,603 L884,603 L884,586.887022 C888.21389,588.311907 892.529184,589.029705 896.844477,589.029705 C906.88345,589.029705 916.899889,585.172876 925.429073,577.512783 C936.594754,567.495739 950.464536,567.495739 961.630218,577.512783 C978.722386,592.854395 1001.69597,592.854395 1018.79941,577.512783 C1029.96509,567.495739 1043.83487,567.495739 1054.98929,577.512783 C1072.09272,592.854395 1095.06631,592.854395 1112.16975,577.512783 C1123.32416,567.495739 1137.19394,567.506452 1148.37089,577.512783 C1160.26893,588.194059 1175.20909,591.472364 1189,587.122717 M1199.64845,659.980863 C1192.2486,682.720653 1171.77382,698 1148.69518,698 L924.307163,698 C901.239653,698 880.753745,682.720653 873.353892,659.992065 C871.751518,655.085648 875.824219,650 880.865021,650 L1192.13732,650 C1197.20038,650 1201.2397,655.108051 1199.64845,659.980863 M1213.26216,636 L863.737843,636 C859.471391,636 856,631.966387 856,627 C856,622.021008 859.460193,618 863.737843,618 L1213.26216,618 C1217.52861,618 1221,622.033613 1221,627 C1221,631.966387 1217.53981,636 1213.26216,636" id="Fill-4"></path>
        </g>
    </g>
</svg>