<?xml version="1.0" encoding="UTF-8"?>
<svg width="43px" height="39px" viewBox="0 0 43 39" version="1.1" xmlns="http://www.w3.org/2000/svg" xmlns:xlink="http://www.w3.org/1999/xlink">
    <!-- Generator: sketchtool 54.1 (76490) - https://sketchapp.com -->
    <title>A789F7A9-184E-4602-80C4-8A33244CD953</title>
    <desc>Created with sketchtool.</desc>
    <g id="Page-5-HOME-APROBADO" stroke="none" stroke-width="1" fill="none" fill-rule="evenodd">
        <g id="Home_cuponera_cupon-_v2" transform="translate(-1189.000000, -416.000000)" fill="#DA272C" fill-rule="nonzero">
            <g id="Group-2" transform="translate(1124.000000, 415.000000)">
                <path d="M104.893656,5.42945407 C102.816569,2.99975803 99.9350656,1.66170389 96.7800774,1.66170389 C92.3427943,1.66170389 89.5335075,4.39377642 87.9582342,6.6857665 C87.5495284,7.28051376 87.2018529,7.87687211 86.9099437,8.43804083 C86.6180345,7.87687211 86.2704413,7.28051376 85.8616533,6.6857665 C84.2863799,4.39377642 81.4770931,1.66170389 77.03981,1.66170389 C73.8848218,1.66170389 71.0033185,2.99984283 68.9261489,5.42953886 C66.9448841,7.74730641 65.8536585,10.8514564 65.8536585,14.1701359 C65.8536585,17.7826277 67.2217413,21.1426021 70.1590931,24.7439858 C72.7843019,27.9627777 76.5610263,31.2806093 80.9344003,35.1225544 C82.5640416,36.5542215 84.2492847,38.0347301 86.0434282,39.6530294 L86.0973027,39.7017013 C86.3299089,39.911652 86.6199263,40.0165426 86.9099437,40.0165426 C87.1999611,40.0165426 87.4899786,39.9115672 87.7225847,39.7017013 L87.7764592,39.6530294 C89.5706027,38.0347301 91.2558458,36.5543063 92.8857339,35.1223849 C97.2588611,31.280694 101.035586,27.9628625 103.660794,24.7439858 C106.598146,21.1425173 107.966229,17.7826277 107.966229,14.1701359 C107.966229,10.8514564 106.875003,7.74730641 104.893656,5.42945407 Z" id="Shape-Copy"></path>
            </g>
        </g>
    </g>
</svg>