<?xml version="1.0" encoding="UTF-8"?>
<svg width="59px" height="58px" viewBox="0 0 59 58" version="1.1" xmlns="http://www.w3.org/2000/svg" xmlns:xlink="http://www.w3.org/1999/xlink">
    <!-- Generator: sketchtool 54.1 (76490) - https://sketchapp.com -->
    <title>1190D119-AE21-4A85-990A-D84FD813E05D</title>
    <desc>Created with sketchtool.</desc>
    <g id="Page-5--APROBADO" stroke="none" stroke-width="1" fill="none" fill-rule="evenodd">
        <g id="iconos-cuponera" transform="translate(-406.000000, -504.000000)">
            <g id="Group-21" transform="translate(406.000000, 504.000000)">
                <ellipse id="Oval-Copy-17" fill="#FFFFFF" cx="29.5" cy="29" rx="29.5" ry="29"></ellipse>
                <g id="Icono/rojo/restaurantes" transform="translate(9.000000, 7.000000)" fill="#DA272C" stroke="#FFFFFF">
                    <g id="Group" transform="translate(5.500000, 5.500000)">
                        <path d="M29.7726297,27.0885496 L3.66984798,1.35154562 C3.49533634,1.1794801 3.25452918,1.08904469 3.008784,1.10106131 C2.76230337,1.11369948 2.53284315,1.22868607 2.37734812,1.41742983 C2.32880846,1.47637341 1.18728586,2.88863669 1.10491553,5.28719489 C0.999115871,8.3714254 2.6016602,11.5685707 5.86852662,14.7896456 L12.4069873,21.236457 C12.9706568,21.7922256 13.7201848,22.0983385 14.5176222,22.0983385 C15.3148494,22.0983385 16.0643774,21.7922256 16.6280469,21.236457 C16.6729093,21.1922235 16.7239705,21.1830038 16.7590619,21.1830038 C16.7940483,21.1830038 16.8451095,21.1923271 16.8899719,21.236457 L17.9467077,22.2783806 C17.9871574,22.3182634 17.9704522,22.4210262 17.9327342,22.5018275 C17.416974,23.6138826 17.6596723,24.9423403 18.5369584,25.807226 L24.8045636,31.9870821 C25.4894772,32.6623952 26.3890369,33 27.2885966,33 C28.1882614,33 29.0878212,32.6623952 29.7726297,31.9870821 C31.1424568,30.6365593 31.1424568,28.4390723 29.7726297,27.0885496 Z M28.5405417,30.772057 C27.850375,31.4525498 26.7273437,31.4525498 26.0370718,30.772057 L19.7694666,24.592201 C19.4042634,24.2321168 19.3030866,23.679456 19.5178379,23.2166091 C19.8694878,22.4582155 19.7365815,21.6131158 19.1790058,21.0634592 L18.12227,20.0215356 C17.7581175,19.6624874 17.2738765,19.4647312 16.7589569,19.4647312 C16.2439321,19.4647312 15.7597963,19.662591 15.3956437,20.0215356 C15.1610354,20.2528555 14.8492048,20.3801695 14.5175171,20.3801695 C14.1858294,20.3801695 13.8738938,20.2527519 13.6392854,20.0215356 L7.10082469,13.5747242 C2.04114266,8.58596345 2.59577661,4.9508332 3.25053674,3.36826546 L28.5405417,28.3036782 C29.2308136,28.9842745 29.2308136,30.0915643 28.5405417,30.772057 Z" id="Shape-Copy" stroke-width="0.05" fill-rule="nonzero"></path>
                        <path d="M30.5310109,2.46906153 C30.172248,2.11031282 29.5905182,2.11031282 29.2319768,2.46906153 L23.3691552,8.33165121 C23.0102816,8.69039992 23.0102816,9.27210669 23.3691552,9.6308554 C23.5484813,9.81017437 23.7836322,9.9 24.0186723,9.9 C24.2537124,9.9 24.4888632,9.81039589 24.6681893,9.6308554 L30.5310109,3.76815496 C30.889663,3.40940625 30.889663,2.82769948 30.5310109,2.46906153 Z" id="Shape-Copy-2" stroke-width="0.05" fill-rule="nonzero"></path>
                        <path d="M27.2579198,0.246958183 C26.9351296,-0.0823193942 26.4117291,-0.0823193942 26.0891382,0.246958183 L20.7122248,5.73193576 C19.887859,6.57276776 19.4013318,7.64111541 19.377414,8.66310599 L19.3405408,10.2321304 L17.8420927,11.7606941 C17.5193024,12.0899716 17.5193024,12.6238913 17.8420927,12.9529656 C18.0034379,13.1176552 18.2149109,13.2 18.4264834,13.2 C18.6379564,13.2 18.849529,13.1176552 19.0108742,12.9529656 L20.7432182,11.1858053 C20.8933022,11.032705 20.9799044,10.8264363 20.9850866,10.6098999 L21.0299324,8.70346511 C21.0436852,8.11902029 21.3617915,7.45385722 21.8810063,6.92410561 L27.2578201,1.43922969 C27.58071,1.10995212 27.58071,0.576032439 27.2579198,0.246958183 Z" id="Shape-Copy-3" stroke-width="0.05" fill-rule="nonzero"></path>
                        <path d="M12.9451968,23.6120134 C12.6055991,23.2659839 12.0548802,23.2659839 11.7151776,23.6120134 L4.7561511,30.7006505 C4.42232171,31.0406974 3.97857929,31.2278674 3.50662445,31.2278674 C3.03466961,31.2278674 2.5908223,31.0405906 2.25709779,30.7006505 C1.92326841,30.3606036 1.73952066,29.9085966 1.73952066,29.4278516 C1.73952066,28.9469999 1.92337328,28.4949928 2.25709779,28.1550528 L8.97458833,21.3124502 C9.31429093,20.9664207 9.31429093,20.405338 8.97458833,20.0595221 C8.63488572,19.7134926 8.08406199,19.7134926 7.74456914,20.0595221 L1.02707861,26.9021247 C0.364768651,27.5767701 0,28.4738401 0,29.4279585 C0,30.3821837 0.364873529,31.2791469 1.02707861,31.9537922 C1.68928368,32.6284376 2.57005629,33 3.50672933,33 C4.44340236,33 5.32396521,32.6283308 5.98638005,31.9537922 L12.9454066,24.8651551 C13.2848994,24.5189119 13.2848994,23.9578292 12.9451968,23.6120134 Z" id="Shape-Copy-4" stroke-width="0.05" fill-rule="nonzero"></path>
                        <path d="M32.7553784,5.74516054 C32.4292163,5.41827982 31.9003482,5.41827982 31.5743875,5.74516054 L26.1415072,11.1900104 C25.6254279,11.7072268 24.9638394,12.0080701 24.3615622,12.0016112 L22.3983461,11.9717388 C22.1746949,11.9686102 21.9547696,12.0567136 21.7951627,12.2167732 L20.0446216,13.971171 C19.7184595,14.2980517 19.7184595,14.8280849 20.0446216,15.1547638 C20.2076523,15.3181537 20.421435,15.4 20.635117,15.4 C20.8487991,15.4 21.0625818,15.3183555 21.2256125,15.1547638 L22.7262201,13.65085 L24.3361862,13.6752728 C25.3939222,13.6915209 26.4811629,13.2168929 27.3224981,12.3736032 L32.7553784,6.92875335 C33.0815405,6.60187263 33.0815405,6.07194034 32.7553784,5.74516054 Z" id="Shape-Copy-5" stroke-width="0.05" fill-rule="nonzero"></path>
                    </g>
                </g>
            </g>
        </g>
    </g>
</svg>