<?xml version="1.0" encoding="UTF-8"?>
<svg width="63px" height="62px" viewBox="0 0 63 62" version="1.1" xmlns="http://www.w3.org/2000/svg" xmlns:xlink="http://www.w3.org/1999/xlink">
    <!-- Generator: sketchtool 54.1 (76490) - https://sketchapp.com -->
    <title>33447CCF-1C87-4047-A455-7148DBC8B660</title>
    <desc>Created with sketchtool.</desc>
    <g id="Page-5-HOME-APROBADO" stroke="none" stroke-width="1" fill="none" fill-rule="evenodd">
        <g id="Home_cuponera_02" transform="translate(-435.000000, -919.000000)">
            <g id="Group-37" transform="translate(435.000000, 919.000000)">
                <ellipse id="Oval" fill="#FFFFFF" cx="31.5" cy="31" rx="31.5" ry="31"></ellipse>
                <g id="Group-32" transform="translate(4.000000, 4.000000)">
                    <ellipse id="Oval" fill="#DA272C" cx="27.5" cy="27" rx="27.5" ry="27"></ellipse>
                    <path d="M45.9999383,32.143 C45.9999383,30.961 45.0540468,30 43.8902643,30 L43.1877184,30 L43.1877184,27.698 C43.2162275,27.672 43.2457548,27.648 43.2742639,27.622 C43.7304096,27.199 44.6844466,26.929 45.3055379,26.92 C45.6944836,26.915 46.0050292,26.592 45.9999383,26.197 C45.9948474,25.806 45.6812472,25.492 45.2973924,25.492 L45.2882288,25.492 C44.6844466,25.5 43.883137,25.663 43.1877184,25.997 L43.1877184,24.124 C44.0440098,23.768 44.6131738,22.873 44.4909919,21.879 C43.6611732,15.107 37.9624061,10 31.2342565,10 L24.7657435,10 C18.0375939,10 12.3388268,15.107 11.5090081,21.878 C11.3878444,22.87 11.9529356,23.767 12.8122816,24.124 L12.8122816,25.965 C12.1148266,25.644 11.3104625,25.483 10.693444,25.492 C10.3055164,25.497 9.9949708,25.821 10.0000617,26.216 C10.0051526,26.607 10.3187528,26.92 10.7026076,26.92 L10.7127894,26.92 C11.341008,26.911 12.3164268,27.178 12.7929361,27.619 L12.8122816,27.636 L12.8122816,30 L12.1097357,30 C10.9439168,30 10.0000617,30.959 10.0000617,32.143 C10.0000617,33.205 10.7647167,34.088 11.7635537,34.256 C11.5986081,34.697 11.5874081,35.178 11.7401355,35.636 C12.6116997,38.246 15.0197011,40 17.7341755,40 L38.2658245,40 C40.9802989,40 43.3893185,38.246 44.2608827,35.635 C44.4125919,35.178 44.4013919,34.697 44.2374645,34.257 C45.216956,34.093 45.9999383,33.226 45.9999383,32.143 M12.9049362,22.055 C13.6471912,15.997 18.7452307,11.429 24.7657435,11.429 L31.2342565,11.429 C37.2537511,11.429 42.3528088,15.997 43.0950638,22.056 C43.1459729,22.468 42.8293182,22.828 42.4373179,22.854 C42.4332452,22.855 42.4281543,22.855 42.4230634,22.855 C42.4118634,22.856 42.3996452,22.857 42.387427,22.857 L13.612573,22.857 C13.1981728,22.857 12.8519907,22.487 12.9049362,22.055 M39.055934,26.565 C37.5113513,25.134 35.4352773,25.134 33.8896763,26.565 C32.8806575,27.5 31.6272749,27.5 30.6182561,26.565 C29.0726552,25.134 26.9965812,25.134 25.4519984,26.565 C24.4429796,27.5 23.1895971,27.5 22.1805783,26.565 C20.6359955,25.134 18.5599215,25.134 17.0143205,26.566 C16.1590473,27.358 15.1347558,27.484 14.2183916,26.927 L14.2183916,24.286 L41.7805903,24.286 L41.7805903,26.968 C40.8845897,27.475 39.8867709,27.335 39.055934,26.565 M41.7805903,28.518 L41.7805903,30 L14.2183916,30 L14.2183916,28.496 C14.5991918,28.629 14.9891557,28.696 15.3791195,28.696 C16.2863201,28.696 17.1914843,28.336 17.9622484,27.621 C18.9712672,26.686 20.2246498,26.686 21.2336686,27.621 C22.7782513,29.053 24.8543253,29.053 26.3999263,27.621 C27.4089451,26.686 28.6623277,26.686 29.6703283,27.621 C31.2159292,29.053 33.2920032,29.053 34.8376042,27.621 C35.8456048,26.686 37.0989874,26.687 38.1090244,27.621 C39.184225,28.618 40.5343349,28.924 41.7805903,28.518 M42.9280819,35.177 C42.2509905,37.207 40.3775348,38.571 38.2658245,38.571 L17.7341755,38.571 C15.6234833,38.571 13.7490095,37.207 13.0719181,35.178 C12.9252999,34.74 13.2979546,34.286 13.7591913,34.286 L42.2408087,34.286 C42.7040817,34.286 43.073682,34.742 42.9280819,35.177 M43.8902643,32.857 L12.1097357,32.857 C11.7218082,32.857 11.4061717,32.537 11.4061717,32.143 C11.4061717,31.748 11.72079,31.429 12.1097357,31.429 L43.8902643,31.429 C44.2781918,31.429 44.5938283,31.749 44.5938283,32.143 C44.5938283,32.537 44.27921,32.857 43.8902643,32.857" id="Fill-4" fill="#FFFFFF"></path>
                </g>
            </g>
        </g>
    </g>
</svg>