<?xml version="1.0" encoding="UTF-8"?>
<svg width="93px" height="93px" viewBox="0 0 93 93" version="1.1" xmlns="http://www.w3.org/2000/svg" xmlns:xlink="http://www.w3.org/1999/xlink">
    <!-- Generator: sketchtool 54.1 (76490) - https://sketchapp.com -->
    <title>27CBFC98-75B4-4296-8362-3003F2AAD29D</title>
    <desc>Created with sketchtool.</desc>
    <g id="Page-5--APROBADO" stroke="none" stroke-width="1" fill="none" fill-rule="evenodd">
        <g id="iconos-cuponera" transform="translate(-907.000000, -251.000000)">
            <g id="Group-25" transform="translate(907.000000, 251.000000)">
                <circle id="Oval-4-Copy-41" fill="#DA272C" fill-rule="nonzero" cx="46.5" cy="46.5" r="46.5"></circle>
                <path d="M69.2440052,61.2653 L23.4243698,61.2653 L23.2959245,61.2653 C22.2032318,61.2653 21.2789167,60.4004563 21.2789167,59.3754562 C21.2789167,58.742775 21.6242135,58.150325 22.203125,57.7899094 L22.2131615,57.7859375 L22.2231979,57.7778656 L46.3317318,42.4940906 L70.4452839,57.7778656 L70.4553203,57.7859375 L70.46525,57.7899094 C71.0442682,58.1501969 71.3895651,58.7429031 71.3895651,59.3754562 C71.3894583,60.4004563 70.4651432,61.2653 69.3724505,61.2653 L69.2440052,61.2653 Z M47.4710833,40.124675 L47.4710833,38.20075 C47.4811198,38.1978031 47.4911563,38.1937031 47.5027943,38.1907562 C51.289849,37.0656906 53.832276,34.2348969 53.832276,30.5953781 C53.832276,26.4003094 50.9978307,23 47.5027943,23 C44.2746849,23 41.4685339,25.8347656 41.1916771,29.6334156 C41.183349,29.6914563 41.1783307,29.7515469 41.1783307,29.8116375 C41.1783307,29.8186844 41.1766224,29.8256031 41.1766224,29.833675 C41.1766224,30.5884594 41.6870938,31.2 42.3160807,31.2 C42.9450677,31.2 43.4555391,30.5884594 43.4555391,29.833675 L43.4621589,29.833675 C43.553875,28.6514656 44.0327422,27.8036625 44.453099,27.2751469 C45.2304974,26.2952469 46.343263,25.733675 47.5026875,25.733675 C49.7365469,25.733675 51.5532526,27.9147469 51.5532526,30.5953781 C51.5532526,31.6183281 51.198026,32.5563312 50.4939792,33.3831219 C49.6714167,34.3490562 48.4486771,35.0938469 46.955487,35.5371594 C46.955487,35.5371594 45.2254792,36.1777844 45.1954766,36.1908531 L45.1954766,36.666325 L45.1937682,40.124675 L21.1587995,55.3634781 C19.8692214,56.1602875 19,57.6578125 19,59.3754562 C19,61.9298844 20.9235833,64 23.2958177,64 L23.424263,64 L69.2440052,64 L69.3724505,64 C71.7447917,64 73.6666667,61.9298844 73.6666667,59.3754562 C73.6666667,57.6578125 72.7991536,56.1602875 71.5095755,55.3634781 L47.4710833,40.124675 Z" id="Fill-1" stroke="#FFFFFF" stroke-width="0.5" fill="#FFFFFF"></path>
            </g>
        </g>
    </g>
</svg>