<?xml version="1.0" encoding="UTF-8"?>
<svg width="93px" height="93px" viewBox="0 0 93 93" version="1.1" xmlns="http://www.w3.org/2000/svg" xmlns:xlink="http://www.w3.org/1999/xlink">
    <!-- Generator: sketchtool 54.1 (76490) - https://sketchapp.com -->
    <title>1C13D8B6-116D-45EB-862E-016173D19C0B</title>
    <desc>Created with sketchtool.</desc>
    <g id="Page-5-HOME-APROBADO" stroke="none" stroke-width="1" fill="none" fill-rule="evenodd">
        <g id="Home_cuponera_02" transform="translate(-201.000000, -502.000000)">
            <g id="Group-5" transform="translate(201.000000, 502.000000)">
                <circle id="Oval" fill="#FFFFFF" cx="46.5" cy="46.5" r="46.5"></circle>
                <g id="Group-3" transform="translate(18.000000, 21.041667)" fill="#DA272C">
                    <g id="Group-23">
                        <path d="M54.7225002,34.2710544 C54.7225002,32.4416552 53.2846729,30.9543011 51.5156346,30.9543011 L50.4477112,30.9543011 L50.4477112,27.391461 C50.4910472,27.3512204 50.535931,27.3140753 50.579267,27.2738347 C51.2726433,26.6191512 52.7228523,26.2012681 53.6669585,26.1873387 C54.2581857,26.1796001 54.7302388,25.6796882 54.7225002,25.0683407 C54.7147616,24.4631841 54.2380654,23.9772016 53.6545768,23.9772016 L53.6406474,23.9772016 C52.7228523,23.9895833 51.5048006,24.2418609 50.4477112,24.7587977 L50.4477112,21.8599274 C51.7493396,21.3089409 52.6145123,19.9237359 52.4287865,18.3853071 C51.1673987,7.90418078 42.5048376,-5.68434189e-14 32.2775365,-5.68434189e-14 L22.4449027,-5.68434189e-14 C12.2176017,-5.68434189e-14 3.55504051,7.90418078 2.29365274,18.3837594 C2.10947465,19.9190927 2.9684565,21.3073931 4.27472801,21.8599274 L4.27472801,24.7092708 C3.2145432,24.2124543 1.99184831,23.9632722 1.05393298,23.9772016 C0.464253547,23.9849402 -0.00779954415,24.4863999 -6.09688841e-05,25.0977473 C0.00767760638,25.7029039 0.484373843,26.1873387 1.06786242,26.1873387 L1.08333957,26.1873387 C2.03827976,26.1734093 3.52099078,26.5866492 4.24532142,27.2691915 L4.27472801,27.2955027 L4.27472801,30.9543011 L3.20680462,30.9543011 C1.43467089,30.9543011 -6.09688841e-05,32.4385598 -6.09688841e-05,34.2710544 C-6.09688841e-05,35.9147278 1.16227304,37.2813602 2.6805815,37.5413763 C2.42985167,38.2239187 2.4128268,38.9683696 2.64498406,39.6772231 C3.96982814,43.7167594 7.63017425,46.4314516 11.7563826,46.4314516 L42.9660566,46.4314516 C47.092265,46.4314516 50.7541588,43.7167594 52.0790029,39.6756754 C52.3096124,38.9683696 52.2925876,38.2239187 52.0434054,37.5429241 C53.5323073,37.2890988 54.7225002,35.9472298 54.7225002,34.2710544 M4.41557008,18.657705 C5.54385435,9.28164718 13.2932636,2.21168481 22.4449027,2.21168481 L32.2775365,2.21168481 C41.4276279,2.21168481 49.1785849,9.28164718 50.3068691,18.6592527 C50.3842549,19.2969113 49.9029155,19.8540887 49.3070452,19.8943293 C49.3008544,19.895877 49.2931158,19.895877 49.2853772,19.895877 C49.2683523,19.8974247 49.2497798,19.8989724 49.2312072,19.8989724 L5.49123204,19.8989724 C4.86131201,19.8989724 4.3350889,19.3263179 4.41557008,18.657705 M44.1670835,25.6378999 C41.8191998,23.4231196 38.6634088,23.4231196 36.3139773,25.6378999 C34.7801917,27.0850134 32.8749545,27.0850134 31.3411689,25.6378999 C28.9917374,23.4231196 25.8359464,23.4231196 23.4880627,25.6378999 C21.9542771,27.0850134 20.0490398,27.0850134 18.5152542,25.6378999 C16.1673705,23.4231196 13.0115795,23.4231196 10.662148,25.6394476 C9.36206739,26.8652379 7.80506605,27.06025 6.4121225,26.1981727 L6.4121225,22.1106573 L48.308769,22.1106573 L48.308769,26.261629 C46.9467798,27.0463206 45.430019,26.8296405 44.1670835,25.6378999 M48.308769,28.6605874 L48.308769,30.9543011 L6.4121225,30.9543011 L6.4121225,28.6265376 C6.99096793,28.8323837 7.58374279,28.9360806 8.17651766,28.9360806 C9.55553177,28.9360806 10.9314505,28.3789032 12.1030708,27.272287 C13.6368564,25.8251734 15.5420936,25.8251734 17.0758792,27.272287 C19.423763,29.4886149 22.579554,29.4886149 24.9289854,27.272287 C26.462771,25.8251734 28.3680083,25.8251734 29.9002462,27.272287 C32.2496776,29.4886149 35.4054686,29.4886149 37.7549001,27.272287 C39.287138,25.8251734 41.1923752,25.8267211 42.7277085,27.272287 C44.3620956,28.8153589 46.4143658,29.2889597 48.308769,28.6605874 M50.0530439,38.9668219 C49.0238134,42.1086835 46.1760177,44.2197668 42.9660566,44.2197668 L11.7563826,44.2197668 C8.54796927,44.2197668 5.69862586,42.1086835 4.66939535,38.9683696 C4.44652438,38.2904704 5.01298809,37.5878078 5.71410301,37.5878078 L49.0083362,37.5878078 C49.7125466,37.5878078 50.2743671,38.2935659 50.0530439,38.9668219 M51.5156346,35.376123 L3.20680462,35.376123 C2.61712519,35.376123 2.13733352,34.8808542 2.13733352,34.2710544 C2.13733352,33.659707 2.61557747,33.1659859 3.20680462,33.1659859 L51.5156346,33.1659859 C52.105314,33.1659859 52.5851057,33.6612547 52.5851057,34.2710544 C52.5851057,34.8808542 52.1068617,35.376123 51.5156346,35.376123" id="Fill-4"></path>
                    </g>
                </g>
            </g>
        </g>
    </g>
</svg>