<?xml version="1.0" encoding="UTF-8"?>
<svg width="96px" height="96px" viewBox="0 0 96 96" version="1.1" xmlns="http://www.w3.org/2000/svg" xmlns:xlink="http://www.w3.org/1999/xlink">
    <!-- Generator: sketchtool 54.1 (76490) - https://sketchapp.com -->
    <title>6CA13748-F3DD-4A9E-9DF6-3FA18580245D</title>
    <desc>Created with sketchtool.</desc>
    <g id="Page-2" stroke="none" stroke-width="1" fill="none" fill-rule="evenodd">
        <g id="iconos" transform="translate(-1462.000000, -598.000000)" fill="#FFFFFF">
            <g id="Group-6-Copy-3" transform="translate(1462.000000, 598.000000)">
                <g id="Group-3">
                    <path d="M48.0001548,3.09646452 C23.2398968,3.09646452 3.09692903,23.2409806 3.09692903,47.9996903 C3.09692903,72.7584 23.2398968,92.9029161 48.0001548,92.9029161 C72.7604129,92.9029161 92.9033806,72.7584 92.9033806,47.9996903 C92.9033806,23.2409806 72.7604129,3.09646452 48.0001548,3.09646452 M48.0001548,95.9996903 C21.5335742,95.9996903 0.00015483871,74.4678194 0.00015483871,47.9996903 C0.00015483871,21.5315613 21.5335742,-0.000309677419 48.0001548,-0.000309677419 C74.4667355,-0.000309677419 96.0001548,21.5315613 96.0001548,47.9996903 C96.0001548,74.4678194 74.4667355,95.9996903 48.0001548,95.9996903" id="Fill-1"></path>
                </g>
                <path d="M23.5972645,45.0267871 L23.5461677,44.4569806 L72.4535226,44.4569806 L72.4024258,45.0267871 C72.0602323,48.8064 70.5613935,52.3227871 68.0700387,55.1919484 L67.9616516,55.3173677 L67.8006194,55.3560774 C67.4754581,55.4381419 67.1533935,55.5341419 66.8375226,55.6456258 L66.3652645,55.8113032 L66.1794581,55.3467871 C65.6452645,54.0136258 64.8555871,52.8167226 63.8274581,51.7885935 L61.5792,49.5418839 C61.1766194,49.1377548 60.4736516,49.1377548 60.0695226,49.5418839 L57.8212645,51.7885935 C56.7946839,52.8167226 56.0034581,54.0136258 55.4692645,55.3467871 L55.2834581,55.8113032 L54.8112,55.6456258 C53.6715871,55.2445935 52.4855226,55.0417548 51.2855226,55.0417548 L48.1066839,55.0417548 C47.5182968,55.0417548 47.0398452,55.5202065 47.0398452,56.1085935 L47.0398452,59.2889806 C47.0398452,59.7937548 47.0754581,60.3031742 47.1482323,60.8033032 L47.2349419,61.4009806 L41.5337806,61.4009806 C32.3069419,61.4009806 24.4272,54.2087226 23.5972645,45.0267871 L23.5972645,45.0267871 Z M29.2752,34.434271 L32.4834581,31.2275613 L46.3260387,42.3233032 L34.4406194,42.3233032 L29.2752,34.434271 Z M27.1523613,33.5408516 C26.7544258,33.9387871 26.223329,34.1571097 25.6597161,34.1571097 C25.0945548,34.1571097 24.5634581,33.9372387 24.1655226,33.5393032 C23.3417806,32.7155613 23.3417806,31.3762065 24.1655226,30.5509161 L28.6620387,26.0544 C29.4610065,25.2554323 30.8514581,25.2554323 31.6504258,26.0544 C32.0483613,26.4538839 32.2682323,26.9849806 32.2682323,27.5485935 C32.2682323,28.1137548 32.0483613,28.6448516 31.6504258,29.0427871 L27.1523613,33.5408516 Z M72.4767484,57.1754323 L72.4767484,59.2889806 C72.4767484,63.8923355 68.7312,67.6920774 64.1278452,67.7586581 L62.8380387,67.7756903 L63.7500387,66.8652387 C65.8295226,64.7842065 66.9335226,62.122529 66.9335226,59.2889806 C66.9335226,58.962271 66.9180387,58.6371097 66.8886194,58.3150452 L66.8530065,57.9264 L67.215329,57.7808516 C68.2217806,57.3798194 69.2808774,57.1754323 70.3632,57.1754323 L72.4767484,57.1754323 Z M60.8235871,66.7723355 L59.3309419,65.2796903 C57.7299097,63.6786581 56.8488774,61.5511742 56.8488774,59.2889806 C56.8488774,58.7176258 56.9061677,58.146271 57.0176516,57.5934968 C57.3582968,55.9475613 58.1557161,54.4734968 59.3309419,53.298271 L60.8235871,51.8040774 L62.3177806,53.298271 C63.4945548,54.4734968 64.2904258,55.9475613 64.623329,57.5609806 C64.7425548,58.1493677 64.7998452,58.7191742 64.7998452,59.2889806 C64.7998452,61.5511742 63.9188129,63.6786581 62.3177806,65.2796903 L60.8235871,66.7723355 Z M57.5208774,67.7586581 C52.9175226,67.6920774 49.1719742,63.8923355 49.1719742,59.2889806 L49.1719742,57.1754323 L51.2855226,57.1754323 C52.3678452,57.1754323 53.4269419,57.3798194 54.4333935,57.7808516 L54.7957161,57.9264 L54.7601032,58.3150452 C54.7306839,58.6371097 54.7152,58.962271 54.7152,59.2889806 C54.7152,62.122529 55.8192,64.7842065 57.8212645,66.7878194 L58.8106839,67.7756903 L57.5208774,67.7586581 Z M39.4217806,67.7617548 L39.4217806,63.4324645 L39.9838452,63.4758194 C40.8308129,63.5408516 41.3262968,63.5346581 43.175071,63.5346581 C44.1722323,63.5315613 45.5580387,63.5269161 47.5926194,63.5346581 L47.9208774,63.5362065 L48.063329,63.8334968 C48.6021677,64.962271 49.3314581,65.9826581 50.231071,66.8652387 L51.1461677,67.7617548 L39.4217806,67.7617548 Z M38.3549419,69.8938839 L64.0039742,69.8938839 C69.8522323,69.8938839 74.6088774,65.1372387 74.6088774,59.2889806 L74.6088774,56.1085935 C74.6088774,55.5202065 74.1319742,55.0417548 73.5435871,55.0417548 L70.9268129,55.0417548 L71.4408774,54.2365935 C73.5141677,50.9989161 74.6088774,47.250271 74.6088774,43.3901419 C74.6088774,42.8017548 74.1319742,42.3233032 73.5435871,42.3233032 L49.7371355,42.3233032 L33.8862968,29.6172387 L34.0457806,29.250271 C34.7379097,27.6600774 34.3817806,25.7694968 33.1585548,24.546271 C31.5544258,22.9405935 28.7595871,22.9390452 27.1523613,24.546271 L22.6558452,29.0427871 C21.0006194,30.6980129 21.0006194,33.3922065 22.6558452,35.0489806 C23.8589419,36.2489806 25.655071,36.6190452 27.2406194,35.9857548 L27.6370065,35.8278194 L31.8904258,42.3233032 L22.4561032,42.3233032 C21.8677161,42.3233032 21.3908129,42.8017548 21.3908129,43.3901419 C21.3908129,52.7687226 27.7624258,60.8296258 36.887071,62.9927226 L37.2881032,63.0887226 L37.2881032,68.8270452 C37.2881032,69.4154323 37.7665548,69.8938839 38.3549419,69.8938839 L38.3549419,69.8938839 Z" id="Fill-4"></path>
            </g>
        </g>
    </g>
</svg>