<?xml version="1.0" encoding="UTF-8"?>
<svg width="55px" height="47px" viewBox="0 0 55 47" version="1.1" xmlns="http://www.w3.org/2000/svg" xmlns:xlink="http://www.w3.org/1999/xlink">
    <!-- Generator: sketchtool 52.4 (67378) - http://www.bohemiancoding.com/sketch -->
    <title>D1C5BB56-CB9A-417E-8226-B5E7A72E7C89</title>
    <desc>Created with sketchtool.</desc>
    <g id="Page-1" stroke="none" stroke-width="1" fill="none" fill-rule="evenodd">
        <g id="Home_cuponera" transform="translate(-182.000000, -1011.000000)" fill="#FFFFFF">
            <g id="Group-10" transform="translate(163.000000, 802.000000)">
                <path d="M73.722655,243.312721 C73.722655,241.483322 72.2848277,239.995968 70.5157894,239.995968 L69.447866,239.995968 L69.447866,236.433128 C69.491202,236.392887 69.5360857,236.355742 69.5794218,236.315501 C70.2727981,235.660818 71.7230071,235.242935 72.6671133,235.229005 C73.2583404,235.221267 73.7303935,234.721355 73.722655,234.110007 C73.7149164,233.504851 73.2382201,233.018868 72.6547316,233.018868 L72.6408021,233.018868 C71.7230071,233.03125 70.5049554,233.283528 69.447866,233.800464 L69.447866,230.901594 C70.7494943,230.350608 71.6146671,228.965403 71.4289412,227.426974 C70.1675535,216.945847 61.5049923,209.041667 51.2776912,209.041667 L41.4450575,209.041667 C31.2177564,209.041667 22.5551953,216.945847 21.2938075,227.425426 C21.1096294,228.960759 21.9686113,230.34906 23.2748828,230.901594 L23.2748828,233.750937 C22.214698,233.254121 20.9920031,233.004939 20.0540878,233.018868 C19.4644083,233.026607 18.9923552,233.528067 19.0000938,234.139414 C19.0078324,234.744571 19.4845286,235.229005 20.0680172,235.229005 L20.0834943,235.229005 C21.0384345,235.215076 22.5211455,235.628316 23.2454762,236.310858 L23.2748828,236.337169 L23.2748828,239.995968 L22.2069594,239.995968 C20.4348257,239.995968 19.0000938,241.480226 19.0000938,243.312721 C19.0000938,244.956394 20.1624278,246.323027 21.6807363,246.583043 C21.4300064,247.265585 21.4129816,248.010036 21.6451388,248.71889 C22.9699829,252.758426 26.630329,255.473118 30.7565374,255.473118 L61.9662114,255.473118 C66.0924197,255.473118 69.7543136,252.758426 71.0791576,248.717342 C71.3097672,248.010036 71.2927423,247.265585 71.0435602,246.584591 C72.5324621,246.330765 73.722655,244.988897 73.722655,243.312721 M23.4157249,227.699372 C24.5440091,218.323314 32.2934184,211.253351 41.4450575,211.253351 L51.2776912,211.253351 C60.4277826,211.253351 68.1787396,218.323314 69.3070239,227.700919 C69.3844097,228.338578 68.9030703,228.895755 68.3072,228.935996 C68.3010091,228.937544 68.2932705,228.937544 68.285532,228.937544 C68.2685071,228.939091 68.2499345,228.940639 68.2313619,228.940639 L24.4913868,228.940639 C23.8614668,228.940639 23.3352437,228.367985 23.4157249,227.699372 M63.1672383,234.679567 C60.8193546,232.464786 57.6635636,232.464786 55.3141321,234.679567 C53.7803465,236.12668 51.8751093,236.12668 50.3413236,234.679567 C47.9918922,232.464786 44.8361012,232.464786 42.4882175,234.679567 C40.9544318,236.12668 39.0491946,236.12668 37.515409,234.679567 C35.1675253,232.464786 32.0117343,232.464786 29.6623028,234.681114 C28.3622222,235.906905 26.8052208,236.101917 25.4122773,235.239839 L25.4122773,231.152324 L67.3089238,231.152324 L67.3089238,235.303296 C65.9469345,236.087987 64.4301738,235.871307 63.1672383,234.679567 M67.3089238,237.702254 L67.3089238,239.995968 L25.4122773,239.995968 L25.4122773,237.668204 C25.9911227,237.87405 26.5838976,237.977747 27.1766724,237.977747 C28.5556865,237.977747 29.9316052,237.42057 31.1032255,236.313954 C32.6370111,234.86684 34.5422484,234.86684 36.076034,236.313954 C38.4239177,238.530282 41.5797087,238.530282 43.9291402,236.313954 C45.4629258,234.86684 47.368163,234.86684 48.9004009,236.313954 C51.2498324,238.530282 54.4056234,238.530282 56.7550548,236.313954 C58.2872927,234.86684 60.19253,234.868388 61.7278633,236.313954 C63.3622504,237.857026 65.4145205,238.330626 67.3089238,237.702254 M69.0531986,248.008489 C68.0239681,251.15035 65.1761724,253.261433 61.9662114,253.261433 L30.7565374,253.261433 C27.548124,253.261433 24.6987806,251.15035 23.6695501,248.010036 C23.4466792,247.332137 24.0131429,246.629474 24.7142578,246.629474 L68.008491,246.629474 C68.7127013,246.629474 69.2745219,247.335233 69.0531986,248.008489 M70.5157894,244.41779 L22.2069594,244.41779 C21.61728,244.41779 21.1374883,243.922521 21.1374883,243.312721 C21.1374883,242.701374 21.6157322,242.207653 22.2069594,242.207653 L70.5157894,242.207653 C71.1054688,242.207653 71.5852605,242.702921 71.5852605,243.312721 C71.5852605,243.922521 71.1070165,244.41779 70.5157894,244.41779" id="Fill-4"></path>
            </g>
        </g>
    </g>
</svg>