<?xml version="1.0" encoding="UTF-8"?>
<svg width="61px" height="60px" viewBox="0 0 61 60" version="1.1" xmlns="http://www.w3.org/2000/svg" xmlns:xlink="http://www.w3.org/1999/xlink">
    <!-- Generator: sketchtool 54.1 (76490) - https://sketchapp.com -->
    <title>B1BA9DC0-9499-4EEA-93E9-8C12FBD5015D</title>
    <desc>Created with sketchtool.</desc>
    <g id="Page-5-HOME-APROBADO" stroke="none" stroke-width="1" fill="none" fill-rule="evenodd">
        <g id="Home_cuponera_02" transform="translate(-926.000000, -153.000000)" fill="#FFFFFF">
            <g id="Group-11" transform="translate(456.000000, 153.000000)">
                <g id="Group-21">
                    <g id="Group-31">
                        <g id="Group-7-Copy" transform="translate(470.000000, 0.000000)">
                            <polygon id="Fill-1" points="13.5467532 18.5376623 19.9636364 18.5376623 19.9636364 3.19744231e-14 13.5467532 3.19744231e-14"></polygon>
                            <polygon id="Fill-2" points="42.0662338 45.6311688 60.6038961 45.6311688 60.6038961 39.2142857 42.0662338 39.2142857"></polygon>
                            <polygon id="Fill-3" points="54.187013 11.1301944 37.5105704 27.8064935 32.7974026 23.0931823 49.4736612 6.41688312"></polygon>
                            <g id="Group-6" transform="translate(0.000000, 24.241558)">
                                <path d="M35.3710606,15.2934661 C35.2719929,14.587254 35.1290202,13.8952598 34.9453323,13.2210377 C33.8931135,9.30572333 31.5288111,5.92806547 28.353955,3.58231904 C25.3978733,1.39371648 21.7363097,0.100272756 17.771539,0.100272756 C13.8681228,0.100272756 10.253091,1.35873326 7.32027519,3.48653611 C4.08425229,5.84088804 1.67341805,9.25633525 0.606376692,13.2210377 C0.422688722,13.8952598 0.279903691,14.587254 0.183650444,15.2934661 C0.0613168831,16.1160394 -3.7525632e-05,16.9648034 -3.7525632e-05,17.8223599 C-3.7525632e-05,23.7171259 2.88324443,28.9344895 7.32027519,32.1581837 C10.253091,34.2887927 13.8681228,35.5444471 17.771539,35.5444471 C21.7363097,35.5444471 25.3978733,34.2510034 28.353955,32.0680131 C32.7210004,28.8357133 35.5517465,23.6589452 35.5517465,17.8223599 C35.5517465,16.9648034 35.4905797,16.1160394 35.3710606,15.2934661 M7.43397785,15.2934661 C7.36117813,14.9591612 7.32027519,14.6132576 7.32027519,14.2557553 C7.32027519,13.898253 7.36117813,13.5551555 7.43397785,13.2210377 C7.90923999,11.1252249 9.79246384,9.56145627 12.0372472,9.56145627 C14.2820305,9.56145627 16.1624399,11.1252249 16.6345124,13.2210377 L13.6318989,13.2210377 C13.2936053,12.7007793 12.7048282,12.3548757 12.0342451,12.3548757 C11.3638497,12.3548757 10.7748849,12.7007793 10.4309625,13.2210377 C10.2356416,13.5203594 10.1247533,13.8750555 10.1247533,14.2557553 C10.1247533,14.6366421 10.2356416,14.9911512 10.4309625,15.2934661 C10.7748849,15.8137245 11.3638497,16.156822 12.0342451,16.156822 C12.7048282,16.156822 13.2936053,15.8137245 13.6318989,15.2934661 L16.6345124,15.2934661 C16.1624399,17.3864728 14.2820305,18.9530475 12.0372472,18.9530475 C9.79246384,18.9530475 7.90923999,17.3864728 7.43397785,15.2934661 M17.7745411,28.446221 C14.418999,28.446221 11.6087044,26.1268523 10.8595052,23.0079206 L24.689577,23.0079206 C23.9431921,26.1268523 21.1328975,28.446221 17.7745411,28.446221 M22.0365148,15.2934661 C22.3776228,15.8137245 22.9665876,16.156822 23.636983,16.156822 C24.307566,16.156822 24.8965308,15.8137245 25.2346368,15.2934661 L28.2402523,15.2934661 C27.7651778,17.3864728 25.8847684,18.9530475 23.639985,18.9530475 C21.3952017,18.9530475 19.5119779,17.3864728 19.0397178,15.2934661 C18.963916,14.9591612 18.9230131,14.6132576 18.9230131,14.2557553 C18.9230131,13.898253 18.963916,13.5551555 19.0397178,13.2210377 C19.5119779,11.1252249 21.3952017,9.56145627 23.639985,9.56145627 C25.8847684,9.56145627 27.7651778,11.1252249 28.2402523,13.2210377 L25.2346368,13.2210377 C24.8965308,12.7007793 24.307566,12.3548757 23.636983,12.3548757 C22.9665876,12.3548757 22.3776228,12.7007793 22.0365148,13.2210377 C21.8383794,13.5203594 21.7274912,13.8750555 21.7274912,14.2557553 C21.7274912,14.6366421 21.8383794,14.9911512 22.0365148,15.2934661" id="Fill-4"></path>
                            </g>
                        </g>
                    </g>
                </g>
            </g>
        </g>
    </g>
</svg>