<?xml version="1.0" encoding="UTF-8"?>
<svg width="93px" height="93px" viewBox="0 0 93 93" version="1.1" xmlns="http://www.w3.org/2000/svg" xmlns:xlink="http://www.w3.org/1999/xlink">
    <!-- Generator: sketchtool 54.1 (76490) - https://sketchapp.com -->
    <title>56F916F6-4BCA-45E8-9126-0D96C2856CA7</title>
    <desc>Created with sketchtool.</desc>
    <g id="Page-5-HOME-APROBADO" stroke="none" stroke-width="1" fill="none" fill-rule="evenodd">
        <g id="Home_cuponera_02" transform="translate(-579.000000, -502.000000)">
            <g id="Group-14" transform="translate(579.000000, 502.000000)">
                <circle id="Oval-Copy-5" fill="#FFFFFF" cx="46.5" cy="46.5" r="46.5"></circle>
                <g id="Group-3" transform="translate(23.000000, 21.000000)" fill="#DA272C">
                    <g id="Group-25">
                        <path d="M42.350127,10.8819845 L36.8139503,10.8819845 C37.6713844,9.74441398 38.1790349,8.33135013 38.1790349,6.80065995 C38.1790349,3.05054637 35.1269409,-5.68434189e-14 31.3768273,-5.68434189e-14 C29.118711,-5.68434189e-14 27.4518219,0.809454973 26.1347164,2.54753898 C25.0327433,4.00084341 24.2263837,6.03144556 23.2157258,8.59446169 C22.2035202,6.02989785 21.3987083,4.00084341 20.2951875,2.54753898 C18.978082,0.809454973 17.3127406,-5.68434189e-14 15.0530766,-5.68434189e-14 C11.302963,-5.68434189e-14 8.25241667,3.05054637 8.25241667,6.80065995 C8.25241667,8.33135013 8.7600672,9.74441398 9.61595363,10.8819845 L4.07977688,10.8819845 C1.82939919,10.8819845 0,12.7129315 0,14.9633091 L0,17.6841922 C0,19.4578737 1.13757056,20.9684435 2.72088306,21.5302641 L2.72088306,42.350127 C2.72088306,44.6005047 4.55028226,46.4314516 6.80065995,46.4314516 L39.629244,46.4314516 C41.8796216,46.4314516 43.7105685,44.6005047 43.7105685,42.350127 L43.7105685,21.5302641 C45.293881,20.9684435 46.4314516,19.4578737 46.4314516,17.6841922 L46.4314516,14.9633091 C46.4314516,12.7129315 44.6005047,10.8819845 42.350127,10.8819845 L42.350127,10.8819845 Z M25.7121902,9.67940995 C27.7969624,4.39241532 28.5878448,2.72088306 31.3768273,2.72088306 C33.627205,2.72088306 35.4581519,4.55182997 35.4581519,6.80065995 C35.4581519,9.05103763 33.627205,10.8819845 31.3768273,10.8819845 L25.235494,10.8819845 C25.4026472,10.4625538 25.5620618,10.0601478 25.7121902,9.67940995 L25.7121902,9.67940995 Z M15.0530766,2.72088306 C17.8420591,2.72088306 18.6344892,4.39241532 20.7177137,9.67940995 C20.8693898,10.0601478 21.0272567,10.4625538 21.1944099,10.8819845 L15.0530766,10.8819845 C12.8026989,10.8819845 10.9732997,9.05103763 10.9732997,6.80065995 C10.9732997,4.55182997 12.8026989,2.72088306 15.0530766,2.72088306 L15.0530766,2.72088306 Z M17.7739597,43.7105685 L6.80065995,43.7105685 C6.05001815,43.7105685 5.44021841,43.1007688 5.44021841,42.350127 L5.44021841,21.7639691 L17.7739597,21.7639691 L17.7739597,43.7105685 Z M17.7739597,19.043086 L4.07977688,19.043086 C3.3306828,19.043086 2.72088306,18.4332863 2.72088306,17.6841922 L2.72088306,14.9633091 C2.72088306,14.2126673 3.3306828,13.6028676 4.07977688,13.6028676 L17.7739597,13.6028676 L17.7739597,19.043086 Z M20.4948427,43.7105685 L25.9366089,43.7105685 L25.9366089,13.6028676 L20.4948427,13.6028676 L20.4948427,43.7105685 Z M40.9896855,42.350127 C40.9896855,43.1007688 40.3798858,43.7105685 39.629244,43.7105685 L28.6559442,43.7105685 L28.6559442,21.7639691 L40.9896855,21.7639691 L40.9896855,42.350127 Z M43.7105685,17.6841922 C43.7105685,18.4332863 43.1007688,19.043086 42.350127,19.043086 L28.6559442,19.043086 L28.6559442,13.6028676 L42.350127,13.6028676 C43.1007688,13.6028676 43.7105685,14.2126673 43.7105685,14.9633091 L43.7105685,17.6841922 Z" id="Fill-4"></path>
                    </g>
                </g>
            </g>
        </g>
    </g>
</svg>