<?xml version="1.0" encoding="UTF-8"?>
<svg width="96px" height="96px" viewBox="0 0 96 96" version="1.1" xmlns="http://www.w3.org/2000/svg" xmlns:xlink="http://www.w3.org/1999/xlink">
    <!-- Generator: sketchtool 54.1 (76490) - https://sketchapp.com -->
    <title>94F97915-B0A7-487F-BB39-E650D10BD281</title>
    <desc>Created with sketchtool.</desc>
    <defs>
        <polygon id="path-1" points="0 0 95.9996903 0 95.9996903 95.9996903 0 95.9996903"></polygon>
    </defs>
    <g id="Page-2" stroke="none" stroke-width="1" fill="none" fill-rule="evenodd">
        <g id="iconos" transform="translate(-1852.000000, -409.000000)">
            <g id="Group-10" transform="translate(1852.000000, 409.000000)">
                <g id="Group-3">
                    <mask id="mask-2" fill="white">
                        <use xlink:href="#path-1"></use>
                    </mask>
                    <g id="Clip-2"></g>
                    <path d="M47.9996903,3.09646452 C23.2394323,3.09646452 3.09646452,23.2409806 3.09646452,47.9996903 C3.09646452,72.7584 23.2394323,92.9029161 47.9996903,92.9029161 C72.7599484,92.9029161 92.9029161,72.7584 92.9029161,47.9996903 C92.9029161,23.2409806 72.7599484,3.09646452 47.9996903,3.09646452 M47.9996903,95.9996903 C21.5331097,95.9996903 -0.000309677419,74.4678194 -0.000309677419,47.9996903 C-0.000309677419,21.5315613 21.5331097,-0.000309677419 47.9996903,-0.000309677419 C74.466271,-0.000309677419 95.9996903,21.5315613 95.9996903,47.9996903 C95.9996903,74.4678194 74.466271,95.9996903 47.9996903,95.9996903" id="Fill-1" fill="#E5336A" mask="url(#mask-2)"></path>
                </g>
                <path d="M54.5410065,65.9572645 L54.7175226,65.9572645 C55.3337806,65.9572645 55.8339097,65.4555871 55.8339097,64.8408774 L55.8339097,39.0757161 C55.8339097,38.4594581 55.3337806,37.9577806 54.7175226,37.9577806 L54.5410065,37.9577806 C53.9262968,37.9577806 53.4246194,38.4594581 53.4246194,39.0757161 L53.4246194,64.8408774 C53.4246194,65.4555871 53.9262968,65.9572645 54.5410065,65.9572645" id="Fill-4" fill="#E5336A"></path>
                <path d="M47.1400258,65.9572645 L47.3165419,65.9572645 C47.9328,65.9572645 48.432929,65.4555871 48.432929,64.8408774 L48.432929,39.0757161 C48.432929,38.4594581 47.9328,37.9577806 47.3165419,37.9577806 L47.1400258,37.9577806 C46.5253161,37.9577806 46.0236387,38.4594581 46.0236387,39.0757161 L46.0236387,64.8408774 C46.0236387,65.4555871 46.5253161,65.9572645 47.1400258,65.9572645" id="Fill-6" fill="#E5336A"></path>
                <path d="M55.4701935,75.5591226 L57.4691613,75.5591226 L57.4691613,76.5578323 C57.4691613,76.8721548 57.4165161,77.2654452 57.1687742,77.3521548 L57.1099355,77.3831226 C56.8792258,77.5580903 56.6423226,77.5580903 56.4704516,77.5580903 C56.2970323,77.5580903 56.060129,77.5580903 55.8294194,77.3831226 L55.7705806,77.3521548 C55.5228387,77.2654452 55.4701935,76.8721548 55.4701935,76.5578323 L55.4701935,75.5591226 Z M36.6696774,31.6004129 L34.1256774,32.8716387 C33.7649032,33.0528 33.5388387,33.4182194 33.5388387,33.8223484 L33.5388387,42.9191226 C33.5388387,43.5044129 34.0172903,43.9813161 34.6025806,43.9813161 L37.5894194,43.9813161 L37.5894194,64.752929 C37.5894194,65.4171871 38.1298065,65.9575742 38.8343226,65.9575742 C39.4985806,65.9575742 40.0389677,65.4171871 40.0389677,64.752929 L40.0389677,43.9813161 L40.8627097,43.9813161 C41.4495484,43.9813161 41.9264516,43.5044129 41.9264516,42.9191226 L41.9264516,33.8223484 C41.9264516,33.416671 41.7003871,33.0528 41.3396129,32.8716387 L38.7956129,31.6004129 L38.7956129,30.0922839 L58.1334194,30.0922839 C59.5734194,30.0922839 60.7223226,30.5397677 61.6436129,31.4610581 C62.4503226,32.2677677 63.0139355,33.6349935 63.0139355,34.7869935 L63.0139355,68.2398968 C63.0139355,69.4352516 62.5587097,70.608929 61.6621935,71.7299613 L61.5847742,71.8275097 L61.3819355,71.8275097 L61.3215484,71.8832516 C60.4652903,72.6713806 59.3024516,73.1219613 58.1334194,73.1219613 L36.1385806,73.1219613 C34.8952258,73.1219613 33.6843871,72.6233806 32.8126452,71.7531871 C31.7814194,70.7204129 31.2580645,69.5389935 31.2580645,68.2398968 L31.2580645,34.7869935 C31.2580645,33.5637677 31.875871,32.2321548 32.8250323,31.4440258 C33.5636129,30.5475097 34.6784516,30.0922839 36.1385806,30.0922839 L36.6696774,30.0922839 L36.6696774,31.6004129 Z M35.6647742,41.8553806 L35.6647742,34.4788645 L37.731871,33.4445419 L39.8005161,34.4788645 L39.8005161,41.8553806 L35.6647742,41.8553806 Z M40.8689032,18.6605419 C40.8689032,18.1217032 41.0314839,17.6509935 41.3148387,17.3676387 L41.3148387,17.3676387 C41.7329032,16.9480258 42.168,16.7374452 42.6077419,16.7374452 L51.6642581,16.7374452 C52.92,16.7374452 53.5873548,17.8538323 53.5873548,18.6605419 L53.5873548,18.8138323 L40.8689032,18.8138323 L40.8689032,18.6605419 Z M40.8689032,27.4693161 L53.5873548,27.4693161 L53.5873548,21.4120258 L40.8689032,21.4120258 L40.8689032,27.4693161 Z M38.8018065,75.5591226 L38.8018065,76.5578323 C38.8018065,76.8721548 38.7491613,77.2654452 38.5014194,77.3521548 L38.4425806,77.3831226 C38.211871,77.5580903 37.9749677,77.5580903 37.8015484,77.5580903 C37.6002581,77.5580903 37.3246452,77.5580903 37.0629677,77.2979613 L37.0335484,77.2669935 L37.0149677,77.2282839 C36.9127742,77.0238968 36.8028387,76.7405419 36.8028387,76.5578323 L36.8028387,75.5591226 L38.8018065,75.5591226 Z M63.308129,29.6122839 C61.9285161,28.2311226 60.0905806,27.4693161 58.1334194,27.4693161 L56.0245161,27.4693161 L56.0245161,18.6605419 C56.0245161,17.4187355 54.7269677,14.3002839 51.6642581,14.3002839 L42.6077419,14.3002839 C41.5021935,14.3002839 40.4229677,14.7431226 39.6503226,15.5173161 C38.7197419,16.4494452 38.2459355,17.5054452 38.2459355,18.6605419 L38.2459355,27.4693161 L36.1385806,27.4693161 C33.8965161,27.4693161 32.0926452,28.6290581 30.9530323,29.6231226 C29.9806452,30.7410581 28.8209032,32.544929 28.8209032,34.7869935 L28.8209032,68.2398968 C28.8209032,70.1118968 29.6415484,72.0953806 30.9623226,73.4161548 C31.9378065,74.3900903 33.0185806,75.0528 34.1767742,75.3841548 L34.3656774,75.4383484 L34.3656774,76.5578323 C34.3656774,77.6045419 34.7032258,78.4515097 35.3984516,79.1451871 C36.0642581,79.8125419 36.9189677,80.1795097 37.8015484,80.1795097 C38.8482581,80.1795097 39.6952258,79.8419613 40.3904516,79.1451871 C41.0856774,78.4515097 41.4232258,77.6045419 41.4232258,76.5578323 L41.4232258,75.5591226 L52.8487742,75.5591226 L52.8487742,76.5578323 C52.8487742,77.4667355 53.2575484,78.3384774 54.0549677,79.1358968 L54.0890323,79.1730581 C54.7130323,80.0045419 55.7287742,80.1795097 56.4704516,80.1795097 C57.5032258,80.1795097 58.3424516,79.8497032 59.0547097,79.1467355 C59.5362581,78.4995097 60.0905806,77.6200258 60.0905806,76.5578323 L60.0905806,75.4460903 L60.2686452,75.3872516 C61.1341935,75.0992516 62.1034839,74.5387355 63.1501935,73.7227355 L63.2338065,73.6592516 L63.2338065,73.4827355 L63.3220645,73.4037677 C64.6552258,72.2378323 65.4510968,70.3069935 65.4510968,68.2398968 L65.4510968,34.7869935 C65.4510968,32.8019613 64.7094194,31.0120258 63.308129,29.6122839 L63.308129,29.6122839 Z" id="Fill-8" fill="#E5336A"></path>
            </g>
        </g>
    </g>
</svg>