<?xml version="1.0" encoding="UTF-8"?>
<svg width="96px" height="96px" viewBox="0 0 96 96" version="1.1" xmlns="http://www.w3.org/2000/svg" xmlns:xlink="http://www.w3.org/1999/xlink">
    <!-- Generator: sketchtool 54.1 (76490) - https://sketchapp.com -->
    <title>6240CC59-E384-4B62-9B2A-A7A578F5F451</title>
    <desc>Created with sketchtool.</desc>
    <defs>
        <polygon id="path-1" points="0.0001187004 0 95.9992624 0 95.9992624 95.9996812 0.0001187004 95.9996812"></polygon>
    </defs>
    <g id="Page-2" stroke="none" stroke-width="1" fill="none" fill-rule="evenodd">
        <g id="iconos" transform="translate(-1655.000000, -409.000000)">
            <g id="Group-8" transform="translate(1655.000000, 409.000000)">
                <g id="Group-3" transform="translate(0.000000, 0.000155)">
                    <mask id="mask-2" fill="white">
                        <use xlink:href="#path-1"></use>
                    </mask>
                    <g id="Clip-2"></g>
                    <path d="M48.7344,3.10234839 C23.9772387,2.69821935 3.50756129,22.5098323 3.10343226,47.2654452 C2.69775484,72.0210581 22.5093677,92.4922839 47.266529,92.8979613 C72.0221419,93.3020903 92.4918194,73.488929 92.8974968,48.7333161 C93.3016258,23.9777032 73.4900129,3.50802581 48.7344,3.10234839 M47.2154323,95.9931871 C20.7519484,95.5611871 -0.426890323,73.6793806 0.00665806452,47.2158968 C0.440206452,20.7508645 22.3204645,-0.426425806 48.7854968,0.00557419355 C75.2489806,0.439122581 96.426271,22.320929 95.9927226,48.7844129 C95.5607226,75.2494452 73.6789161,96.4251871 47.2154323,95.9931871" id="Fill-1" fill="#1D87FA" mask="url(#mask-2)"></path>
                </g>
                <path d="M74.5436903,38.9249032 C74.0296258,37.2495484 72.634529,36.0356129 70.9034323,35.7553548 L58.2531097,33.7083871 L52.7671742,22.128 C52.0177548,20.544 50.4631742,19.5421935 48.7104,19.5143226 C46.9591742,19.4849032 45.3720774,20.4356129 44.5700129,21.9948387 L38.7140129,33.3956129 L26.0048516,35.0338065 C24.2660129,35.2567742 22.8337548,36.4258065 22.2654968,38.084129 C21.6972387,39.7424516 22.1106581,41.5447742 23.346271,42.788129 L32.3780129,51.8802581 L30.0089806,64.4732903 C29.6853677,66.1966452 30.3527226,67.9215484 31.7555613,68.9744516 C33.1320774,70.0103226 35.0226581,70.1775484 36.5633032,69.4002581 L47.9996903,63.620129 L59.2471742,69.764129 C60.786271,70.6049032 62.6334968,70.4996129 64.0657548,69.4931613 C65.4995613,68.4851613 66.2242065,66.7850323 65.9563355,65.0539355 L65.0567226,59.2474839 C64.9947871,58.8541935 64.7842065,58.5073548 64.4636903,58.2735484 C64.1431742,58.0366452 63.7514323,57.9406452 63.3534968,58.004129 C62.5421419,58.1295484 61.9831742,58.8929032 62.1085935,59.7058065 L63.0082065,65.5091613 C63.1026581,66.1192258 62.8564645,66.6967742 62.3516903,67.0529032 C61.8453677,67.4090323 61.2213677,67.4430968 60.6763355,67.1458065 L48.7429161,60.6255484 C48.3124645,60.3901935 47.7937548,60.3824516 47.3540129,60.6023226 L35.2177548,66.7354839 C34.4017548,67.1504516 33.7313032,66.7277419 33.5454968,66.5883871 C33.0531097,66.2183226 32.8254968,65.6345806 32.9400774,65.0260645 L35.4546581,51.6619355 C35.5460129,51.1788387 35.3927226,50.6833548 35.0474323,50.3349677 L25.4629161,40.6854194 C25.026271,40.2472258 24.8869161,39.6356129 25.0866581,39.051871 C25.2864,38.4665806 25.7725935,38.0701935 26.3857548,37.9912258 L39.8737548,36.2523871 C40.3599484,36.1904516 40.7842065,35.8931613 41.010271,35.4549677 L47.2239484,23.3589677 C47.5073032,22.8092903 48.0430452,22.4856774 48.6624,22.4965161 C49.2802065,22.5058065 49.8066581,22.8464516 50.0714323,23.4054194 L55.8933677,35.6934194 C56.1039484,36.1378065 56.5173677,36.4490323 57.0020129,36.528 L70.4280774,38.6988387 C71.3338839,38.8459355 71.6249806,39.579871 71.6931097,39.8012903 C71.874271,40.3927742 71.7132387,40.9981935 71.2642065,41.4224516 L66.9829161,45.4637419 C66.6933677,45.7362581 66.5276903,46.1063226 66.5153032,46.5058065 C66.5044645,46.9037419 66.6484645,47.2815484 66.9209806,47.5710968 C67.4861419,48.171871 68.4322065,48.1997419 69.0314323,47.6330323 L73.3127226,43.5932903 C74.5854968,42.3886452 75.0593032,40.6018065 74.5436903,38.9249032" id="Fill-4" fill="#1D87FA"></path>
                <path d="M66.8115097,52.8958452 C66.7944774,53.8930065 65.9738323,54.687329 64.976671,54.6718452 C63.9795097,54.6548129 63.1851871,53.8341677 63.200671,52.8370065 C63.2177032,51.8398452 64.0383484,51.0455226 65.0355097,51.0610065 C66.032671,51.0780387 66.8285419,51.8986839 66.8115097,52.8958452" id="Fill-6" fill="#1D87FA"></path>
            </g>
        </g>
    </g>
</svg>