<?xml version="1.0" encoding="UTF-8"?>
<svg width="93px" height="93px" viewBox="0 0 93 93" version="1.1" xmlns="http://www.w3.org/2000/svg" xmlns:xlink="http://www.w3.org/1999/xlink">
    <!-- Generator: sketchtool 54.1 (76490) - https://sketchapp.com -->
    <title>373F7ABD-8A3D-4EBA-8C74-1A09D02F83F3</title>
    <desc>Created with sketchtool.</desc>
    <g id="Page-5--APROBADO" stroke="none" stroke-width="1" fill="none" fill-rule="evenodd">
        <g id="iconos-cuponera" transform="translate(-390.000000, -251.000000)">
            <g id="Group-10" transform="translate(390.000000, 251.000000)">
                <g id="Group-8-Copy" fill="#DA272C">
                    <circle id="Oval-Copy-4" cx="46.5" cy="46.5" r="46.5"></circle>
                </g>
                <g id="Group" transform="translate(25.000000, 25.000000)" fill="#FFFFFF" fill-rule="nonzero" stroke="#FFFFFF" stroke-width="0.05">
                    <path d="M38.7946387,35.2972009 L4.78192313,1.7611049 C4.55452917,1.53689831 4.24075014,1.41905824 3.92053673,1.43471625 C3.599365,1.45118417 3.30037137,1.60101518 3.09775665,1.84695402 C3.03450799,1.92375929 1.54706946,3.76398114 1.43973841,6.88937516 C1.30187826,10.908221 3.39004208,15.0741982 7.64686802,19.2713564 L16.1666805,27.6717471 C16.9011589,28.3959303 17.8778166,28.7948048 18.9169016,28.7948048 C19.9557128,28.7948048 20.9323706,28.3959303 21.666849,27.6717471 C21.725306,27.6141094 21.7918403,27.6020959 21.8375656,27.6020959 C21.8831539,27.6020959 21.9496882,27.6142444 22.0081453,27.6717471 L23.385104,29.0294051 C23.4378112,29.0813735 23.4160438,29.2152765 23.3668961,29.3205632 C22.6948449,30.7696046 23.0110882,32.5006253 24.1542186,33.6275975 L32.3210981,41.6801372 C33.2135612,42.5600907 34.3857148,43 35.5578684,43 C36.7301588,43 37.9023124,42.5600907 38.7946387,41.6801372 C40.5795649,39.9203652 40.5795649,37.056973 38.7946387,35.2972009 Z M37.1891907,40.0969228 C36.2898825,40.9836255 34.8265387,40.9836255 33.9270936,40.0969228 L25.7602141,32.0443831 C25.2843433,31.5751825 25.1525068,30.8550487 25.4323342,30.2519452 C25.8905446,29.2637354 25.7173638,28.1625449 24.9908257,27.4463256 L23.613867,26.0886676 C23.1393652,25.6208169 22.5083846,25.3631346 21.8374287,25.3631346 C21.1663358,25.3631346 20.5354921,25.6209519 20.0609903,26.0886676 C19.7552885,26.3900844 19.3489638,26.5559784 18.9167647,26.5559784 C18.4845656,26.5559784 18.078104,26.3899495 17.7724022,26.0886676 L9.25258975,17.688277 C2.65967074,11.1877706 3.38237558,6.45108569 4.23554787,4.38895196 L37.1891907,36.8805503 C38.0886358,37.767388 38.0886358,39.2102202 37.1891907,40.0969228 Z" id="Shape-Copy"></path>
                    <path d="M39.7828324,3.217262 C39.3153534,2.74980156 38.5573419,2.74980156 38.0901516,3.217262 L30.4507174,10.856394 C29.9830942,11.3238544 29.9830942,12.081836 30.4507174,12.5492964 C30.6843847,12.7829545 30.9907934,12.9 31.2970578,12.9 C31.6033222,12.9 31.9097309,12.7832431 32.1433982,12.5492964 L39.7828324,4.9100201 C40.250167,4.44255966 40.250167,3.68457811 39.7828324,3.217262 Z" id="Shape-Copy-2"></path>
                    <path d="M35.5178955,0.321793995 C35.0972901,-0.107264665 34.4152834,-0.107264665 33.9949377,0.321793995 L26.9886565,7.46888599 C25.914483,8.56451556 25.2805232,9.95660493 25.2493577,11.2882896 L25.2013107,13.332776 L23.2487874,15.3245407 C22.828182,15.7535994 22.828182,16.4493129 23.2487874,16.8781067 C23.4590252,17.0927022 23.7345808,17.2 24.0102663,17.2 C24.2858219,17.2 24.5615074,17.0927022 24.7717452,16.8781067 L27.0290419,14.5754433 C27.2246059,14.3759489 27.3374512,14.1071746 27.3442038,13.8250211 L27.4026392,11.3408788 C27.4205594,10.5793295 27.8350616,9.71260183 28.5116143,9.02231943 L35.5177656,1.8753599 C35.9385009,1.44630124 35.9385009,0.750587723 35.5178955,0.321793995 Z" id="Shape-Copy-3"></path>
                    <path d="M16.8679837,30.7671689 C16.4254776,30.316282 15.7078742,30.316282 15.2652315,30.7671689 L6.19740901,40.0038779 C5.7624192,40.4469693 5.18420937,40.6908576 4.56923792,40.6908576 C3.95426646,40.6908576 3.37591997,40.4468301 2.94106682,40.0038779 C2.50607701,39.5607865 2.26664813,38.9718076 2.26664813,38.3453824 C2.26664813,37.718818 2.50621367,37.1298392 2.94106682,36.686887 L11.6941605,27.7707684 C12.1368033,27.3198815 12.1368033,26.5887737 11.6941605,26.1381652 C11.2515178,25.6872783 10.5337777,25.6872783 10.0914083,26.1381652 L1.33831455,35.0542837 C0.475304605,35.9333671 1.82964754e-13,37.1022765 1.82964754e-13,38.3455216 C1.82964754e-13,39.588906 0.475441266,40.7576762 1.33831455,41.6367596 C2.20118783,42.5158429 3.34886123,43 4.56937458,43 C5.78988793,43 6.937288,42.5157037 7.80043461,41.6367596 L16.8682571,32.4000506 C17.3106265,31.9488852 17.3106265,31.2177774 16.8679837,30.7671689 Z" id="Shape-Copy-4"></path>
                    <path d="M42.6812506,7.48611828 C42.2562515,7.06018279 41.5671204,7.06018279 41.1423837,7.48611828 L34.063176,14.5809227 C33.390709,15.2548712 32.5286392,15.6468792 31.7438538,15.638463 L29.1857237,15.5995384 C28.8942995,15.5954618 28.6077301,15.7102632 28.3997574,15.9188256 L26.1187494,18.2048591 C25.6937502,18.6307946 25.6937502,19.3214439 26.1187494,19.7471164 C26.3311833,19.9600184 26.6097487,20.0666667 26.8881828,20.0666667 C27.166617,20.0666667 27.4451823,19.9602814 27.6576163,19.7471164 L29.6129535,17.7874713 L31.7107881,17.8192948 C33.0890502,17.8404666 34.5057577,17.222012 35.602043,16.12318 L42.6812506,9.02837558 C43.1062498,8.6024401 43.1062498,7.91192227 42.6812506,7.48611828 Z" id="Shape-Copy-5"></path>
                </g>
            </g>
        </g>
    </g>
</svg>