<?xml version="1.0" encoding="UTF-8"?>
<svg width="96px" height="96px" viewBox="0 0 96 96" version="1.1" xmlns="http://www.w3.org/2000/svg" xmlns:xlink="http://www.w3.org/1999/xlink">
    <!-- Generator: sketchtool 52.4 (67378) - http://www.bohemiancoding.com/sketch -->
    <title>A554A022-4570-4577-A2E8-27CC62D40B1A</title>
    <desc>Created with sketchtool.</desc>
    <g id="Page-1" stroke="none" stroke-width="1" fill="none" fill-rule="evenodd">
        <g id="Home_cuponera-seccion" transform="translate(-672.000000, -544.000000)">
            <g id="Group-5" transform="translate(246.000000, 542.000000)">
                <g id="Group-6" transform="translate(423.000000, 2.000000)">
                    <g id="Group-26" transform="translate(3.000000, 0.000000)">
                        <g id="Group-3" fill="#FF79AE">
                            <path d="M47.9791667,95.9581786 C21.5240733,95.9581786 0,74.435653 0,47.9790119 C0,21.5223708 21.5240733,-0.000154771505 47.9791667,-0.000154771505 C74.4342601,-0.000154771505 95.9583333,21.5223708 95.9583333,47.9790119 C95.9583333,74.435653 74.4342601,95.9581786 47.9791667,95.9581786" id="Path"></path>
                        </g>
                        <path d="M67.350127,35.8819845 L61.8139503,35.8819845 C62.6713844,34.744414 63.1790349,33.3313501 63.1790349,31.8006599 C63.1790349,28.0505464 60.1269409,25 56.3768273,25 C54.118711,25 52.4518219,25.809455 51.1347164,27.547539 C50.0327433,29.0008434 49.2263837,31.0314456 48.2157258,33.5944617 C47.2035202,31.0298978 46.3987083,29.0008434 45.2951875,27.547539 C43.978082,25.809455 42.3127406,25 40.0530766,25 C36.302963,25 33.2524167,28.0505464 33.2524167,31.8006599 C33.2524167,33.3313501 33.7600672,34.744414 34.6159536,35.8819845 L29.0797769,35.8819845 C26.8293992,35.8819845 25,37.7129315 25,39.9633091 L25,42.6841922 C25,44.4578737 26.1375706,45.9684435 27.7208831,46.5302641 L27.7208831,67.350127 C27.7208831,69.6005047 29.5502823,71.4314516 31.8006599,71.4314516 L64.629244,71.4314516 C66.8796216,71.4314516 68.7105685,69.6005047 68.7105685,67.350127 L68.7105685,46.5302641 C70.293881,45.9684435 71.4314516,44.4578737 71.4314516,42.6841922 L71.4314516,39.9633091 C71.4314516,37.7129315 69.6005047,35.8819845 67.350127,35.8819845 Z M50.7121902,34.6794099 C52.7969624,29.3924153 53.5878448,27.7208831 56.3768273,27.7208831 C58.627205,27.7208831 60.4581519,29.55183 60.4581519,31.8006599 C60.4581519,34.0510376 58.627205,35.8819845 56.3768273,35.8819845 L50.235494,35.8819845 C50.4026472,35.4625538 50.5620618,35.0601478 50.7121902,34.6794099 Z M40.0530766,27.7208831 C42.8420591,27.7208831 43.6344892,29.3924153 45.7177137,34.6794099 C45.8693898,35.0601478 46.0272567,35.4625538 46.1944099,35.8819845 L40.0530766,35.8819845 C37.8026989,35.8819845 35.9732997,34.0510376 35.9732997,31.8006599 C35.9732997,29.55183 37.8026989,27.7208831 40.0530766,27.7208831 Z M42.7739597,68.7105685 L31.8006599,68.7105685 C31.0500181,68.7105685 30.4402184,68.1007688 30.4402184,67.350127 L30.4402184,46.7639691 L42.7739597,46.7639691 L42.7739597,68.7105685 Z M42.7739597,44.043086 L29.0797769,44.043086 C28.3306828,44.043086 27.7208831,43.4332863 27.7208831,42.6841922 L27.7208831,39.9633091 C27.7208831,39.2126673 28.3306828,38.6028676 29.0797769,38.6028676 L42.7739597,38.6028676 L42.7739597,44.043086 Z M45.4948427,68.7105685 L50.9366089,68.7105685 L50.9366089,38.6028676 L45.4948427,38.6028676 L45.4948427,68.7105685 Z M65.9896855,67.350127 C65.9896855,68.1007688 65.3798858,68.7105685 64.629244,68.7105685 L53.6559442,68.7105685 L53.6559442,46.7639691 L65.9896855,46.7639691 L65.9896855,67.350127 Z M68.7105685,42.6841922 C68.7105685,43.4332863 68.1007688,44.043086 67.350127,44.043086 L53.6559442,44.043086 L53.6559442,38.6028676 L67.350127,38.6028676 C68.1007688,38.6028676 68.7105685,39.2126673 68.7105685,39.9633091 L68.7105685,42.6841922 Z" id="Fill-4" fill="#FFFFFF"></path>
                    </g>
                </g>
            </g>
        </g>
    </g>
</svg>