<?xml version="1.0" encoding="UTF-8"?>
<svg width="93px" height="93px" viewBox="0 0 93 93" version="1.1" xmlns="http://www.w3.org/2000/svg" xmlns:xlink="http://www.w3.org/1999/xlink">
    <!-- Generator: sketchtool 54.1 (76490) - https://sketchapp.com -->
    <title>2DB1226A-A64A-44A6-B63C-38AF676B8F75</title>
    <desc>Created with sketchtool.</desc>
    <g id="Page-5--APROBADO" stroke="none" stroke-width="1" fill="none" fill-rule="evenodd">
        <g id="iconos-cuponera" transform="translate(-768.000000, -101.000000)">
            <g id="Group-6" transform="translate(768.000000, 101.000000)">
                <g id="Group-20" fill="#FFFFFF">
                    <g id="Oval-Copy-11">
                        <g id="Oval-Copy-10">
                            <circle id="Oval-Copy-6" cx="46.5" cy="46.5" r="46.5"></circle>
                        </g>
                    </g>
                </g>
                <g id="Icono/rojo/productos" transform="translate(13.000000, 13.000000)" fill="#DA272C" stroke="#DA272C" stroke-linecap="round" stroke-linejoin="round">
                    <g id="Group" transform="translate(12.562500, 8.375000)">
                        <path d="M21.1479145,40.7040838 C15.710429,38.4759325 13.8415715,34.4957401 14.405566,31.5189389 C14.7537519,29.6656688 15.9707342,28.5148837 17.5815114,28.5148837 C18.5304016,28.5148837 19.5877522,28.9342612 20.6406532,29.7279636 C20.9387805,29.953226 21.3475931,29.956007 21.6490576,29.734638 C22.7019586,28.9626276 23.7565282,28.553818 24.6981877,28.553818 C26.3022904,28.553818 27.5265033,29.6923666 27.8936004,31.5256134 C28.4559262,34.4651489 26.5854001,38.4292114 21.1479145,40.7040838 Z M29.5622232,31.188554 C29.0338259,28.5432501 27.1249214,26.8340367 24.6981877,26.8340367 C23.5579621,26.8340367 22.3437609,27.2328346 21.1568139,27.9948334 C19.9559616,27.19835 18.7556656,26.7945463 17.5815114,26.7945463 C15.1386476,26.7945463 13.2364176,28.523783 12.7352745,31.1963409 C12.0338967,34.8895322 14.2069998,39.7707743 20.642878,42.3521148 C20.6573394,42.358233 20.672357,42.3632389 20.6873746,42.3682447 C20.9855019,42.4789292 21.3131082,42.4789292 21.6112355,42.3682447 C21.6284779,42.3621265 21.6451641,42.3565644 21.6618504,42.34989 C28.0943913,39.7157101 30.2647134,34.8489294 29.5633356,31.1941161 L29.5622232,31.188554 Z" id="Stroke-14-Copy" stroke-width="0.8"></path>
                        <path d="M36.6038424,46.2704436 C36.4504244,47.5911418 35.3291198,48.5802629 34.0081463,48.5623095 L7.82613541,48.5623095 C6.50459786,48.5802629 5.38442135,47.5911418 5.23043938,46.2704436 L1.77853592,15.9695643 L12.531892,15.9695643 L12.531892,22.4771169 C12.531892,22.9427836 12.9069763,23.3203664 13.3700503,23.3203664 C13.8331243,23.3203664 14.2082086,22.9427836 14.2082086,22.4771169 L14.2082086,15.9695643 L28.1494991,15.9695643 L28.1494991,22.4771169 C28.1494991,22.9427836 28.5245833,23.3203664 28.9876573,23.3203664 C29.4507313,23.3203664 29.8263796,22.9427836 29.8263796,22.4771169 L29.8263796,15.9695643 L40.0551818,15.9695643 L36.6038424,46.2704436 Z M14.2082086,9.06479238 C14.2082086,4.99722138 17.3284586,1.68706014 21.1791358,1.68706014 C25.0298131,1.68706014 28.1494991,4.99722138 28.1494991,9.06479238 L28.1494991,14.2819431 L14.2082086,14.2819431 L14.2082086,9.06479238 Z M41.6209471,14.5428287 C41.4590687,14.369466 41.2311979,14.2746495 40.9954306,14.2819431 L29.8263796,14.2819431 L29.8263796,9.06479238 C29.8263796,4.06644892 25.954833,0 21.1791358,0 C16.4034387,0 12.531892,4.06644892 12.531892,9.06479238 L12.531892,14.2819431 L0.838287054,14.2819431 C0.601955755,14.2746495 0.373520967,14.3717102 0.213334597,14.5478781 C0.0537122637,14.723485 -0.0224326655,14.9608067 0.00576916013,15.1975674 L3.56427552,46.4499778 C3.8141437,48.6251464 5.65064658,50.2622736 7.82613541,50.2499307 L34.0081463,50.2499307 C36.1841992,50.2605905 38.020138,48.6212191 38.2700062,46.4454894 L41.8279485,15.1784919 C41.8550223,14.9467806 41.7788774,14.7139472 41.6209471,14.5428287 Z" id="Stroke-3-Copy" stroke-width="0.8"></path>
                    </g>
                </g>
            </g>
        </g>
    </g>
</svg>