<?xml version="1.0" encoding="UTF-8"?>
<svg width="96px" height="96px" viewBox="0 0 96 96" version="1.1" xmlns="http://www.w3.org/2000/svg" xmlns:xlink="http://www.w3.org/1999/xlink">
    <!-- Generator: sketchtool 54.1 (76490) - https://sketchapp.com -->
    <title>7101E750-2F3D-4DB2-BCB3-6E12B2BA7FA8</title>
    <desc>Created with sketchtool.</desc>
    <g id="Page-2" stroke="none" stroke-width="1" fill="none" fill-rule="evenodd">
        <g id="iconos" transform="translate(-1427.000000, -90.000000)">
            <g id="Group" transform="translate(1427.000000, 90.000000)">
                <path d="M47.7927263,95.9859012 C74.186968,95.9859012 95.5852933,74.5875759 95.5852933,48.1933342 C95.5852933,21.7990925 74.186968,0.400767226 47.7927263,0.400767226 C21.3968915,0.400767226 0.000159308557,21.7990925 0.000159308557,48.1933342 C0.000159308557,74.5875759 21.3968915,95.9859012 47.7927263,95.9859012" id="Fill-69" fill="#0FD299"></path>
                <path d="M22.6853792,45.7936694 L22.6328073,45.2074139 L72.952008,45.2074139 L72.8994362,45.7936694 C72.5473643,49.6823913 71.0052575,53.3002886 68.4419828,56.2522762 L68.3304668,56.3813161 L68.1647859,56.4211432 C67.8302379,56.5055768 67.4988761,56.6043481 67.1738867,56.7190502 L66.6879956,56.8895104 L66.4968253,56.4115847 C65.9472108,55.039938 65.1347371,53.8084829 64.0769283,52.7506741 L61.7637681,50.4391069 C61.3495658,50.0233116 60.626305,50.0233116 60.2105097,50.4391069 L57.8973494,52.7506741 C56.8411337,53.8084829 56.027067,55.039938 55.4774524,56.4115847 L55.2862822,56.8895104 L54.8003911,56.7190502 C53.6278801,56.3064411 52.4075766,56.0977469 51.1729352,56.0977469 L47.9023306,56.0977469 C47.2969581,56.0977469 46.8046946,56.5900103 46.8046946,57.1953828 L46.8046946,60.4675806 C46.8046946,60.9869265 46.8413356,61.5110516 46.9162106,62.0256183 L47.0054234,62.6405493 L41.1396824,62.6405493 C31.6464855,62.6405493 23.539273,55.2406668 22.6853792,45.7936694 L22.6853792,45.7936694 Z M28.5272239,34.8953711 L31.8280972,31.5960909 L46.0702822,43.012142 L33.8417574,43.012142 L28.5272239,34.8953711 Z M26.3431036,33.9761607 C25.9336806,34.3855837 25.3872523,34.6102087 24.8073691,34.6102087 C24.2258929,34.6102087 23.6794645,34.3839906 23.2700416,33.9745676 C22.42252,33.1270461 22.42252,31.7490271 23.2700416,30.8999125 L27.896362,26.273592 C28.7183942,25.4515598 30.148985,25.4515598 30.9710172,26.273592 C31.3804402,26.6846081 31.6066583,27.2310364 31.6066583,27.8109196 C31.6066583,28.3923958 31.3804402,28.9388241 30.9710172,29.3482471 L26.3431036,33.9761607 Z M72.9759043,58.2930188 L72.9759043,60.4675806 C72.9759043,65.203824 69.1222303,69.1132559 64.3859869,69.1817586 L63.0589467,69.1992826 L63.9972741,68.2625482 C66.136788,66.1214412 67.272658,63.3829272 67.272658,60.4675806 C67.272658,60.1314395 67.2567271,59.7968915 67.2264585,59.4655297 L67.1898175,59.0656653 L67.5625996,58.9159152 C68.5981052,58.5033061 69.6877757,58.2930188 70.8013425,58.2930188 L72.9759043,58.2930188 Z M60.9863423,68.1669631 L59.4506078,66.6312286 C57.8033574,64.9839782 56.8968917,62.7950786 56.8968917,60.4675806 C56.8968917,59.879732 56.9558359,59.2918834 57.070538,58.7231519 C57.4210168,57.0297019 58.2414559,55.5130845 59.4506078,54.3039325 L60.9863423,52.7666049 L62.5236699,54.3039325 C63.7344149,55.5130845 64.5532609,57.0297019 64.8957743,58.6896971 C65.0184419,59.2950696 65.0773861,59.8813251 65.0773861,60.4675806 C65.0773861,62.7950786 64.1709204,64.9839782 62.5236699,66.6312286 L60.9863423,68.1669631 Z M57.5882908,69.1817586 C52.8520474,69.1132559 48.9983734,65.203824 48.9983734,60.4675806 L48.9983734,58.2930188 L51.1729352,58.2930188 C52.2865021,58.2930188 53.3761726,58.5033061 54.4116782,58.9159152 L54.7844602,59.0656653 L54.7478193,59.4655297 C54.7175506,59.7968915 54.7016198,60.1314395 54.7016198,60.4675806 C54.7016198,63.3829272 55.8374898,66.1214412 57.8973494,68.182894 L58.9153311,69.1992826 L57.5882908,69.1817586 Z M38.9667136,69.1849448 L38.9667136,64.7306775 L39.5450037,64.7752839 C40.4164215,64.8421935 40.9262089,64.8358212 42.8283531,64.8358212 C43.8543002,64.832635 45.2801117,64.8278558 47.3734262,64.8358212 L47.7111603,64.8374143 L47.8577242,65.1432867 C48.412118,66.3046461 49.1624613,67.3544895 50.088044,68.2625482 L51.0295575,69.1849448 L38.9667136,69.1849448 Z M37.8690777,71.3786236 L64.2585401,71.3786236 C70.2756243,71.3786236 75.1695831,66.4846648 75.1695831,60.4675806 L75.1695831,57.1953828 C75.1695831,56.5900103 74.6789128,56.0977469 74.0735403,56.0977469 L71.3812257,56.0977469 L71.9101301,55.2693424 C74.0432716,51.9382004 75.1695831,48.0813403 75.1695831,44.109778 C75.1695831,43.5044055 74.6789128,43.012142 74.0735403,43.012142 L49.5798497,43.012142 L33.2714327,29.9392819 L33.4355206,29.5617206 C34.1476298,27.9256217 33.7812201,25.9804642 32.5226825,24.7219266 C30.8722459,23.0698969 27.9967264,23.0683038 26.3431036,24.7219266 L21.7167831,29.3482471 C20.0137747,31.0512556 20.0137747,33.8232245 21.7167831,35.527826 C22.9546106,36.7624673 24.8025899,37.1432148 26.4339095,36.4916428 L26.8417394,36.3291481 L31.2179454,43.012142 L21.5112751,43.012142 C20.9059026,43.012142 20.4152322,43.5044055 20.4152322,44.109778 C20.4152322,53.7590973 26.9707793,62.0527007 36.3588326,64.2782412 L36.7714417,64.3770125 L36.7714417,70.2809877 C36.7714417,70.8863602 37.2637052,71.3786236 37.8690777,71.3786236 L37.8690777,71.3786236 Z" id="Fill-74" fill="#FFFFFF"></path>
            </g>
        </g>
    </g>
</svg>