<?xml version="1.0" encoding="UTF-8"?>
<svg width="93px" height="93px" viewBox="0 0 93 93" version="1.1" xmlns="http://www.w3.org/2000/svg" xmlns:xlink="http://www.w3.org/1999/xlink">
    <!-- Generator: sketchtool 54.1 (76490) - https://sketchapp.com -->
    <title>51500B3C-5AB3-4DF0-8697-54DD2F63B0BE</title>
    <desc>Created with sketchtool.</desc>
    <g id="Page-5--APROBADO" stroke="none" stroke-width="1" fill="none" fill-rule="evenodd">
        <g id="iconos-cuponera" transform="translate(-1052.000000, -103.000000)" fill-rule="nonzero">
            <g id="Group-26-Copy" transform="translate(1052.000000, 103.000000)">
                <circle id="Oval-4-Copy-46" fill="#FFFFFF" cx="46.5" cy="46.5" r="46.5"></circle>
                <g id="Group" transform="translate(22.000000, 23.000000)" fill="#DA272C">
                    <path d="M33.6508733,29.1307798 L17.8208385,12.3696528 C17.5498153,12.0828142 17.1651334,11.9511527 16.7866273,12.0164176 C16.4083587,12.0815567 16.0825845,12.3351969 15.9114433,12.6983664 L14.4881558,15.7161439 L0.125589265,46.1739667 C-0.103509657,46.6597436 -0.0134853011,47.2462473 0.349224968,47.6302914 C0.577967593,47.872614 0.88295776,48 1.19234226,48 C1.37310356,48 1.55529006,47.9564901 1.72441233,47.8669552 L33.3404199,31.1524819 C33.6834151,30.9712744 33.9230841,30.6264646 33.984486,30.2258213 C34.0461253,29.8251779 33.9218965,29.4178698 33.6508733,29.1307798 Z M4,44 L8.48554834,34 L10,40.6653621 L4,44 Z M22.787175,34.3334517 L20.7734003,29.0359991 C20.5253607,28.3837858 19.8347385,28.0719241 19.2303704,28.3395249 C18.6261202,28.6071256 18.3371924,29.3528212 18.5851141,30.0050345 L20.6652291,35.4769872 L12.2725371,40 L10,30.3018882 L14.7743783,19.9805616 L16.0881041,23.4364782 C16.2758129,23.9300897 16.7172172,24.2288512 17.1826596,24.2288512 C17.3321903,24.2288512 17.4841956,24.1980721 17.631134,24.1329525 C18.2353842,23.8653517 18.524312,23.1196562 18.2763903,22.4674429 L16.1778933,16.9469049 L16.6159983,16 L30,30.4463723 L22.787175,34.3334517 Z" id="Shape-Copy-27"></path>
                    <path d="M34.1591019,26.2048133 C34.3290419,26.5925289 34.6071818,26.8493619 34.9196062,26.9509397 C35.2321527,27.0525572 35.5787394,26.9988401 35.8856769,26.7661705 C39.3975502,24.1025318 44.176368,23.9121871 47.4778943,24.6223131 C48.165572,24.7702743 48.8356605,24.166518 48.9745972,23.2742523 C49.1134469,22.3817881 48.6692192,21.5414325 47.9810042,21.3905715 C44.2367602,20.585217 38.7700253,20.836675 34.6553667,23.9575063 C34.0415787,24.423044 33.8193789,25.4292629 34.1591019,26.2048133 Z" id="Shape-Copy-38"></path>
                    <path d="M27.2896993,0.000844641727 C26.8361376,-0.0122896897 26.4318755,0.128562393 26.145072,0.3671101 C25.8581563,0.605751025 25.6889233,0.941901137 25.7047146,1.31914932 C25.8867477,5.63614385 23.0607833,10.0345366 20.3551526,12.7115149 C19.7915512,13.2690842 19.9117726,14.1338474 20.6232453,14.6428334 C21.3349504,15.1518263 22.365608,15.1117444 22.9321417,14.5549361 C26.0005873,11.5189905 29.2031796,6.47295394 28.9899019,1.4149813 C28.9580871,0.660478156 28.196831,0.0273065193 27.2896993,0.000844641727 Z" id="Shape-Copy-51"></path>
                    <path d="M29.5,19.3334667 L31.00015,19.3334667 L31.00015,20.6666667 C31.00015,21.4030667 31.67185,22 32.50015,22 C33.3286,22 34.00015,21.4030667 34.00015,20.6666667 L34.00015,19.3334667 L35.5,19.3334667 C36.3283,19.3334667 37,18.7364 37,18.0001333 C37,17.2638667 36.3283,16.6668 35.5,16.6668 L34.00015,16.6668 L34.00015,15.3333333 C34.00015,14.5970667 33.3286,14 32.50015,14 C31.67185,14 31.00015,14.5970667 31.00015,15.3333333 L31.00015,16.6668 L29.5,16.6668 C28.6717,16.6668 28,17.2638667 28,18.0001333 C28,18.7365333 28.6717,19.3334667 29.5,19.3334667 Z" id="Shape-Copy-49"></path>
                    <path d="M39,12 C40.6542,12 42,10.6542 42,9 C42,7.3458 40.6542,6 39,6 C37.3458,6 36,7.3458 36,9 C36,10.6542 37.3458,12 39,12 Z M39,8 C39.5514,8 40,8.4486 40,9 C40,9.5514 39.5514,10 39,10 C38.4486,10 38,9.5514 38,9 C38,8.4486 38.4486,8 39,8 Z" id="Shape-Copy-52"></path>
                </g>
            </g>
        </g>
    </g>
</svg>