<?xml version="1.0" encoding="UTF-8"?>
<svg width="96px" height="96px" viewBox="0 0 96 96" version="1.1" xmlns="http://www.w3.org/2000/svg" xmlns:xlink="http://www.w3.org/1999/xlink">
    <!-- Generator: sketchtool 52.4 (67378) - http://www.bohemiancoding.com/sketch -->
    <title>4C4C23BE-860C-4CB6-9DF0-BE55F032A95F</title>
    <desc>Created with sketchtool.</desc>
    <g id="Page-1" stroke="none" stroke-width="1" fill="none" fill-rule="evenodd">
        <g id="Home_cuponera-seccion" transform="translate(-246.000000, -544.000000)">
            <g id="Group-5" transform="translate(246.000000, 542.000000)">
                <g id="Group-6" transform="translate(0.000000, 2.041667)">
                    <g id="Group-3">
                        <g id="Group-23">
                            <path d="M47.9791667,95.9583333 C21.5240733,95.9583333 0,74.4342601 0,47.9791667 C0,21.5240733 21.5240733,0 47.9791667,0 C74.4342601,0 95.9583333,21.5240733 95.9583333,47.9791667 C95.9583333,74.4342601 74.4342601,95.9583333 47.9791667,95.9583333" id="Path" fill="#F5A623"></path>
                            <path d="M75.722655,59.2710544 C75.722655,57.4416552 74.2848277,55.9543011 72.5157894,55.9543011 L71.447866,55.9543011 L71.447866,52.391461 C71.491202,52.3512204 71.5360857,52.3140753 71.5794218,52.2738347 C72.2727981,51.6191512 73.7230071,51.2012681 74.6671133,51.1873387 C75.2583404,51.1796001 75.7303935,50.6796882 75.722655,50.0683407 C75.7149164,49.4631841 75.2382201,48.9772016 74.6547316,48.9772016 L74.6408021,48.9772016 C73.7230071,48.9895833 72.5049554,49.2418609 71.447866,49.7587977 L71.447866,46.8599274 C72.7494943,46.3089409 73.6146671,44.9237359 73.4289412,43.3853071 C72.1675535,32.9041808 63.5049923,25 53.2776912,25 L43.4450575,25 C33.2177564,25 24.5551953,32.9041808 23.2938075,43.3837594 C23.1096294,44.9190927 23.9686113,46.3073931 25.2748828,46.8599274 L25.2748828,49.7092708 C24.214698,49.2124543 22.9920031,48.9632722 22.0540878,48.9772016 C21.4644083,48.9849402 20.9923552,49.4863999 21.0000938,50.0977473 C21.0078324,50.7029039 21.4845286,51.1873387 22.0680172,51.1873387 L22.0834943,51.1873387 C23.0384345,51.1734093 24.5211455,51.5866492 25.2454762,52.2691915 L25.2748828,52.2955027 L25.2748828,55.9543011 L24.2069594,55.9543011 C22.4348257,55.9543011 21.0000938,57.4385598 21.0000938,59.2710544 C21.0000938,60.9147278 22.1624278,62.2813602 23.6807363,62.5413763 C23.4300064,63.2239187 23.4129816,63.9683696 23.6451388,64.6772231 C24.9699829,68.7167594 28.630329,71.4314516 32.7565374,71.4314516 L63.9662114,71.4314516 C68.0924197,71.4314516 71.7543136,68.7167594 73.0791576,64.6756754 C73.3097672,63.9683696 73.2927423,63.2239187 73.0435602,62.5429241 C74.5324621,62.2890988 75.722655,60.9472298 75.722655,59.2710544 M25.4157249,43.657705 C26.5440091,34.2816472 34.2934184,27.2116848 43.4450575,27.2116848 L53.2776912,27.2116848 C62.4277826,27.2116848 70.1787396,34.2816472 71.3070239,43.6592527 C71.3844097,44.2969113 70.9030703,44.8540887 70.3072,44.8943293 C70.3010091,44.895877 70.2932705,44.895877 70.285532,44.895877 C70.2685071,44.8974247 70.2499345,44.8989724 70.2313619,44.8989724 L26.4913868,44.8989724 C25.8614668,44.8989724 25.3352437,44.3263179 25.4157249,43.657705 M65.1672383,50.6378999 C62.8193546,48.4231196 59.6635636,48.4231196 57.3141321,50.6378999 C55.7803465,52.0850134 53.8751093,52.0850134 52.3413236,50.6378999 C49.9918922,48.4231196 46.8361012,48.4231196 44.4882175,50.6378999 C42.9544318,52.0850134 41.0491946,52.0850134 39.515409,50.6378999 C37.1675253,48.4231196 34.0117343,48.4231196 31.6623028,50.6394476 C30.3622222,51.8652379 28.8052208,52.06025 27.4122773,51.1981727 L27.4122773,47.1106573 L69.3089238,47.1106573 L69.3089238,51.261629 C67.9469345,52.0463206 66.4301738,51.8296405 65.1672383,50.6378999 M69.3089238,53.6605874 L69.3089238,55.9543011 L27.4122773,55.9543011 L27.4122773,53.6265376 C27.9911227,53.8323837 28.5838976,53.9360806 29.1766724,53.9360806 C30.5556865,53.9360806 31.9316052,53.3789032 33.1032255,52.272287 C34.6370111,50.8251734 36.5422484,50.8251734 38.076034,52.272287 C40.4239177,54.4886149 43.5797087,54.4886149 45.9291402,52.272287 C47.4629258,50.8251734 49.368163,50.8251734 50.9004009,52.272287 C53.2498324,54.4886149 56.4056234,54.4886149 58.7550548,52.272287 C60.2872927,50.8251734 62.19253,50.8267211 63.7278633,52.272287 C65.3622504,53.8153589 67.4145205,54.2889597 69.3089238,53.6605874 M71.0531986,63.9668219 C70.0239681,67.1086835 67.1761724,69.2197668 63.9662114,69.2197668 L32.7565374,69.2197668 C29.548124,69.2197668 26.6987806,67.1086835 25.6695501,63.9683696 C25.4466792,63.2904704 26.0131429,62.5878078 26.7142578,62.5878078 L70.008491,62.5878078 C70.7127013,62.5878078 71.2745219,63.2935659 71.0531986,63.9668219 M72.5157894,60.376123 L24.2069594,60.376123 C23.61728,60.376123 23.1374883,59.8808542 23.1374883,59.2710544 C23.1374883,58.659707 23.6157322,58.1659859 24.2069594,58.1659859 L72.5157894,58.1659859 C73.1054688,58.1659859 73.5852605,58.6612547 73.5852605,59.2710544 C73.5852605,59.8808542 73.1070165,60.376123 72.5157894,60.376123" id="Fill-4" fill="#FFFFFF"></path>
                        </g>
                    </g>
                </g>
            </g>
        </g>
    </g>
</svg>