<?xml version="1.0" encoding="UTF-8"?>
<svg width="96px" height="96px" viewBox="0 0 96 96" version="1.1" xmlns="http://www.w3.org/2000/svg" xmlns:xlink="http://www.w3.org/1999/xlink">
    <!-- Generator: sketchtool 52.4 (67378) - http://www.bohemiancoding.com/sketch -->
    <title>2B9EB563-7161-4CE7-9756-02B749B772A5</title>
    <desc>Created with sketchtool.</desc>
    <g id="Page-1" stroke="none" stroke-width="1" fill="none" fill-rule="evenodd">
        <g id="Home_cuponera-seccion" transform="translate(-1098.000000, -544.000000)">
            <g id="Group-5" transform="translate(246.000000, 542.000000)">
                <g id="Group-20" transform="translate(846.000000, 2.000000)">
                    <g id="Group-30" transform="translate(6.000000, 0.000000)">
                        <g id="Group-3" fill="#C28AFF">
                            <path d="M47.9794762,95.9581786 C21.5243828,95.9581786 0.000309543011,74.435653 0.000309543011,47.9790119 C0.000309543011,21.5223708 21.5243828,-0.000154771505 47.9794762,-0.000154771505 C74.4345696,-0.000154771505 95.9586429,21.5223708 95.9586429,47.9790119 C95.9586429,74.435653 74.4345696,95.9581786 47.9794762,95.9581786" id="Path"></path>
                        </g>
                        <g id="Group-29" transform="translate(29.000000, 24.000000)" fill="#FFFFFF">
                            <path d="M26.5019905,6.30503461 C26.0577962,3.14614819 23.3492949,0.762667003 20.2027902,0.762667003 C18.1783789,0.762667003 16.2561168,1.75475235 15.0597331,3.41699832 C14.8167418,3.75594792 14.8894844,4.23109644 15.2237909,4.47873085 C15.5565496,4.72481754 16.0255073,4.65362265 16.2700462,4.31312534 C17.1831981,3.04245128 18.6535274,2.2840709 20.2027902,2.2840709 C22.6094871,2.2840709 24.6803298,4.1041838 25.0192794,6.51861929 C25.0734495,6.89780948 25.3938265,7.17175504 25.7606349,7.17175504 C25.7946847,7.17175504 25.8302821,7.17020733 25.8658796,7.16401647 C26.2760241,7.10520329 26.5608036,6.71982224 26.5019905,6.30503461" id="Fill-4"></path>
                            <path d="M33.0805533,7.89887157 C32.9768564,7.7270752 32.8081554,7.60635343 32.6146911,7.55992198 L22.409058,5.1362002 C22.2155936,5.09131647 22.0128429,5.1253662 21.844142,5.23061082 C21.6754411,5.33740316 21.5547193,5.50765181 21.5098356,5.70421163 L20.7406212,9.04418071 C20.6462106,9.45122977 20.8953927,9.86137426 21.2993463,9.95578488 C21.7002045,10.0517432 22.1041581,9.79791794 22.1985688,9.38932117 L22.7975345,6.78915988 L31.54522,8.86619348 L30.170849,14.832635 C30.0764384,15.2427795 30.3256205,15.6513763 30.7280264,15.7457869 C30.7868396,15.7597163 30.844105,15.7659072 30.8998228,15.7659072 C31.2403201,15.7659072 31.5483154,15.5306545 31.6287966,15.1793232 L33.1734162,8.47307386 C33.2182999,8.27651405 33.1857979,8.07066794 33.0805533,7.89887157" id="Fill-6"></path>
                            <path d="M20.9065362,10.1939782 L20.2239939,4.33587675 C20.2007782,4.13622151 20.1001767,3.95359113 19.9438575,3.82822621 C19.7875382,3.70440901 19.5909784,3.64714355 19.3928709,3.67035927 L6.87185612,5.17319059 C6.46171163,5.22271747 6.16764577,5.60035995 6.21562493,6.0166953 L7.3531955,15.7874204 C7.39807923,16.1728015 7.72155168,16.457581 8.09609872,16.457581 C8.12550531,16.457581 8.1549119,16.4560333 8.18431848,16.4529379 C8.59446297,16.403411 8.88852883,16.0257685 8.84054966,15.6094332 L7.78965114,6.5924453 L18.8248595,5.26914892 L19.4191821,10.3719655 C19.4687089,10.7883008 19.8386128,11.0854621 20.250305,11.0374829 C20.6604495,10.987956 20.9545154,10.6118613 20.9065362,10.1939782" id="Fill-8"></path>
                            <path d="M25.5868265,14.8741138 L24.1010201,8.59967695 C24.0545886,8.40466485 23.9338669,8.2344162 23.7636182,8.12917157 C23.5949173,8.02547466 23.3921666,7.99297265 23.1987022,8.0394041 L11.1373588,10.9831581 C10.7349529,11.0822119 10.4873185,11.4923564 10.5848245,11.9009532 L11.3277278,15.0366239 C11.4236861,15.4452206 11.8276397,15.6959505 12.2300456,15.5968967 C12.6309038,15.4993907 12.880086,15.0892462 12.7825799,14.6806494 L12.2145685,12.2847865 L22.819512,9.69545921 L24.1304267,15.2285405 C24.2124556,15.5783241 24.5204509,15.8120291 24.8578528,15.8120291 C24.9166659,15.8120291 24.9739314,15.8058382 25.0342923,15.7903611 C25.4351505,15.692855 25.6827849,15.2827106 25.5868265,14.8741138" id="Fill-10"></path>
                            <path d="M14.2600287,19.6260633 C13.0218567,19.6260633 12.0142942,20.649103 12.0142942,21.9058476 C12.0142942,23.1641399 13.0218567,24.1871796 14.2600287,24.1871796 C15.4982007,24.1871796 16.5057632,23.1641399 16.5057632,21.9058476 C16.5057632,20.649103 15.4982007,19.6260633 14.2600287,19.6260633 M14.2600287,22.6657757 C13.8467888,22.6657757 13.5124823,22.3252784 13.5124823,21.9073953 C13.5124823,21.4879645 13.8467888,21.1459195 14.2600287,21.1459195 C14.6732686,21.1459195 15.0091228,21.4879645 15.0091228,21.9073953 C15.0091228,22.3252784 14.6732686,22.6657757 14.2600287,22.6657757" id="Fill-12"></path>
                            <path d="M25.8678916,19.6260633 C24.6297196,19.6260633 23.6221571,20.649103 23.6221571,21.9058476 C23.6221571,23.1641399 24.6297196,24.1871796 25.8678916,24.1871796 C27.1060636,24.1871796 28.1136261,23.1641399 28.1136261,21.9058476 C28.1136261,20.649103 27.1060636,19.6260633 25.8678916,19.6260633 M25.8678916,22.6657757 C25.4546517,22.6657757 25.1203452,22.3252784 25.1203452,21.9073953 C25.1203452,21.4879645 25.4546517,21.1459195 25.8678916,21.1459195 C26.2811315,21.1459195 26.6169857,21.4879645 26.6169857,21.9073953 C26.6169857,22.3252784 26.2811315,22.6657757 25.8678916,22.6657757" id="Fill-14"></path>
                            <path d="M25.4439724,22.528029 L25.386707,22.528029 C24.9734671,22.528029 24.6376129,22.8685263 24.6376129,23.2879571 C24.6376129,23.391654 24.6577332,23.4907078 24.6948784,23.582023 L24.6948784,27.4683355 C24.6948784,30.192314 22.5126001,32.4086419 19.8288622,32.4086419 C17.1451243,32.4086419 14.9628461,30.192314 14.9628461,27.4683355 L14.9628461,23.2879571 C14.9628461,22.8685263 14.6269919,22.528029 14.213752,22.528029 C13.8005121,22.528029 13.4662056,22.8685263 13.4662056,23.2879571 L13.4662056,27.4683355 C13.4662056,31.0311755 16.3201922,33.9284981 19.8288622,33.9284981 C23.3375323,33.9284981 26.1930665,31.0311755 26.1930665,27.4683355 L26.1930665,23.2879571 C26.1930665,22.8685263 25.8572124,22.528029 25.4439724,22.528029" id="Fill-16"></path>
                            <path d="M36.4796581,15.7406009 C36.4592334,15.3258008 36.1245817,15 35.7208001,15 L2.28077065,15 C1.87541791,15 1.54233737,15.3258008 1.52191262,15.7406009 L0.00105430037,46.1783462 C-0.00994364203,46.3928979 0.0654708201,46.6010926 0.210015206,46.7568413 C0.352988457,46.9110007 0.552522555,47 0.759912326,47 L37.2400873,47 C37.447477,47 37.6470111,46.91259 37.7915555,46.7568413 C37.9345288,46.6010926 38.0099432,46.3928979 37.9989453,46.1783462 L36.4796581,15.7406009 Z M2,45 L3.40588262,17 L34.5941174,17 L36,45 L2,45 Z" id="Fill-18"></path>
                        </g>
                    </g>
                </g>
            </g>
        </g>
    </g>
</svg>