<?xml version="1.0" encoding="UTF-8"?>
<svg width="93px" height="93px" viewBox="0 0 93 93" version="1.1" xmlns="http://www.w3.org/2000/svg" xmlns:xlink="http://www.w3.org/1999/xlink">
    <!-- Generator: sketchtool 54.1 (76490) - https://sketchapp.com -->
    <title>95EE77C2-3C2F-4729-8529-55313C55476E</title>
    <desc>Created with sketchtool.</desc>
    <g id="Page-5--APROBADO" stroke="none" stroke-width="1" fill="none" fill-rule="evenodd">
        <g id="iconos-cuponera" transform="translate(-1188.000000, -252.000000)">
            <g id="Group-27" transform="translate(1188.000000, 252.000000)">
                <circle id="Oval-4-Copy-37" fill="#DA272C" fill-rule="nonzero" cx="46.5" cy="46.5" r="46.5"></circle>
                <g id="Group-4" transform="translate(30.000000, 18.000000)" stroke="#FFFFFF">
                    <path d="M2.05884761,17.1805707 C2.05884761,15.6306118 3.31652503,14.3701616 4.861802,14.3701616 L27.8577831,14.3701616 C29.4036307,14.3701616 30.6613081,15.6306118 30.6613081,17.1805707 L30.6613081,46.9627822 C30.6613081,48.5127411 29.4036307,49.7731912 27.8577831,49.7731912 L4.861802,49.7731912 C3.31652503,49.7731912 2.05884761,48.5127411 2.05884761,46.9627822 L2.05884761,17.1805707 Z M12.5984583,12.3052662 L20.1211268,12.3052662 L20.1211268,1.84061196 L12.5984583,1.84061196 L12.5984583,12.3052662 Z M27.8577831,12.3052662 L22.1799744,12.3052662 L22.1799744,1.84061196 L23.2984171,1.84061196 C23.8051402,1.84061196 24.2165673,1.42866275 24.2165673,0.920592056 L24.2165673,0.920019904 C24.2165673,0.411949211 23.8051402,-3.58824082e-13 23.2984171,-3.58824082e-13 L9.4217386,-3.58824082e-13 C8.91444494,-3.58824082e-13 8.50358843,0.411949211 8.50358843,0.920019904 L8.50358843,0.920592056 C8.50358843,1.42866275 8.91444494,1.84061196 9.4217386,1.84061196 L10.5396107,1.84061196 L10.5396107,12.3052662 L4.861802,12.3052662 C2.1843871,12.3086991 0.00285317019,14.496035 1.16529009e-12,17.1805707 L1.16529009e-12,46.9627822 C0.00285317019,49.6473179 2.1843871,51.8340816 4.861802,51.8375145 L6.70723248,51.8375145 L6.70723248,52.5876054 C6.70723248,53.1683393 7.17629366,53.6392201 7.75548721,53.6392201 L9.27451502,53.6392201 C9.85313793,53.6392201 10.3227697,53.1683393 10.3227697,52.5876054 L10.3227697,51.8375145 L22.3968154,51.8375145 L22.3968154,52.5876054 C22.3968154,53.1683393 22.8664472,53.6392201 23.4456407,53.6392201 L24.9640979,53.6392201 C25.5432914,53.6392201 26.0129232,53.1683393 26.0129232,52.5876054 L26.0129232,51.8375145 L27.8577831,51.8375145 C30.535198,51.8340816 32.7167319,49.6473179 32.7195851,46.9627822 L32.7195851,17.1805707 C32.7167319,14.496035 30.535198,12.3086991 27.8577831,12.3052662 L27.8577831,12.3052662 Z" id="Fill-1" stroke-width="0.5" fill="#FFFFFF"></path>
                    <path d="M11.7215459,20.7966065 L11.7215459,44.1963958" id="Line" stroke-width="2.5" stroke-linecap="round"></path>
                    <path d="M21.3747717,20.7966065 L21.3747717,44.1963958" id="Line-Copy" stroke-width="2.5" stroke-linecap="round"></path>
                </g>
            </g>
        </g>
    </g>
</svg>