<?xml version="1.0" encoding="UTF-8"?>
<svg width="93px" height="93px" viewBox="0 0 93 93" version="1.1" xmlns="http://www.w3.org/2000/svg" xmlns:xlink="http://www.w3.org/1999/xlink">
    <!-- Generator: sketchtool 54.1 (76490) - https://sketchapp.com -->
    <title>9064D65C-C863-49D8-A14D-FF2BE8F325F8</title>
    <desc>Created with sketchtool.</desc>
    <g id="Page-5--APROBADO" stroke="none" stroke-width="1" fill="none" fill-rule="evenodd">
        <g id="iconos-cuponera" transform="translate(-768.000000, -252.000000)">
            <g id="Group-12" transform="translate(768.000000, 252.000000)">
                <g id="Group-20-Copy" fill="#DA272C">
                    <g id="Oval-Copy-11">
                        <g id="Oval-Copy-10">
                            <circle id="Oval-Copy-6" cx="46.5" cy="46.5" r="46.5"></circle>
                        </g>
                    </g>
                </g>
                <g id="Group" transform="translate(25.000000, 21.000000)" fill="#FFFFFF" stroke="#FFFFFF" stroke-linecap="round" stroke-linejoin="round" stroke-width="0.8">
                    <path d="M21.463555,41.3116074 C15.944913,39.0502001 14.0481621,35.0106019 14.6205744,31.9893708 C14.9739572,30.10844 16.2091033,28.940479 17.843922,28.940479 C18.8069747,28.940479 19.8801067,29.3661158 20.9487226,30.1716645 C21.2512996,30.4002891 21.6662139,30.4031116 21.9721778,30.1784386 C23.0407938,29.3949056 24.1111032,28.9799944 25.0668173,28.9799944 C26.6948619,28.9799944 27.9373467,30.1355362 28.3099227,31.9961449 C28.8806416,34.9795542 26.9821971,39.0027817 21.463555,41.3116074 Z M30.0034504,31.6540548 C29.4671666,28.9692688 27.529771,27.2345447 25.0668173,27.2345447 C23.9095735,27.2345447 22.6772498,27.6392948 21.4725872,28.4126668 C20.2538118,27.6042955 19.0356009,27.1944649 17.843922,27.1944649 C15.3645975,27.1944649 13.4339761,28.9495111 12.9253533,31.6619579 C12.2135071,35.4102715 14.4190446,40.3643679 20.9509807,42.9842359 C20.9656579,42.9904455 20.9808997,42.995526 20.9961414,43.0006066 C21.2987184,43.1129431 21.6312143,43.1129431 21.9337912,43.0006066 C21.951291,42.994397 21.9682263,42.988752 21.9851616,42.9819779 C28.5137106,40.3084819 30.7164255,35.3690626 30.0045794,31.6596999 L30.0034504,31.6540548 Z" id="Stroke-14-Copy"></path>
                    <path d="M37.1501684,46.9610472 C36.9944606,48.3014574 35.8564201,49.3053415 34.5157306,49.2871201 L7.94294341,49.2871201 C6.60168141,49.3053415 5.46478585,48.3014574 5.30850564,46.9610472 L1.80508123,16.207916 L12.7189352,16.207916 L12.7189352,22.8125962 C12.7189352,23.2852132 13.0996178,23.6684316 13.5696033,23.6684316 C14.0395888,23.6684316 14.4202714,23.2852132 14.4202714,22.8125962 L14.4202714,16.207916 L28.5696408,16.207916 L28.5696408,22.8125962 C28.5696408,23.2852132 28.9503234,23.6684316 29.4203089,23.6684316 C29.8902944,23.6684316 30.2715495,23.2852132 30.2715495,22.8125962 L30.2715495,16.207916 L40.6530203,16.207916 L37.1501684,46.9610472 Z M14.4202714,9.20008779 C14.4202714,5.07180677 17.5870923,1.71224014 21.4952423,1.71224014 C25.4033924,1.71224014 28.5696408,5.07180677 28.5696408,9.20008779 L28.5696408,14.4951064 L14.4202714,14.4951064 L14.4202714,9.20008779 Z M42.2421553,14.7598858 C42.0778607,14.5839357 41.8465889,14.487704 41.6073027,14.4951064 L30.2715495,14.4951064 L30.2715495,9.20008779 C30.2715495,4.12714219 26.3422186,0 21.4952423,0 C16.6482661,0 12.7189352,4.12714219 12.7189352,9.20008779 L12.7189352,14.4951064 L0.850798801,14.4951064 C0.610940169,14.487704 0.379095907,14.5862133 0.216518695,14.7650106 C0.0545139393,14.9432385 -0.0227674814,15.1841023 0.005855267,15.4243967 L3.61747366,47.143261 C3.87107121,49.3508949 5.73498459,51.0124568 7.94294341,50.9999296 L34.5157306,50.9999296 C36.7242619,51.0107486 38.5876028,49.346909 38.8412003,47.1387057 L42.4522463,15.4050365 C42.4797241,15.1698669 42.4024427,14.9335584 42.2421553,14.7598858 Z" id="Stroke-3-Copy"></path>
                </g>
            </g>
        </g>
    </g>
</svg>