<?xml version="1.0" encoding="UTF-8"?>
<svg width="47px" height="47px" viewBox="0 0 47 47" version="1.1" xmlns="http://www.w3.org/2000/svg" xmlns:xlink="http://www.w3.org/1999/xlink">
    <!-- Generator: sketchtool 52.4 (67378) - http://www.bohemiancoding.com/sketch -->
    <title>762F70B2-C009-4046-A023-AC057AA518C0</title>
    <desc>Created with sketchtool.</desc>
    <g id="Page-1" stroke="none" stroke-width="1" fill="none" fill-rule="evenodd">
        <g id="Home_cuponera" transform="translate(-189.000000, -1523.000000)" fill="#FFFFFF">
            <g id="Group-12" transform="translate(189.000000, 1523.000000)">
                <path d="M41.8910747,38.1134892 L5.16534422,1.9016001 C4.91925753,1.65860884 4.58030793,1.5316962 4.23361976,1.54872107 C3.88693159,1.56729365 3.56500685,1.72825601 3.34677903,1.994463 C3.27713185,2.0764919 1.67215134,4.06375803 1.554525,7.43932456 C1.40594435,11.7775699 3.66096519,16.2767775 8.2576789,20.8084872 L17.4572972,29.8796451 C18.251275,30.6612412 19.305269,31.091506 20.4273624,31.091506 C21.5494558,31.091506 22.6034497,30.6612412 23.3974276,29.8796451 C23.4593362,29.8177365 23.5320788,29.8038071 23.5816056,29.8038071 C23.6311325,29.8038071 23.7023274,29.8177365 23.7657837,29.8796451 L25.2531379,31.3453313 C25.3088556,31.4025967 25.2856399,31.5465342 25.2330176,31.6595174 C24.5071392,33.2242574 24.8476366,35.0938971 26.0827132,36.3104012 L34.9015935,45.0054643 C35.8642723,45.9557614 37.1303032,46.4309099 38.3963341,46.4309099 C39.6623651,46.4309099 40.928396,45.9557614 41.8910747,45.0054643 C43.8195277,43.106418 43.8195277,40.0140833 41.8910747,38.1134892 M40.1576339,43.2967869 C39.1872165,44.2532748 37.6069995,44.2532748 36.6350344,43.2967869 L27.816154,34.600176 C27.3038603,34.0940732 27.1599228,33.3171203 27.463275,32.6655322 C27.9585438,31.5991566 27.7697226,30.4089637 26.9865788,29.6366539 L25.4992246,28.1709677 C24.9869309,27.6648649 24.3059363,27.3862762 23.5800579,27.3862762 C22.857275,27.3862762 22.1747327,27.6648649 21.662439,28.1709677 C21.3327757,28.4959879 20.8947723,28.6739751 20.4273624,28.6739751 C19.9615001,28.6739751 19.5219491,28.4959879 19.190738,28.1709677 L9.99266747,19.0998098 C2.87317823,12.080922 3.65322661,6.96572376 4.57411707,4.73856179 L40.1576339,39.8221666 C41.1295989,40.7802023 41.1295989,42.3387513 40.1576339,43.2967869" id="Fill-4"></path>
                <path d="M42.9588433,3.47361428 C42.4542882,2.96905917 41.635547,2.96905917 41.1309919,3.47361428 L32.8816706,11.7229355 C32.3771155,12.2274906 32.3771155,13.0462319 32.8816706,13.550787 C33.1339482,13.8030645 33.4651592,13.9284295 33.7963702,13.9284295 C34.1260335,13.9284295 34.4572446,13.8030645 34.7095221,13.550787 L42.9588433,5.30146576 C43.4633985,4.79691065 43.4633985,3.97816939 42.9588433,3.47361428" id="Fill-6"></path>
                <path d="M38.3534624,0.347075101 C37.8999819,-0.1156917 37.1617218,-0.1156917 36.709789,0.347075101 L29.1430101,8.06398236 C27.9837716,9.24643666 27.2981338,10.7508157 27.2656318,12.188643 L27.2130095,14.3956846 L25.1050216,16.5470086 C24.6499933,17.0097754 24.6499933,17.7619649 25.1050216,18.2247317 C25.330988,18.4568889 25.629697,18.5714199 25.9268583,18.5714199 C26.2255673,18.5714199 26.5227286,18.4568889 26.748695,18.2247317 L29.1863462,15.7375536 C29.3983831,15.5224212 29.5191049,15.2329985 29.5268435,14.9280986 L29.5902998,12.2443607 C29.6104201,11.422524 30.0577097,10.4877041 30.7882313,9.74170548 L38.3534624,2.02479822 C38.8069429,1.56203142 38.8069429,0.809841902 38.3534624,0.347075101" id="Fill-8"></path>
                <path d="M18.2150585,33.221781 C17.7368145,32.7357985 16.9614093,32.7357985 16.484713,33.221781 L6.69231989,43.1952568 C6.22336223,43.6735008 5.59963306,43.93816 4.93411559,43.93816 C4.27014583,43.93816 3.64641667,43.6735008 3.17745901,43.1952568 C2.70695363,42.7170129 2.44848522,42.080902 2.44848522,41.4045505 C2.44848522,40.728199 2.70695363,40.0920881 3.17745901,39.6138442 L12.6278071,29.9870566 C13.1060511,29.4995263 13.1060511,28.7101916 12.6278071,28.2242091 C12.1511109,27.7366789 11.3757056,27.7366789 10.8974617,28.2242091 L1.44711358,37.8509967 C0.513841398,38.7997461 -1.77635684e-14,40.0626816 -1.77635684e-14,41.4060982 C-1.77635684e-14,42.7479672 0.513841398,44.0093549 1.44711358,44.9581043 C2.37729032,45.9084013 3.61701008,46.431529 4.93411559,46.431529 C6.25276882,46.431529 7.49248858,45.9084013 8.42421304,44.9581043 L18.2150585,34.9861762 C18.6933024,34.4986459 18.6933024,33.7077635 18.2150585,33.221781" id="Fill-10"></path>
                <path d="M46.0883232,8.08348357 C45.6301995,7.6238122 44.8857486,7.6238122 44.4260772,8.08348357 L36.7819126,15.7446731 C36.0560342,16.4720992 35.1258575,16.8946254 34.2777096,16.8853391 L31.5150382,16.8435508 C31.2008521,16.8404553 30.8913091,16.9627248 30.6668904,17.1886912 L28.2044757,19.6572967 C27.7448044,20.1169681 27.7448044,20.8629668 28.2044757,21.3226381 C28.4335376,21.5532477 28.7337943,21.6677786 29.034051,21.6677786 C29.3358554,21.6677786 29.6361122,21.5532477 29.8667217,21.3226381 L31.9762573,19.2069117 L34.2421122,19.2409614 C35.731014,19.2641771 37.2601565,18.5955642 38.4441585,17.4084668 L46.0883232,9.74882497 C46.5464468,9.2891536 46.5464468,8.54315494 46.0883232,8.08348357" id="Fill-12"></path>
            </g>
        </g>
    </g>
</svg>