<?xml version="1.0" encoding="UTF-8"?>
<svg width="93px" height="93px" viewBox="0 0 93 93" version="1.1" xmlns="http://www.w3.org/2000/svg" xmlns:xlink="http://www.w3.org/1999/xlink">
    <!-- Generator: sketchtool 54.1 (76490) - https://sketchapp.com -->
    <title>DCE09F73-770F-4A1A-90C8-593E9B678D3C</title>
    <desc>Created with sketchtool.</desc>
    <g id="Page-5--APROBADO" stroke="none" stroke-width="1" fill="none" fill-rule="evenodd">
        <g id="iconos-cuponera" transform="translate(-956.000000, -251.000000)">
            <g id="Group-13" transform="translate(956.000000, 251.000000)">
                <g id="Group-28-Copy" fill="#DA272C">
                    <circle id="Oval-Copy-7" cx="46.5" cy="46.5" r="46.5"></circle>
                </g>
                <g id="Group" transform="translate(32.000000, 16.000000)" fill="#FFFFFF" stroke="#FFFFFF" stroke-width="0.8">
                    <path d="M1.97171802,49.9093323 L11.3609179,49.9093323 L11.3609179,24.4648643 L1.97171802,24.4648643 L1.97171802,49.9093323 Z M3.59470628,22.3734571 L9.73862705,22.3734571 L9.73862705,21.0223252 L3.59470628,21.0223252 L3.59470628,22.3734571 Z M4.47978239,2.15528834 L7.52489059,3.70905302 C8.30395285,4.12541166 8.81519067,4.95812895 8.85982808,5.88402775 L9.67097348,18.9316575 L3.59470628,18.9316575 L3.59470628,2.85784733 C3.58912661,2.5864377 3.71397186,2.33573507 3.92878938,2.18782792 C4.09199491,2.07467894 4.30332514,2.06284637 4.47978239,2.15528834 L4.47978239,2.15528834 Z M11.7103451,22.3734571 L11.7103451,19.9773611 L10.8273613,5.74721363 C10.7373891,4.07364416 9.80139841,2.57164699 8.38276578,1.82693446 L5.33486774,0.271690708 C4.53976391,-0.13727258 3.62051228,-0.0818073959 2.87632299,0.419597864 C2.08261408,0.952803162 1.61392129,1.86612985 1.62298827,2.86154501 L1.62298827,22.3734571 L0.986207738,22.3734571 C0.442189325,22.3734571 0,22.8423228 0,23.4191607 L0,50.9550359 C0,51.5311343 0.442189325,52 0.986207738,52 L12.3478231,52 C12.891144,52 13.3333333,51.5311343 13.3333333,50.9550359 L13.3333333,23.4191607 C13.3333333,22.8423228 12.891144,22.3734571 12.3478231,22.3734571 L11.7103451,22.3734571 Z" id="Fill-1"></path>
                    <path d="M20.6383847,33.0649657 L30.0275845,33.0649657 L30.0275845,30.0510898 L20.6383847,30.0510898 L20.6383847,33.0649657 Z M20.6383847,49.9489102 L30.0275845,49.9489102 L30.0275845,35.116781 L20.6383847,35.116781 L20.6383847,49.9489102 Z M31.0137923,28 L19.6521769,28 C19.108856,28 18.6666667,28.4607153 18.6666667,29.0259077 L18.6666667,50.9748179 C18.6666667,51.5400103 19.108856,52 19.6521769,52 L31.0137923,52 C31.5578107,52 32,51.5400103 32,50.9748179 L32,29.0259077 C32,28.4607153 31.5578107,28 31.0137923,28 L31.0137923,28 Z" id="Fill-3"></path>
                </g>
            </g>
        </g>
    </g>
</svg>