<?xml version="1.0" encoding="UTF-8"?>
<svg width="93px" height="93px" viewBox="0 0 93 93" version="1.1" xmlns="http://www.w3.org/2000/svg" xmlns:xlink="http://www.w3.org/1999/xlink">
    <!-- Generator: sketchtool 54.1 (76490) - https://sketchapp.com -->
    <title>800A83F8-7F33-4823-A8F8-1414BAC4B2B9</title>
    <desc>Created with sketchtool.</desc>
    <g id="Page-5--APROBADO" stroke="none" stroke-width="1" fill="none" fill-rule="evenodd">
        <g id="iconos-cuponera" transform="translate(-579.000000, -251.000000)">
            <g id="Group-11" transform="translate(579.000000, 251.000000)">
                <g id="Group-14-Copy" fill="#DA272C">
                    <circle id="Oval-Copy-5" cx="46.5" cy="46.5" r="46.5"></circle>
                </g>
                <path d="M65.8691406,34.015625 L60.2657676,34.015625 C61.1321465,32.864125 61.6464844,31.4334707 61.6464844,29.8847656 C61.6464844,26.0885059 58.5579785,23 54.7617188,23 C52.4749668,23 50.78875,23.8192871 49.4550332,25.5782988 C48.3392422,27.0499863 47.5233516,29.1047676 46.5,31.7009668 C45.4766484,29.1046758 44.6607578,27.0499863 43.5449668,25.5782988 C42.21125,23.8192871 40.5250332,23 38.2382812,23 C34.4420215,23 31.3535156,26.0885059 31.3535156,29.8847656 C31.3535156,31.4334707 31.8678535,32.864125 32.7342324,34.015625 L27.1308594,34.015625 C24.8531035,34.015625 23,35.8687285 23,38.1464844 L23,40.9003906 C23,42.6954785 24.1512246,44.2260078 25.7539062,44.7944141 L25.7539062,65.8691406 C25.7539062,68.1468965 27.6070098,70 29.8847656,70 L63.1152344,70 C65.3929902,70 67.2460938,68.1468965 67.2460938,65.8691406 L67.2460938,44.7944141 C68.8487754,44.2260078 70,42.6954785 70,40.9003906 L70,38.1464844 C70,35.8687285 68.1468965,34.015625 65.8691406,34.015625 Z M49.0275352,32.7983984 C51.1369355,27.4468242 51.938873,25.7539062 54.7617188,25.7539062 C57.0394746,25.7539062 58.8925781,27.6070098 58.8925781,29.8847656 C58.8925781,32.1625215 57.0394746,34.015625 54.7617188,34.015625 L48.545877,34.015625 C48.7145996,33.5919824 48.8755195,33.1841289 49.0275352,32.7983984 Z M38.2382812,25.7539062 C41.061127,25.7539062 41.8630645,27.4468242 43.9724648,32.7983984 C44.1244805,33.1841289 44.2854004,33.5919824 44.454123,34.015625 L38.2382812,34.015625 C35.9605254,34.015625 34.1074219,32.1625215 34.1074219,29.8847656 C34.1074219,27.6070098 35.9605254,25.7539062 38.2382812,25.7539062 Z M40.9921875,67.2460938 L29.8847656,67.2460938 C29.1255137,67.2460938 28.5078125,66.6283926 28.5078125,65.8691406 L28.5078125,45.03125 L40.9921875,45.03125 L40.9921875,67.2460938 Z M40.9921875,42.2773438 L27.1308594,42.2773438 C26.3716074,42.2773438 25.7539062,41.6596426 25.7539062,40.9003906 L25.7539062,38.1464844 C25.7539062,37.3872324 26.3716074,36.7695312 27.1308594,36.7695312 L40.9921875,36.7695312 L40.9921875,42.2773438 Z M49.2539063,67.2460938 L43.7460938,67.2460938 L43.7460938,36.7695312 C44.0346113,36.7695312 47.6713281,36.7695312 49.2539063,36.7695312 L49.2539063,67.2460938 Z M64.4921875,65.8691406 C64.4921875,66.6283926 63.8744863,67.2460938 63.1152344,67.2460938 L52.0078125,67.2460938 L52.0078125,45.03125 L64.4921875,45.03125 L64.4921875,65.8691406 Z M67.2460937,40.9003906 C67.2460937,41.6596426 66.6283926,42.2773438 65.8691406,42.2773438 L52.0078125,42.2773438 L52.0078125,36.7695312 L65.8691406,36.7695312 C66.6283926,36.7695312 67.2460937,37.3872324 67.2460937,38.1464844 L67.2460937,40.9003906 Z" id="Shape-Copy-6" fill="#FFFFFF" fill-rule="nonzero"></path>
            </g>
        </g>
    </g>
</svg>