<?xml version="1.0" encoding="UTF-8"?>
<svg width="94px" height="94px" viewBox="0 0 94 94" version="1.1" xmlns="http://www.w3.org/2000/svg" xmlns:xlink="http://www.w3.org/1999/xlink">
    <!-- Generator: sketchtool 54.1 (76490) - https://sketchapp.com -->
    <title>0B6E4D0B-541A-4EA7-92DA-B2B03654B1E9</title>
    <desc>Created with sketchtool.</desc>
    <defs>
        <polygon id="path-1" points="1.06447527 0.0127761961 94.5485254 0.0127761961 94.5485254 93.497138 1.06447527 93.497138"></polygon>
    </defs>
    <g id="Page-2" stroke="none" stroke-width="1" fill="none" fill-rule="evenodd">
        <g id="iconos" transform="translate(-1815.000000, -93.000000)">
            <g id="Group-11" transform="translate(1814.000000, 93.000000)">
                <g id="Group-73" transform="translate(0.000000, 0.000000)">
                    <mask id="mask-2" fill="white">
                        <use xlink:href="#path-1"></use>
                    </mask>
                    <g id="Clip-72"></g>
                    <path d="M47.8066562,93.497138 C73.6223627,93.497138 94.5488371,72.5691055 94.5488371,46.7549571 C94.5488371,20.9392506 73.6223627,0.0127761961 47.8066562,0.0127761961 C21.9925077,0.0127761961 1.06447527,20.9392506 1.06447527,46.7549571 C1.06447527,72.5691055 21.9925077,93.497138 47.8066562,93.497138" id="Fill-71" fill="#E5336A" mask="url(#mask-2)"></path>
                </g>
                <path d="M54.9805133,64.0412024 L55.1581336,64.0412024 C55.7782465,64.0412024 56.281504,63.5379449 56.281504,62.917832 L56.281504,36.9915023 C56.281504,36.3713893 55.7782465,35.8681319 55.1581336,35.8681319 L54.9805133,35.8681319 C54.3619584,35.8681319 53.8571429,36.3713893 53.8571429,36.9915023 L53.8571429,62.917832 C53.8571429,63.5379449 54.3619584,64.0412024 54.9805133,64.0412024" id="Fill-80" fill="#FFFFFF"></path>
                <path d="M47.5958979,64.0412024 L47.7735182,64.0412024 C48.3936311,64.0412024 48.8968886,63.5379449 48.8968886,62.917832 L48.8968886,36.9915023 C48.8968886,36.3713893 48.3936311,35.8681319 47.7735182,35.8681319 L47.5958979,35.8681319 C46.977343,35.8681319 46.4725275,36.3713893 46.4725275,36.9915023 L46.4725275,62.917832 C46.4725275,63.5379449 46.977343,64.0412024 47.5958979,64.0412024" id="Fill-82" fill="#FFFFFF"></path>
                <path d="M56.4093958,74.3013708 L58.4208676,74.3013708 L58.4208676,75.3078857 C58.4208676,75.6241745 58.3678932,76.0199249 58.1186015,76.1040609 L58.0593948,76.1367804 C57.8256839,76.3128426 57.5888568,76.3128426 57.4159107,76.3128426 C57.2414066,76.3128426 57.0030215,76.3128426 56.7708686,76.1367804 L56.7116619,76.1040609 C56.4623702,76.0183669 56.4093958,75.6241745 56.4093958,75.3078857 L56.4093958,74.3013708 Z M37.4912771,30.0676869 L34.9313637,31.3468646 C34.5667746,31.5291591 34.3408541,31.8953062 34.3408541,32.3035212 L34.3408541,41.4571983 C34.3408541,42.0477079 34.8222986,42.5275943 35.41125,42.5275943 L38.4167723,42.5275943 L38.4167723,63.4275814 C38.4167723,64.0959946 38.9605396,64.639762 39.6694627,64.639762 C40.3378759,64.639762 40.8816433,64.0959946 40.8816433,63.4275814 L40.8816433,42.5275943 L41.710538,42.5275943 C42.3010475,42.5275943 42.7809339,42.0477079 42.7809339,41.4571983 L42.7809339,32.3035212 C42.7809339,31.8968642 42.5534553,31.5291591 42.1904243,31.3468646 L39.6305109,30.0676869 L39.6305109,28.5501241 L59.0892808,28.5501241 C60.5382884,28.5501241 61.6943784,29.0019652 62.6214316,29.9290184 C63.4331875,30.7407743 64.000326,32.1165525 64.000326,33.2757586 L64.000326,66.9379192 C64.000326,68.1391932 63.5422526,69.3217704 62.6401285,70.449815 L62.5622249,70.5464156 L62.3581173,70.5464156 L62.2973525,70.6025062 C61.4357383,71.3955652 60.2656257,71.8489643 59.0892808,71.8489643 L36.9568582,71.8489643 C35.7057258,71.8489643 34.4873129,71.3472649 33.610118,70.47007 C32.5724416,69.4323936 32.045813,68.2435841 32.045813,66.9379192 L32.045813,33.2757586 C32.045813,32.0433231 32.667484,30.7033806 33.6225826,29.9118796 C34.3657833,29.0081975 35.4875956,28.5501241 36.9568582,28.5501241 L37.4912771,28.5501241 L37.4912771,30.0676869 Z M36.4800879,40.3883604 L36.4800879,32.9657021 L38.560115,31.9249096 L40.6417001,32.9657021 L40.6417001,40.3883604 L36.4800879,40.3883604 Z M41.7167702,17.0468734 C41.7167702,16.5062221 41.8803679,16.03101 42.1654952,15.7458827 C42.5861748,15.325203 43.0239932,15.1117471 43.4664859,15.1117471 L52.5796531,15.1117471 C53.84325,15.1117471 54.5147794,16.2351175 54.5147794,17.0468734 L54.5147794,17.2026806 L41.7167702,17.2026806 L41.7167702,17.0468734 Z M41.7167702,25.9107489 L54.5147794,25.9107489 L54.5147794,19.8171266 L41.7167702,19.8171266 L41.7167702,25.9107489 Z M39.6367432,74.3013708 L39.6367432,75.3078857 C39.6367432,75.6241745 39.5837687,76.0183669 39.3344771,76.1040609 L39.2737123,76.1367804 C39.0431175,76.3128426 38.8047324,76.3128426 38.6302282,76.3128426 C38.4276788,76.3128426 38.1503418,76.3128426 37.8870276,76.0495283 L37.8574242,76.0199249 L37.8387273,75.9825312 C37.7358945,75.7753075 37.6252713,75.4917383 37.6252713,75.3078857 L37.6252713,74.3013708 L39.6367432,74.3013708 Z M64.2979178,28.0671216 C62.908117,26.6773207 61.0571266,25.9107489 59.0892808,25.9107489 L56.9671858,25.9107489 L56.9671858,17.0468734 C56.9671858,15.7988571 55.663079,12.6593407 52.5796531,12.6593407 L43.4664859,12.6593407 C42.354022,12.6593407 41.2680453,13.1065075 40.489009,13.8839858 C39.5526073,14.8219456 39.0773951,15.8861092 39.0773951,17.0468734 L39.0773951,25.9107489 L36.9568582,25.9107489 C34.7007689,25.9107489 32.8856142,27.0777454 31.7388727,28.0780281 C30.760403,29.2045146 29.5934066,31.0196693 29.5934066,33.2757586 L29.5934066,66.9379192 C29.5934066,68.820071 30.4191851,70.8175202 31.7482211,72.1465562 C32.7282489,73.1265839 33.8173417,73.791881 34.9827801,74.1253085 L35.1728649,74.1798411 L35.1728649,75.3078857 C35.1728649,76.3595848 35.5125248,77.2118505 36.2120994,77.9114252 C36.8820707,78.5829545 37.7421268,78.9506597 38.6302282,78.9506597 C39.6834854,78.9506597 40.5357511,78.6109998 41.2353258,77.9114252 C41.9349004,77.2118505 42.2745603,76.3595848 42.2745603,75.3078857 L42.2745603,74.3013708 L53.7715787,74.3013708 L53.7715787,75.3078857 C53.7715787,76.2224744 54.1829099,77.0981112 54.9853173,77.9005187 L55.0195949,77.9394705 C55.6474982,78.7761555 56.6695939,78.9506597 57.4159107,78.9506597 C58.4551452,78.9506597 59.2996206,78.6187902 60.0163341,77.9114252 C60.5024527,77.2601508 61.0586847,76.3751655 61.0586847,75.3078857 L61.0586847,74.1891895 L61.2378631,74.1299828 C62.1088257,73.8386232 63.0841792,73.2761589 64.1389944,72.4550546 L64.2215723,72.3911736 L64.2215723,72.2119953 L64.3103824,72.1340916 C65.651883,70.9608629 66.4527324,69.0179462 66.4527324,66.9379192 L66.4527324,33.2757586 C66.4527324,31.2783094 65.7079736,29.4756193 64.2979178,28.0671216 L64.2979178,28.0671216 Z" id="Fill-84" fill="#FFFFFF"></path>
            </g>
        </g>
    </g>
</svg>