<?xml version="1.0" encoding="UTF-8"?>
<svg width="96px" height="96px" viewBox="0 0 96 96" version="1.1" xmlns="http://www.w3.org/2000/svg" xmlns:xlink="http://www.w3.org/1999/xlink">
    <!-- Generator: sketchtool 54.1 (76490) - https://sketchapp.com -->
    <title>FFA133B0-04BC-4AFF-9D19-AE297D16058F</title>
    <desc>Created with sketchtool.</desc>
    <defs>
        <polygon id="path-1" points="0.000309543011 0 95.9583333 0 95.9583333 95.9581786 0.000309543011 95.9581786"></polygon>
    </defs>
    <g id="Page-2" stroke="none" stroke-width="1" fill="none" fill-rule="evenodd">
        <g id="iconos" transform="translate(-1248.000000, -598.000000)">
            <g id="Group-20-Copy" transform="translate(1248.000000, 598.000000)">
                <g id="Group-3">
                    <g id="Group-27">
                        <mask id="mask-2" fill="white">
                            <use xlink:href="#path-1"></use>
                        </mask>
                        <g id="Clip-2"></g>
                        <path d="M47.9794762,3.09527534 C23.2299648,3.09527534 3.09573965,23.2310482 3.09573965,47.9790119 C3.09573965,72.7269756 23.2299648,92.8627485 47.9794762,92.8627485 C72.7289876,92.8627485 92.8632128,72.7269756 92.8632128,47.9790119 C92.8632128,23.2310482 72.7289876,3.09527534 47.9794762,3.09527534 M47.9794762,95.9581786 C21.5243828,95.9581786 0.000309543011,74.435653 0.000309543011,47.9790119 C0.000309543011,21.5223708 21.5243828,-0.000154771505 47.9794762,-0.000154771505 C74.4345696,-0.000154771505 95.9586429,21.5223708 95.9586429,47.9790119 C95.9586429,74.435653 74.4345696,95.9581786 47.9794762,95.9581786" id="Fill-1" fill="#FFFFFF" mask="url(#mask-2)"></path>
                        <path d="M55.5019905,30.3050346 C55.0577962,27.1461482 52.3492949,24.762667 49.2027902,24.762667 C47.1783789,24.762667 45.2561168,25.7547524 44.0597331,27.4169983 C43.8167418,27.7559479 43.8894844,28.2310964 44.2237909,28.4787308 C44.5565496,28.7248175 45.0255073,28.6536226 45.2700462,28.3131253 C46.1831981,27.0424513 47.6535274,26.2840709 49.2027902,26.2840709 C51.6094871,26.2840709 53.6803298,28.1041838 54.0192794,30.5186193 C54.0734495,30.8978095 54.3938265,31.171755 54.7606349,31.171755 C54.7946847,31.171755 54.8302821,31.1702073 54.8658796,31.1640165 C55.2760241,31.1052033 55.5608036,30.7198222 55.5019905,30.3050346" id="Fill-4" fill="#FFFFFF" mask="url(#mask-2)"></path>
                        <path d="M62.0805533,31.8988716 C61.9768564,31.7270752 61.8081554,31.6063534 61.6146911,31.559922 L51.409058,29.1362002 C51.2155936,29.0913165 51.0128429,29.1253662 50.844142,29.2306108 C50.6754411,29.3374032 50.5547193,29.5076518 50.5098356,29.7042116 L49.7406212,33.0441807 C49.6462106,33.4512298 49.8953927,33.8613743 50.2993463,33.9557849 C50.7002045,34.0517432 51.1041581,33.7979179 51.1985687,33.3893212 L51.7975345,30.7891599 L60.54522,32.8661935 L59.170849,38.832635 C59.0764384,39.2427795 59.3256205,39.6513763 59.7280264,39.7457869 C59.7868396,39.7597163 59.844105,39.7659072 59.8998228,39.7659072 C60.2403201,39.7659072 60.5483154,39.5306545 60.6287966,39.1793232 L62.1734162,32.4730739 C62.2182999,32.276514 62.1857979,32.0706679 62.0805533,31.8988716" id="Fill-6" fill="#FFFFFF" mask="url(#mask-2)"></path>
                        <path d="M49.9065362,34.1939782 L49.2239939,28.3358767 C49.2007782,28.1362215 49.1001767,27.9535911 48.9438575,27.8282262 C48.7875382,27.704409 48.5909784,27.6471435 48.3928709,27.6703593 L35.8718561,29.1731906 C35.4617116,29.2227175 35.1676458,29.6003599 35.2156249,30.0166953 L36.3531955,39.7874204 C36.3980792,40.1728015 36.7215517,40.457581 37.0960987,40.457581 C37.1255053,40.457581 37.1549119,40.4560333 37.1843185,40.4529379 C37.594463,40.403411 37.8885288,40.0257685 37.8405497,39.6094332 L36.7896511,30.5924453 L47.8248595,29.2691489 L48.4191821,34.3719655 C48.4687089,34.7883008 48.8386128,35.0854621 49.250305,35.0374829 C49.6604495,34.987956 49.9545154,34.6118613 49.9065362,34.1939782" id="Fill-8" fill="#FFFFFF" mask="url(#mask-2)"></path>
                        <path d="M54.5868265,38.8741138 L53.1010201,32.5996769 C53.0545886,32.4046649 52.9338669,32.2344162 52.7636182,32.1291716 C52.5949173,32.0254747 52.3921666,31.9929726 52.1987022,32.0394041 L40.1373588,34.9831581 C39.7349529,35.0822119 39.4873185,35.4923564 39.5848245,35.9009532 L40.3277278,39.0366239 C40.4236861,39.4452206 40.8276397,39.6959505 41.2300456,39.5968967 C41.6309038,39.4993907 41.880086,39.0892462 41.7825799,38.6806494 L41.2145685,36.2847865 L51.819512,33.6954592 L53.1304267,39.2285405 C53.2124556,39.5783241 53.5204509,39.8120291 53.8578528,39.8120291 C53.9166659,39.8120291 53.9739314,39.8058382 54.0342923,39.7903611 C54.4351505,39.692855 54.6827849,39.2827106 54.5868265,38.8741138" id="Fill-10" fill="#FFFFFF" mask="url(#mask-2)"></path>
                        <path d="M43.2600287,43.6260633 C42.0218567,43.6260633 41.0142942,44.649103 41.0142942,45.9058476 C41.0142942,47.1641399 42.0218567,48.1871796 43.2600287,48.1871796 C44.4982007,48.1871796 45.5057632,47.1641399 45.5057632,45.9058476 C45.5057632,44.649103 44.4982007,43.6260633 43.2600287,43.6260633 M43.2600287,46.6657757 C42.8467888,46.6657757 42.5124823,46.3252784 42.5124823,45.9073953 C42.5124823,45.4879645 42.8467888,45.1459195 43.2600287,45.1459195 C43.6732686,45.1459195 44.0091228,45.4879645 44.0091228,45.9073953 C44.0091228,46.3252784 43.6732686,46.6657757 43.2600287,46.6657757" id="Fill-12" fill="#FFFFFF" mask="url(#mask-2)"></path>
                        <path d="M54.8678916,43.6260633 C53.6297196,43.6260633 52.6221571,44.649103 52.6221571,45.9058476 C52.6221571,47.1641399 53.6297196,48.1871796 54.8678916,48.1871796 C56.1060636,48.1871796 57.1136261,47.1641399 57.1136261,45.9058476 C57.1136261,44.649103 56.1060636,43.6260633 54.8678916,43.6260633 M54.8678916,46.6657757 C54.4546517,46.6657757 54.1203452,46.3252784 54.1203452,45.9073953 C54.1203452,45.4879645 54.4546517,45.1459195 54.8678916,45.1459195 C55.2811315,45.1459195 55.6169857,45.4879645 55.6169857,45.9073953 C55.6169857,46.3252784 55.2811315,46.6657757 54.8678916,46.6657757" id="Fill-14" fill="#FFFFFF" mask="url(#mask-2)"></path>
                        <path d="M54.4439724,46.528029 L54.386707,46.528029 C53.9734671,46.528029 53.6376129,46.8685263 53.6376129,47.2879571 C53.6376129,47.391654 53.6577332,47.4907078 53.6948784,47.582023 L53.6948784,51.4683355 C53.6948784,54.192314 51.5126001,56.4086419 48.8288622,56.4086419 C46.1451243,56.4086419 43.9628461,54.192314 43.9628461,51.4683355 L43.9628461,47.2879571 C43.9628461,46.8685263 43.6269919,46.528029 43.213752,46.528029 C42.8005121,46.528029 42.4662056,46.8685263 42.4662056,47.2879571 L42.4662056,51.4683355 C42.4662056,55.0311755 45.3201922,57.9284981 48.8288622,57.9284981 C52.3375323,57.9284981 55.1930665,55.0311755 55.1930665,51.4683355 L55.1930665,47.2879571 C55.1930665,46.8685263 54.8572124,46.528029 54.4439724,46.528029" id="Fill-16" fill="#FFFFFF" mask="url(#mask-2)"></path>
                        <path d="M65.4796581,39.7406009 C65.4592334,39.3258008 65.1245817,39 64.7208001,39 L31.2807706,39 C30.8754179,39 30.5423374,39.3258008 30.5219126,39.7406009 L29.0010543,70.1783462 C28.9900564,70.3928979 29.0654708,70.6010926 29.2100152,70.7568413 C29.3529885,70.9110007 29.5525226,71 29.7599123,71 L66.2400873,71 C66.447477,71 66.6470111,70.91259 66.7915555,70.7568413 C66.9345288,70.6010926 67.0099432,70.3928979 66.9989453,70.1783462 L65.4796581,39.7406009 Z M31,69 L32.4058826,41 L63.5941174,41 L65,69 L31,69 Z" id="Fill-18" fill="#FFFFFF" mask="url(#mask-2)"></path>
                    </g>
                </g>
            </g>
        </g>
    </g>
</svg>