<?xml version="1.0" encoding="UTF-8"?>
<svg width="93px" height="93px" viewBox="0 0 93 93" version="1.1" xmlns="http://www.w3.org/2000/svg" xmlns:xlink="http://www.w3.org/1999/xlink">
    <!-- Generator: sketchtool 54.1 (76490) - https://sketchapp.com -->
    <title>5A3A0462-476C-4002-A901-1C6AB2D1BA3D</title>
    <desc>Created with sketchtool.</desc>
    <g id="Page-5-HOME-APROBADO" stroke="none" stroke-width="1" fill="none" fill-rule="evenodd">
        <g id="Home_cuponera_02" transform="translate(-956.000000, -502.000000)">
            <g id="Group-28" transform="translate(956.000000, 502.000000)">
                <circle id="Oval-Copy-7" fill="#FFFFFF" cx="46.5" cy="46.5" r="46.5"></circle>
                <g id="Group-3" transform="translate(26.000000, 20.000000)" fill="#DA272C">
                    <g id="Group-27">
                        <path d="M27.1268357,6.30503461 C26.6826415,3.14614819 23.9741401,0.762667003 20.8276354,0.762667003 C18.8032241,0.762667003 16.880962,1.75475235 15.6845783,3.41699832 C15.441587,3.75594792 15.5143296,4.23109644 15.8486361,4.47873085 C16.1813948,4.72481754 16.6503525,4.65362265 16.8948915,4.31312534 C17.8080433,3.04245128 19.2783726,2.2840709 20.8276354,2.2840709 C23.2343323,2.2840709 25.3051751,4.1041838 25.6441247,6.51861929 C25.6982947,6.89780948 26.0186717,7.17175504 26.3854802,7.17175504 C26.4195299,7.17175504 26.4551274,7.17020733 26.4907248,7.16401647 C26.9008693,7.10520329 27.1856489,6.71982224 27.1268357,6.30503461" id="Fill-4"></path>
                        <path d="M33.7053985,7.89887157 C33.6017016,7.7270752 33.4330007,7.60635343 33.2395363,7.55992198 L23.0339032,5.1362002 C22.8404388,5.09131647 22.6376882,5.1253662 22.4689872,5.23061082 C22.3002863,5.33740316 22.1795645,5.50765181 22.1346808,5.70421163 L21.3654664,9.04418071 C21.2710558,9.45122977 21.5202379,9.86137426 21.9241915,9.95578488 C22.3250497,10.0517432 22.7290034,9.79791794 22.823414,9.38932117 L23.4223797,6.78915988 L32.1700652,8.86619348 L30.7956942,14.832635 C30.7012836,15.2427795 30.9504657,15.6513763 31.3528716,15.7457869 C31.4116848,15.7597163 31.4689503,15.7659072 31.524668,15.7659072 C31.8651653,15.7659072 32.1731606,15.5306545 32.2536418,15.1793232 L33.7982614,8.47307386 C33.8431452,8.27651405 33.8106431,8.07066794 33.7053985,7.89887157" id="Fill-6"></path>
                        <path d="M21.5313815,10.1939782 L20.8488391,4.33587675 C20.8256234,4.13622151 20.7250219,3.95359113 20.5687027,3.82822621 C20.4123835,3.70440901 20.2158237,3.64714355 20.0177161,3.67035927 L7.49670134,5.17319059 C7.08655685,5.22271747 6.79249099,5.60035995 6.84047016,6.0166953 L7.97804073,15.7874204 C8.02292446,16.1728015 8.34639691,16.457581 8.72094395,16.457581 C8.75035054,16.457581 8.77975712,16.4560333 8.80916371,16.4529379 C9.2193082,16.403411 9.51337406,16.0257685 9.46539489,15.6094332 L8.41449637,6.5924453 L19.4497047,5.26914892 L20.0440273,10.3719655 C20.0935542,10.7883008 20.4634581,11.0854621 20.8751503,11.0374829 C21.2852948,10.987956 21.5793606,10.6118613 21.5313815,10.1939782" id="Fill-8"></path>
                        <path d="M26.2116718,14.8741138 L24.7258653,8.59967695 C24.6794339,8.40466485 24.5587121,8.2344162 24.3884634,8.12917157 C24.2197625,8.02547466 24.0170118,7.99297265 23.8235474,8.0394041 L11.762204,10.9831581 C11.3597981,11.0822119 11.1121637,11.4923564 11.2096698,11.9009532 L11.952573,15.0366239 C12.0485313,15.4452206 12.4524849,15.6959505 12.8548909,15.5968967 C13.2557491,15.4993907 13.5049312,15.0892462 13.4074251,14.6806494 L12.8394137,12.2847865 L23.4443573,9.69545921 L24.7552719,15.2285405 C24.8373008,15.5783241 25.1452961,15.8120291 25.482698,15.8120291 C25.5415112,15.8120291 25.5987766,15.8058382 25.6591375,15.7903611 C26.0599957,15.692855 26.3076301,15.2827106 26.2116718,14.8741138" id="Fill-10"></path>
                        <path d="M14.8848739,19.6260633 C13.6467019,19.6260633 12.6391394,20.649103 12.6391394,21.9058476 C12.6391394,23.1641399 13.6467019,24.1871796 14.8848739,24.1871796 C16.123046,24.1871796 17.1306085,23.1641399 17.1306085,21.9058476 C17.1306085,20.649103 16.123046,19.6260633 14.8848739,19.6260633 M14.8848739,22.6657757 C14.471634,22.6657757 14.1373276,22.3252784 14.1373276,21.9073953 C14.1373276,21.4879645 14.471634,21.1459195 14.8848739,21.1459195 C15.2981138,21.1459195 15.633968,21.4879645 15.633968,21.9073953 C15.633968,22.3252784 15.2981138,22.6657757 14.8848739,22.6657757" id="Fill-12"></path>
                        <path d="M26.4927368,19.6260633 C25.2545648,19.6260633 24.2470023,20.649103 24.2470023,21.9058476 C24.2470023,23.1641399 25.2545648,24.1871796 26.4927368,24.1871796 C27.7309089,24.1871796 28.7384714,23.1641399 28.7384714,21.9058476 C28.7384714,20.649103 27.7309089,19.6260633 26.4927368,19.6260633 M26.4927368,22.6657757 C26.0794969,22.6657757 25.7451905,22.3252784 25.7451905,21.9073953 C25.7451905,21.4879645 26.0794969,21.1459195 26.4927368,21.1459195 C26.9059767,21.1459195 27.2418309,21.4879645 27.2418309,21.9073953 C27.2418309,22.3252784 26.9059767,22.6657757 26.4927368,22.6657757" id="Fill-14"></path>
                        <path d="M26.0688177,22.528029 L26.0115522,22.528029 C25.5983123,22.528029 25.2624581,22.8685263 25.2624581,23.2879571 C25.2624581,23.391654 25.2825784,23.4907078 25.3197236,23.582023 L25.3197236,27.4683355 C25.3197236,30.192314 23.1374454,32.4086419 20.4537075,32.4086419 C17.7699696,32.4086419 15.5876913,30.192314 15.5876913,27.4683355 L15.5876913,23.2879571 C15.5876913,22.8685263 15.2518372,22.528029 14.8385972,22.528029 C14.4253573,22.528029 14.0910509,22.8685263 14.0910509,23.2879571 L14.0910509,27.4683355 C14.0910509,31.0311755 16.9450374,33.9284981 20.4537075,33.9284981 C23.9623775,33.9284981 26.8179118,31.0311755 26.8179118,27.4683355 L26.8179118,23.2879571 C26.8179118,22.8685263 26.4820576,22.528029 26.0688177,22.528029" id="Fill-16"></path>
                        <path d="M37.1045033,15.7406009 C37.0840786,15.3258008 36.7494269,15 36.3456453,15 L2.90561587,15 C2.50026314,15 2.1671826,15.3258008 2.14675785,15.7406009 L0.625899529,46.1783462 C0.614901586,46.3928979 0.690316049,46.6010926 0.834860434,46.7568413 C0.977833686,46.9110007 1.17736778,47 1.38475755,47 L37.8649325,47 C38.0723223,47 38.2718564,46.91259 38.4164007,46.7568413 C38.559374,46.6010926 38.6347885,46.3928979 38.6237905,46.1783462 L37.1045033,15.7406009 Z M2.62484523,45 L4.03072785,17 L35.2189626,17 L36.6248452,45 L2.62484523,45 Z" id="Fill-18"></path>
                    </g>
                </g>
            </g>
        </g>
    </g>
</svg>