<?xml version="1.0" encoding="UTF-8"?>
<svg width="97px" height="96px" viewBox="0 0 97 96" version="1.1" xmlns="http://www.w3.org/2000/svg" xmlns:xlink="http://www.w3.org/1999/xlink">
    <!-- Generator: sketchtool 52.4 (67378) - http://www.bohemiancoding.com/sketch -->
    <title>844C2695-0450-49B9-B2AC-07EA86B58F34</title>
    <desc>Created with sketchtool.</desc>
    <g id="Page-1" stroke="none" stroke-width="1" fill="none" fill-rule="evenodd">
        <g id="Home_cuponera-seccion" transform="translate(-885.000000, -542.000000)">
            <g id="Group-5" transform="translate(246.000000, 542.000000)">
                <g id="Group-8" transform="translate(639.375000, 0.000000)">
                    <g id="Group-28">
                        <g id="Group-3" fill="#53CDF2">
                            <path d="M47.9793214,95.9581786 C21.524228,95.9581786 0.000154771505,74.435653 0.000154771505,47.9790119 C0.000154771505,21.5223708 21.524228,-0.000154771505 47.9793214,-0.000154771505 C74.4344149,-0.000154771505 95.9584881,21.5223708 95.9584881,47.9790119 C95.9584881,74.435653 74.4344149,95.9581786 47.9793214,95.9581786" id="Fill-1"></path>
                        </g>
                        <g id="Group-27" transform="translate(24.000000, 24.000000)" fill="#FFFFFF">
                            <path d="M44.2916886,24.6736264 C42.7888573,23.4493838 40.4146624,23.3441392 38.8561133,24.9986466 L34.9868257,29.10783 C34.4869137,27.516779 32.9856301,26.3590881 31.2150441,26.3590881 L24.3106872,26.3590881 C23.7860118,26.3590881 23.61112,26.1609806 22.7010636,25.4676042 C19.2310864,22.475871 14.0199298,22.4836096 10.5607867,25.4954631 L8.02253401,27.7056002 C6.88186801,27.1097299 5.54928535,27.0942528 4.40242849,27.6622642 L1.49117648,29.1000915 C0.841136156,29.4220162 0.578024597,30.20516 0.903044758,30.8490095 L8.80103468,46.4747407 C9.12605484,47.1185901 9.91693723,47.3786062 10.5669776,47.0566815 L13.4782296,45.6173065 C14.9129614,44.908453 15.7115824,43.4597917 15.6589601,41.986367 L31.2150441,41.986367 C34.0999849,41.986367 36.8564655,40.62283 38.5868109,38.3399503 L44.9061315,30.0039571 C46.1319218,28.3881425 45.9369097,26.0185908 44.2916886,24.6736264 M12.3004184,43.2879954 L10.5669776,44.1454295 L3.84525108,30.8490095 L5.58023965,29.9915753 C6.23027997,29.6696506 7.01961465,29.9296667 7.34463481,30.5735162 L12.8885501,41.5406251 C13.2135703,42.1844745 12.9504587,42.9660706 12.3004184,43.2879954 M42.7996913,28.4407649 L36.4803707,36.7767581 C35.2437464,38.4080498 33.2750528,39.3815626 31.2150441,39.3815626 L14.7411651,39.3815626 L9.80859718,29.6201237 L12.2988707,27.4517749 C14.7783102,25.2942601 18.5175898,25.2942601 20.9954816,27.4517749 C22.4565246,28.722449 23.3650333,28.9638925 24.3106872,28.9638925 L31.2150441,28.9638925 C31.9409224,28.9638925 32.5306019,29.5473811 32.5306019,30.2655209 C32.5306019,30.9836607 31.9409224,31.568697 31.2150441,31.568697 L24.4917699,31.568697 C23.7658915,31.568697 23.1762121,32.1521856 23.1762121,32.8703253 C23.1762121,33.5884651 23.7658915,34.1719537 24.4917699,34.1719537 L32.0972417,34.1719537 C33.1899285,34.1719537 34.2423747,33.7200209 34.9868257,32.9275908 L40.7814708,26.7738757 C41.3123371,26.2120552 42.1248875,26.2584866 42.6232517,26.6902991 C43.1448317,27.1406842 43.2005495,27.912994 42.7996913,28.4407649" id="Fill-4"></path>
                            <path d="M28.3610575,9.4413244 C29.2107531,8.52817251 29.7338808,7.29464362 29.7338808,5.93420208 C29.7338808,3.13593327 27.5268391,0.763286089 24.7688109,0.763286089 C22.0324507,0.763286089 19.7217121,3.13129012 19.7217121,5.93420208 C19.7217121,7.25285531 20.2262672,8.49721821 21.1409668,9.4521584 C18.8704688,10.7553345 17.2391772,13.2579897 17.2391772,16.1940052 L17.2391772,17.4662269 C17.2391772,18.1673419 17.7948069,18.736901 18.4804446,18.736901 L30.9751483,18.736901 C31.660786,18.736901 32.2164157,18.1673419 32.2164157,17.4662269 L32.2164157,16.1940052 C32.2164157,13.3152552 30.6717961,10.7739071 28.3610575,9.4413244 Z M24.7688109,3.30772964 C26.115323,3.30772964 27.2513458,4.51030423 27.2513458,5.93420208 C27.2513458,7.33797964 26.1385387,8.47864563 24.7688109,8.47864563 C23.3789628,8.47864563 22.204247,7.3132162 22.204247,5.93420208 C22.204247,4.53506767 23.4037262,3.30772964 24.7688109,3.30772964 Z M19.7217121,16.1940052 C19.7217121,13.3895455 22.0324507,11.0215415 24.7688109,11.0215415 C27.5067188,11.0215415 29.7338808,13.3415663 29.7338808,16.1940052 L19.7217121,16.1940052 Z" id="Fill-6"></path>
                        </g>
                    </g>
                </g>
            </g>
        </g>
    </g>
</svg>