<?xml version="1.0" encoding="UTF-8"?>
<svg width="59px" height="58px" viewBox="0 0 59 58" version="1.1" xmlns="http://www.w3.org/2000/svg" xmlns:xlink="http://www.w3.org/1999/xlink">
    <!-- Generator: sketchtool 54.1 (76490) - https://sketchapp.com -->
    <title>E6980C15-6538-42B2-9FDE-95C98FF8EAD9</title>
    <desc>Created with sketchtool.</desc>
    <g id="Page-5--APROBADO" stroke="none" stroke-width="1" fill="none" fill-rule="evenodd">
        <g id="iconos-cuponera" transform="translate(-216.000000, -504.000000)">
            <g id="Group-19" transform="translate(216.000000, 504.000000)">
                <ellipse id="Oval-Copy-16" fill="#FFFFFF" cx="29.5" cy="29" rx="29.5" ry="29"></ellipse>
                <g id="Icono/rojo/comida-rapida" transform="translate(10.000000, 9.000000)" fill="#DA272C" fill-rule="nonzero">
                    <path d="M37.5,27.1428571 C37.5,25.9612857 36.5800195,25 35.4492188,25 L34.765625,25 L34.765625,22.6978571 C34.7937891,22.6722857 34.8225,22.6477857 34.8501855,22.6214286 C35.2939063,22.1987857 36.2207227,21.9285714 36.8250195,21.9205714 C37.2025,21.9156429 37.5047168,21.5917857 37.4999316,21.1973571 C37.4952148,20.806 37.190127,20.4920714 36.816543,20.4920714 C36.8136719,20.4920714 36.8106641,20.4920714 36.807793,20.4921429 C36.2212012,20.4998571 35.4418359,20.6625714 34.765625,20.9966429 L34.765625,19.1242857 C35.5979688,18.7683571 36.1513379,17.8729286 36.0325293,16.8789286 C35.2261621,10.1068571 29.6855664,5 23.1445313,5 L16.8554688,5 C10.3144336,5 4.77383789,10.1068571 3.9674707,16.8786429 C3.84900391,17.8697143 4.39861328,18.767 5.234375,19.1243571 L5.234375,20.9651429 C4.55563477,20.6438571 3.77442383,20.4831429 3.17463867,20.4921429 C2.7971582,20.4972857 2.49514648,20.8212857 2.50006836,21.2157857 C2.50499023,21.6070714 2.81007813,21.9206429 3.18345703,21.9206429 C3.18646484,21.9206429 3.18954102,21.9206429 3.19261719,21.9205714 C3.80388672,21.9107857 4.75271484,22.1776429 5.21550781,22.6187143 C5.22166016,22.6246429 5.22822266,22.6302143 5.23444336,22.6360714 L5.23444336,25 L4.55078125,25 C3.41779297,25 2.5,25.9588571 2.5,27.1428571 C2.5,28.2046429 3.24306641,29.0880714 4.21431641,29.2563571 C4.05456055,29.697 4.04307617,30.1784286 4.19121094,30.6358571 C5.03845703,33.2461429 7.3806543,35 10.0195313,35 L29.9804688,35 C32.6193457,35 34.961543,33.2461429 35.8089941,30.6354286 C35.9569922,30.1784286 35.9455078,29.6972143 35.7858203,29.2566429 C36.73875,29.0929286 37.5,28.2264286 37.5,27.1428571 Z M5.32413086,17.0552857 C6.0455957,10.9970714 11.0029492,6.42857143 16.8554688,6.42857143 L23.1445313,6.42857143 C28.9970508,6.42857143 33.9544043,10.9970714 34.6758691,17.0556429 C34.7252246,17.4684286 34.4169922,17.8278571 34.0362988,17.8545 C34.0317871,17.8547857 34.0272754,17.8552143 34.0227637,17.8556429 C34.0110742,17.8567143 33.9993848,17.8571429 33.9876953,17.8571429 L6.01230469,17.8571429 C5.60966797,17.8571429 5.27265625,17.4867143 5.32413086,17.0552857 Z M30.7486914,21.5657143 C29.2464941,20.1343571 27.2280469,20.1343571 25.7258496,21.5657143 C24.7449609,22.5002857 23.5263867,22.5002857 22.5455664,21.5657143 C21.0433691,20.1343571 19.0249219,20.1343571 17.5227246,21.5657143 C16.5418359,22.5002857 15.3232617,22.5002857 14.3424414,21.5657143 C12.8402441,20.1344286 10.8217969,20.1342857 9.31946289,21.5658571 C8.48814453,22.3585714 7.4922168,22.4843571 6.6015625,21.9267857 L6.6015625,19.2857143 L33.3984375,19.2857143 L33.3984375,21.9682143 C32.5262402,22.4752857 31.5559473,22.3349286 30.7486914,21.5657143 Z M33.3984375,23.5173571 L33.3984375,25 L6.6015625,25 L6.6015625,23.4959286 C6.97118164,23.6295714 7.35050781,23.6964286 7.72949219,23.6963571 C8.61166992,23.6963571 9.49152344,23.3357857 10.2409473,22.6212857 C11.2217676,21.6867143 12.4404102,21.6867143 13.4212305,22.6212857 C14.9234277,24.0527857 16.9419434,24.0527143 18.4440723,22.6212857 C19.4249609,21.6867143 20.6436035,21.6867143 21.6243555,22.6212857 C23.1265527,24.0527857 25.1450684,24.0527143 26.6471973,22.6212857 C27.6280176,21.6866429 28.8466602,21.6867857 29.8274805,22.6212857 C30.8731738,23.6178571 32.186084,23.9241429 33.3984375,23.5173571 Z M34.5140625,30.1770714 C33.8550781,32.2072857 32.0331641,33.5714286 29.9804688,33.5714286 L10.0195313,33.5714286 C7.96683594,33.5714286 6.14492188,32.2072857 5.48614258,30.1775 C5.34429688,29.7396429 5.70612305,29.2857143 6.15449219,29.2857143 L33.8455078,29.2857143 C34.2955176,29.2857143 34.6550195,29.7417857 34.5140625,30.1770714 Z M35.4492188,27.8571429 L4.55078125,27.8571429 C4.17384766,27.8571429 3.8671875,27.5367143 3.8671875,27.1428571 C3.8671875,26.7485 4.17336914,26.4285714 4.55078125,26.4285714 L35.4492188,26.4285714 C35.8261523,26.4285714 36.1328125,26.749 36.1328125,27.1428571 C36.1328125,27.5372143 35.8266309,27.8571429 35.4492188,27.8571429 Z" id="Shape"></path>
                </g>
            </g>
        </g>
    </g>
</svg>