<?xml version="1.0" encoding="UTF-8"?>
<svg width="97px" height="96px" viewBox="0 0 97 96" version="1.1" xmlns="http://www.w3.org/2000/svg" xmlns:xlink="http://www.w3.org/1999/xlink">
    <!-- Generator: sketchtool 52.4 (67378) - http://www.bohemiancoding.com/sketch -->
    <title>BCEECC2D-AA68-44C0-B67E-835FBAFD1A1C</title>
    <desc>Created with sketchtool.</desc>
    <g id="Page-1" stroke="none" stroke-width="1" fill="none" fill-rule="evenodd">
        <g id="Home_cuponera-seccion" transform="translate(-459.000000, -544.000000)">
            <g id="Group-5" transform="translate(246.000000, 542.000000)">
                <g id="Group-14" transform="translate(197.458333, 2.041667)">
                    <g id="Group-25" transform="translate(16.000000, 0.000000)">
                        <g id="Group-3" fill="#7ED321">
                            <path d="M47.9788571,95.9581786 C21.5237637,95.9581786 -0.000309543011,74.4341053 -0.000309543011,47.9790119 C-0.000309543011,21.5239185 21.5237637,-0.000154771505 47.9788571,-0.000154771505 C74.4339505,-0.000154771505 95.9580238,21.5239185 95.9580238,47.9790119 C95.9580238,74.4341053 74.4339505,95.9581786 47.9788571,95.9581786" id="Path"></path>
                        </g>
                        <g id="Group-24" transform="translate(24.000000, 24.000000)" fill="#FFFFFF">
                            <path d="M42.653587,38.877317 L5.92785645,2.66542789 C5.68176976,2.42243663 5.34282016,2.29552399 4.99613199,2.31254886 C4.64944382,2.33112144 4.32751909,2.4920838 4.10929126,2.75829079 C4.03964409,2.84031969 2.43466358,4.82758582 2.31703723,8.20315235 C2.16845659,12.5413976 4.42347742,17.0406053 9.02019113,21.572315 L18.2198094,30.6434729 C19.0137872,31.425069 20.0677812,31.8553338 21.1898746,31.8553338 C22.311968,31.8553338 23.365962,31.425069 24.1599398,30.6434729 C24.2218484,30.5815643 24.294591,30.5676349 24.3441179,30.5676349 C24.3936448,30.5676349 24.4648397,30.5815643 24.528296,30.6434729 L26.0156501,32.1091591 C26.0713679,32.1664245 26.0481522,32.310362 25.9955298,32.4233452 C25.2696515,33.9880851 25.6101488,35.8577249 26.8452254,37.074229 L35.6641058,45.7692921 C36.6267845,46.7195892 37.8928155,47.1947377 39.1588464,47.1947377 C40.4248773,47.1947377 41.6909082,46.7195892 42.653587,45.7692921 C44.5820399,43.8702458 44.5820399,40.7779111 42.653587,38.877317 M40.9201461,44.0606147 C39.9497288,45.0171026 38.3695117,45.0171026 37.3975466,44.0606147 L28.5786663,35.3640038 C28.0663726,34.857901 27.9224351,34.0809481 28.2257872,33.42936 C28.721056,32.3629843 28.5322348,31.1727915 27.749091,30.4004817 L26.2617368,28.9347955 C25.7494431,28.4286927 25.0684485,28.150104 24.3425702,28.150104 C23.6197872,28.150104 22.9372449,28.4286927 22.4249512,28.9347955 C22.0952879,29.2598157 21.6572845,29.4378029 21.1898746,29.4378029 C20.7240124,29.4378029 20.2844613,29.2598157 19.9532503,28.9347955 L10.7551797,19.8636376 C3.63569046,12.8447498 4.41573884,7.72955155 5.3366293,5.50238958 L40.9201461,40.5859944 C41.8921112,41.54403 41.8921112,43.1025791 40.9201461,44.0606147" id="Fill-4"></path>
                            <path d="M43.7213556,4.23744207 C43.2168005,3.73288696 42.3980592,3.73288696 41.8935041,4.23744207 L33.6441829,12.4867633 C33.1396278,12.9913184 33.1396278,13.8100597 33.6441829,14.3146148 C33.8964604,14.5668923 34.2276714,14.6922573 34.5588825,14.6922573 C34.8885458,14.6922573 35.2197568,14.5668923 35.4720343,14.3146148 L43.7213556,6.06529355 C44.2259107,5.56073844 44.2259107,4.74199718 43.7213556,4.23744207" id="Fill-6"></path>
                            <path d="M39.1159747,1.11090289 C38.6624942,0.648136089 37.9242341,0.648136089 37.4723013,1.11090289 L29.9055224,8.82781015 C28.7462838,10.0102644 28.060646,11.5146435 28.028144,12.9524708 L27.9755217,15.1595124 L25.8675338,17.3108364 C25.4125056,17.7736032 25.4125056,18.5257927 25.8675338,18.9885595 C26.0935002,19.2207167 26.3922092,19.3352476 26.6893705,19.3352476 C26.9880795,19.3352476 27.2852408,19.2207167 27.5112072,18.9885595 L29.9488584,16.5013814 C30.1608954,16.286249 30.2816171,15.9968263 30.2893557,15.6919264 L30.352812,13.0081885 C30.3729323,12.1863518 30.820222,11.2515319 31.5507435,10.5055333 L39.1159747,2.78862601 C39.5694552,2.32585921 39.5694552,1.57366969 39.1159747,1.11090289" id="Fill-8"></path>
                            <path d="M18.9775707,33.9856088 C18.4993267,33.4996263 17.7239215,33.4996263 17.2472253,33.9856088 L7.45483212,43.9590846 C6.98587446,44.4373286 6.3621453,44.7019878 5.69662782,44.7019878 C5.03265806,44.7019878 4.4089289,44.4373286 3.93997124,43.9590846 C3.46946586,43.4808407 3.21099745,42.8447298 3.21099745,42.1683783 C3.21099745,41.4920268 3.46946586,40.8559159 3.93997124,40.377672 L13.3903194,30.7508843 C13.8685633,30.2633541 13.8685633,29.4740194 13.3903194,28.9880369 C12.9136231,28.5005067 12.1382179,28.5005067 11.6599739,28.9880369 L2.20962581,38.6148245 C1.27635363,39.5635739 0.762512231,40.8265093 0.762512231,42.169926 C0.762512231,43.511795 1.27635363,44.7731827 2.20962581,45.7219321 C3.13980255,46.6722291 4.37952231,47.1953568 5.69662782,47.1953568 C7.01528105,47.1953568 8.25500081,46.6722291 9.18672527,45.7219321 L18.9775707,35.750004 C19.4558147,35.2624737 19.4558147,34.4715913 18.9775707,33.9856088" id="Fill-10"></path>
                            <path d="M46.8508354,8.84731136 C46.3927118,8.38763999 45.6482608,8.38763999 45.1885894,8.84731136 L37.5444248,16.5085009 C36.8185464,17.2359269 35.8883697,17.6584532 35.0402218,17.6491669 L32.2775505,17.6073786 C31.9633643,17.6042831 31.6538213,17.7265526 31.4294026,17.952519 L28.966988,20.4211245 C28.5073166,20.8807959 28.5073166,21.6267946 28.966988,22.0864659 C29.1960498,22.3170755 29.4963065,22.4316064 29.7965632,22.4316064 C30.0983677,22.4316064 30.3986244,22.3170755 30.6292339,22.0864659 L32.7387696,19.9707394 L35.0046244,20.0047892 C36.4935263,20.0280049 38.0226688,19.359392 39.2066708,18.1722946 L46.8508354,10.5126528 C47.3089591,10.0529814 47.3089591,9.30698273 46.8508354,8.84731136" id="Fill-12"></path>
                        </g>
                    </g>
                </g>
            </g>
        </g>
    </g>
</svg>