<?xml version="1.0" encoding="UTF-8"?>
<svg width="45px" height="55px" viewBox="0 0 45 55" version="1.1" xmlns="http://www.w3.org/2000/svg" xmlns:xlink="http://www.w3.org/1999/xlink">
    <!-- Generator: sketchtool 52.4 (67378) - http://www.bohemiancoding.com/sketch -->
    <title>8E0204E4-3416-45F0-AF58-C04287BD0465</title>
    <desc>Created with sketchtool.</desc>
    <g id="Page-1" stroke="none" stroke-width="1" fill="none" fill-rule="evenodd">
        <g id="Home_cuponera" transform="translate(-570.000000, -1511.000000)" fill="#FFFFFF">
            <g id="Group-15-Copy-2" transform="translate(546.000000, 1311.000000)">
                <g id="Group-30">
                    <g id="Group-33" transform="translate(25.000000, 200.000000)">
                        <path d="M30.4490954,7.24408232 C29.9387446,3.61472345 26.8268495,0.876255705 23.2117164,0.876255705 C20.885797,0.876255705 18.6772406,2.01609845 17.302672,3.92591296 C17.0234906,4.31534441 17.1070672,4.86125974 17.491164,5.14577587 C17.8734825,5.42851377 18.4122849,5.34671538 18.6932446,4.95550571 C19.7423978,3.49558232 21.4317124,2.62425167 23.2117164,2.62425167 C25.9768575,2.62425167 28.3561236,4.71544522 28.7455551,7.48947748 C28.807793,7.9251428 29.1758857,8.23988877 29.5973253,8.23988877 C29.6364462,8.23988877 29.6773454,8.23811054 29.7182446,8.23099764 C30.1894745,8.16342506 30.516668,7.72064683 30.4490954,7.24408232" id="Fill-4"></path>
                        <path d="M38.0074442,9.07529925 C37.8883031,8.87791619 37.6944765,8.73921458 37.4721982,8.6858678 L25.7465773,5.90116619 C25.524299,5.84959764 25.2913515,5.88871861 25.0975249,6.00963796 C24.9036982,6.13233554 24.7649966,6.32794038 24.7134281,6.55377506 L23.8296499,10.3911864 C23.7211781,10.8588597 24.0074724,11.3300896 24.4715894,11.4385614 C24.9321499,11.5488114 25.3962668,11.2571823 25.5047386,10.7877307 L26.192912,7.80031135 L36.2434442,10.1866904 L34.6643797,17.0417509 C34.5559079,17.5129807 34.8422023,17.9824323 35.304541,18.0909041 C35.3721136,18.1069081 35.4379079,18.114021 35.501924,18.114021 C35.8931337,18.114021 36.2470007,17.8437307 36.3394684,17.4400734 L38.1141378,9.73502103 C38.1657063,9.50918635 38.1283636,9.27268232 38.0074442,9.07529925" id="Fill-6"></path>
                        <path d="M24.0202757,11.7122303 L23.2360781,4.98164562 C23.2094047,4.7522545 23.09382,4.54242385 22.9142192,4.39838756 C22.7346184,4.2561295 22.5087837,4.19033514 22.2811708,4.21700853 L7.89532405,5.94366579 C7.42409421,6.00056901 7.08623131,6.43445611 7.14135631,6.91279885 L8.44835227,18.1387384 C8.49992082,18.5815166 8.87157002,18.9087101 9.30190066,18.9087101 C9.33568695,18.9087101 9.36947324,18.9069319 9.40325953,18.9033755 C9.87448937,18.8464722 10.2123523,18.4125851 10.1572273,17.9342424 L8.94981195,7.57429885 L21.628562,6.05391579 L22.3114007,11.9167263 C22.3683039,12.395069 22.7932999,12.7364884 23.2663079,12.6813634 C23.7375378,12.6244601 24.0754007,12.1923513 24.0202757,11.7122303" id="Fill-8"></path>
                        <path d="M29.3976305,17.0894073 L27.6905337,9.8804799 C27.637187,9.65642345 27.4984853,9.46081861 27.3028805,9.33989925 C27.1090539,9.22075812 26.8761063,9.18341538 26.6538281,9.23676216 L12.7961144,12.6189476 C12.3337757,12.7327541 12.0492595,13.2039839 12.1612878,13.6734355 L13.0148361,17.276121 C13.1250861,17.7455726 13.5892031,18.0336452 14.0515418,17.9198388 C14.5121023,17.8078105 14.7983966,17.3365807 14.6863684,16.8671291 L14.0337595,14.1144355 L26.2181628,11.1394638 L27.72432,17.496621 C27.818566,17.8985001 28.1724329,18.1670122 28.5600861,18.1670122 C28.6276587,18.1670122 28.6934531,18.1598993 28.7628039,18.142117 C29.2233644,18.0300888 29.5078805,17.5588589 29.3976305,17.0894073" id="Fill-10"></path>
                        <path d="M15.2349266,22.549094 C13.8123459,22.549094 12.6547209,23.7245013 12.6547209,25.1684206 C12.6547209,26.6141182 13.8123459,27.7895255 15.2349266,27.7895255 C16.6575072,27.7895255 17.8151322,26.6141182 17.8151322,25.1684206 C17.8151322,23.7245013 16.6575072,22.549094 15.2349266,22.549094 M15.2349266,26.0415295 C14.7601403,26.0415295 14.3760435,25.6503198 14.3760435,25.1701989 C14.3760435,24.6882997 14.7601403,24.2953118 15.2349266,24.2953118 C15.7097129,24.2953118 16.0955879,24.6882997 16.0955879,25.1701989 C16.0955879,25.6503198 15.7097129,26.0415295 15.2349266,26.0415295" id="Fill-12"></path>
                        <path d="M28.5716201,22.549094 C27.1490395,22.549094 25.9914145,23.7245013 25.9914145,25.1684206 C25.9914145,26.6141182 27.1490395,27.7895255 28.5716201,27.7895255 C29.9942008,27.7895255 31.1518258,26.6141182 31.1518258,25.1684206 C31.1518258,23.7245013 29.9942008,22.549094 28.5716201,22.549094 M28.5716201,26.0415295 C28.0968338,26.0415295 27.7127371,25.6503198 27.7127371,25.1701989 C27.7127371,24.6882997 28.0968338,24.2953118 28.5716201,24.2953118 C29.0464064,24.2953118 29.4322814,24.6882997 29.4322814,25.1701989 C29.4322814,25.6503198 29.0464064,26.0415295 28.5716201,26.0415295" id="Fill-14"></path>
                        <path d="M28.0845641,25.8832674 L28.0187697,25.8832674 C27.5439834,25.8832674 27.1581084,26.2744771 27.1581084,26.7563763 C27.1581084,26.8755174 27.1812254,26.9893239 27.2239028,27.0942392 L27.2239028,31.5593642 C27.2239028,34.6890416 24.7166044,37.2354609 21.6331609,37.2354609 C18.5497173,37.2354609 16.0424189,34.6890416 16.0424189,31.5593642 L16.0424189,26.7563763 C16.0424189,26.2744771 15.6565439,25.8832674 15.1817576,25.8832674 C14.7069713,25.8832674 14.3228746,26.2744771 14.3228746,26.7563763 L14.3228746,31.5593642 C14.3228746,35.65284 17.601923,38.9816787 21.6331609,38.9816787 C25.6643988,38.9816787 28.9452254,35.65284 28.9452254,31.5593642 L28.9452254,26.7563763 C28.9452254,26.2744771 28.5593504,25.8832674 28.0845641,25.8832674" id="Fill-16" stroke="#FFFFFF" stroke-width="0.5"></path>
                        <path d="M41.9127987,18.0849458 C41.8893319,17.6083669 41.5048385,17.2340426 41.0409192,17.2340426 L2.62045989,17.2340426 C2.15473547,17.2340426 1.77204719,17.6083669 1.74858046,18.0849458 L0.00121132383,53.0559722 C-0.01142461,53.3024785 0.0752217933,53.5416809 0.241294066,53.7206262 C0.405561206,53.8977455 0.634813148,54 0.873090757,54 L42.7864832,54 C43.0247608,54 43.2540128,53.8995715 43.4200851,53.7206262 C43.5843522,53.5416809 43.6709986,53.3024785 43.6583627,53.0559722 L41.9127987,18.0849458 Z M2.29787234,51.7021277 L3.91314173,19.5319149 L39.7464327,19.5319149 L41.3617021,51.7021277 L2.29787234,51.7021277 Z" id="Fill-18" stroke="#FFFFFF" stroke-width="0.5"></path>
                    </g>
                </g>
            </g>
        </g>
    </g>
</svg>