<?xml version="1.0" encoding="UTF-8"?>
<svg width="93px" height="93px" viewBox="0 0 93 93" version="1.1" xmlns="http://www.w3.org/2000/svg" xmlns:xlink="http://www.w3.org/1999/xlink">
    <!-- Generator: sketchtool 54.1 (76490) - https://sketchapp.com -->
    <title>235D83C0-5C43-45FA-B104-B918BB30375E</title>
    <desc>Created with sketchtool.</desc>
    <g id="Page-5--APROBADO" stroke="none" stroke-width="1" fill="none" fill-rule="evenodd">
        <g id="iconos-cuponera" transform="translate(-956.000000, -103.000000)">
            <g id="Group-7" transform="translate(956.000000, 103.000000)">
                <g id="Group-28" fill="#FFFFFF">
                    <circle id="Oval-Copy-7" cx="46.5" cy="46.5" r="46.5"></circle>
                </g>
                <g id="Icono/rojo/belleza" transform="translate(14.000000, 9.000000)" fill="#DA272C" stroke="#DA272C">
                    <g id="Group" transform="translate(17.500000, 8.750000)">
                        <path d="M1.99067684,50.3892298 L11.4701575,50.3892298 L11.4701575,24.7001033 L1.99067684,24.7001033 L1.99067684,50.3892298 Z M3.62927077,22.5885865 L9.8322677,22.5885865 L9.8322677,21.2244629 L3.62927077,21.2244629 L3.62927077,22.5885865 Z M4.52285722,2.17601227 L7.5972453,3.74471699 C8.38379855,4.16507908 8.89995212,5.00580327 8.94501873,5.94060494 L9.76396361,19.1136927 L3.62927077,19.1136927 L3.62927077,2.88532664 C3.62363744,2.6113073 3.74968313,2.35819406 3.96656621,2.20886472 C4.13134101,2.09462778 4.34470326,2.08268143 4.52285722,2.17601227 L4.52285722,2.17601227 Z M11.8229445,22.5885865 L11.8229445,20.1694511 L10.9314706,5.8024753 C10.8406332,4.11281381 9.89564262,2.59637436 8.46336929,1.84450113 L5.38616455,0.274303118 C4.58341549,-0.138592508 3.6553249,-0.0825940055 2.90397995,0.423632459 C2.10263921,0.961964731 1.62943977,1.88407341 1.63859392,2.88905987 L1.63859392,22.5885865 L0.995690505,22.5885865 C0.446441146,22.5885865 0,23.0619605 0,23.6443449 L0,51.4449882 C0,52.026626 0.446441146,52.5 0.995690505,52.5 L12.4665521,52.5 C13.0150973,52.5 13.4615385,52.026626 13.4615385,51.4449882 L13.4615385,23.6443449 C13.4615385,23.0619605 13.0150973,22.5885865 12.4665521,22.5885865 L11.8229445,22.5885865 Z" id="Fill-1" stroke-width="0.5"></path>
                        <path d="M20.8368307,33.3828981 L30.3163113,33.3828981 L30.3163113,30.3400426 L20.8368307,30.3400426 L20.8368307,33.3828981 Z M20.8368307,50.4291882 L30.3163113,50.4291882 L30.3163113,35.4544424 L20.8368307,35.4544424 L20.8368307,50.4291882 Z M31.3120018,28.2692308 L19.8411402,28.2692308 C19.292595,28.2692308 18.8461538,28.734376 18.8461538,29.3050029 L18.8461538,51.4649603 C18.8461538,52.0355873 19.292595,52.5 19.8411402,52.5 L31.3120018,52.5 C31.8612512,52.5 32.3076923,52.0355873 32.3076923,51.4649603 L32.3076923,29.3050029 C32.3076923,28.734376 31.8612512,28.2692308 31.3120018,28.2692308 L31.3120018,28.2692308 Z" id="Fill-3" stroke-width="0.5"></path>
                    </g>
                </g>
            </g>
        </g>
    </g>
</svg>