<?xml version="1.0" encoding="UTF-8"?>
<svg width="93px" height="93px" viewBox="0 0 93 93" version="1.1" xmlns="http://www.w3.org/2000/svg" xmlns:xlink="http://www.w3.org/1999/xlink">
    <!-- Generator: sketchtool 54.1 (76490) - https://sketchapp.com -->
    <title>14FEF3BB-28BC-4139-9C56-E9E74348FFA9</title>
    <desc>Created with sketchtool.</desc>
    <g id="Page-5--APROBADO" stroke="none" stroke-width="1" fill="none" fill-rule="evenodd">
        <g id="iconos-cuponera" transform="translate(-1052.000000, -251.000000)">
            <g id="Group-26" transform="translate(1052.000000, 251.000000)">
                <circle id="Oval-4-Copy-46" fill="#DA272C" fill-rule="nonzero" cx="46.5" cy="46.5" r="46.5"></circle>
                <g id="Icono/blanco/diversion" transform="translate(14.000000, 14.000000)" fill="#FFFFFF">
                    <g id="Group" transform="translate(8.125000, 6.093750)">
                        <path d="M34.1766682,29.5859482 L18.0992891,12.5629286 C17.8240311,12.2716082 17.4333386,12.1378895 17.0489183,12.2041741 C16.6647393,12.2703311 16.3338749,12.5279344 16.1600596,12.8967784 L14.7145332,15.9617086 L0.127551597,46.8954349 C-0.105126996,47.3888021 -0.0136960089,47.9844699 0.354681608,48.3745148 C0.586998337,48.6206236 0.896753975,48.75 1.2109726,48.75 C1.39455831,48.75 1.57959146,48.7058102 1.75135627,48.6148764 L33.861364,31.6392395 C34.2097184,31.4552006 34.4531323,31.1050031 34.5154936,30.6980997 C34.578096,30.2911963 34.4519261,29.877524 34.1766682,29.5859482 Z M4.0625,44.6875 L8.61813503,34.53125 L10.15625,41.3007584 L4.0625,44.6875 Z M23.1432246,34.8699119 L21.0979846,29.4896866 C20.8460695,28.8272825 20.1446563,28.5105479 19.5308449,28.7823299 C18.9171533,29.054112 18.623711,29.811459 18.8755065,30.4738631 L20.9881233,36.0313151 L12.4642955,40.625 L10.15625,30.7753552 L15.0052279,20.2927579 L16.3394807,23.8026732 C16.5301225,24.3039974 16.9784238,24.607427 17.4511387,24.607427 C17.6030058,24.607427 17.7573861,24.5761669 17.9066204,24.5100299 C18.5203121,24.2382478 18.8137544,23.4809008 18.5619589,22.8184967 L16.4306728,17.2117002 L16.8756232,16.25 L30.46875,30.9220968 L23.1432246,34.8699119 Z" id="Shape-Copy-27" fill-rule="nonzero"></path>
                        <path d="M34.6820653,26.1526158 C34.8431543,26.5463895 35.1068078,26.8072355 35.40296,26.9104004 C35.699228,27.0136057 36.0277634,26.9590492 36.3187146,26.7227442 C39.6476778,24.0174862 44.1775989,23.8241673 47.3071707,24.5453891 C47.9590318,24.6956621 48.5942199,24.0824721 48.7259203,23.1762648 C48.8575382,22.2698558 48.4364474,21.4163697 47.7840769,21.2631515 C44.2348456,20.4452133 39.0528365,20.7006003 35.152483,23.8701946 C34.5706631,24.3430063 34.3600363,25.3649474 34.6820653,26.1526158 Z" id="Shape-Copy-38" fill-rule="nonzero"></path>
                        <path d="M26.8934786,0.554777923 C26.4840131,0.542327671 26.1190543,0.675843708 25.8601344,0.901967055 C25.6011133,1.12817877 25.4483336,1.44682106 25.4625896,1.8044209 C25.626925,5.89657196 23.0757072,10.0658818 20.6331239,12.6034342 C20.1243171,13.1319633 20.2328502,13.9516867 20.875152,14.4341631 C21.5176636,14.9166459 22.4481183,14.8786516 22.9595723,14.3508438 C25.7296968,11.4730204 28.620926,6.6897982 28.4283837,1.89526163 C28.3996619,1.18005553 27.7124169,0.579861577 26.8934786,0.554777923 Z" id="Shape-Copy-51" fill-rule="nonzero"></path>
                        <path d="M29.7916667,18.1582794 L31.1459687,18.1582794 L31.1459687,19.5123106 C31.1459687,20.2602169 31.7523646,20.8664773 32.5001354,20.8664773 C33.2480417,20.8664773 33.8543021,20.2602169 33.8543021,19.5123106 L33.8543021,18.1582794 L35.2083333,18.1582794 C35.9561042,18.1582794 36.5625,17.5518835 36.5625,16.8041127 C36.5625,16.0563419 35.9561042,15.449946 35.2083333,15.449946 L33.8543021,15.449946 L33.8543021,14.0956439 C33.8543021,13.3478731 33.2480417,12.7414773 32.5001354,12.7414773 C31.7523646,12.7414773 31.1459687,13.3478731 31.1459687,14.0956439 L31.1459687,15.449946 L29.7916667,15.449946 C29.0438958,15.449946 28.4375,16.0563419 28.4375,16.8041127 C28.4375,17.5520189 29.0438958,18.1582794 29.7916667,18.1582794 Z" id="Shape-Copy-49" fill-rule="nonzero"></path>
                        <path d="M39.609375,12.1875 C41.2894219,12.1875 42.65625,10.8206719 42.65625,9.140625 C42.65625,7.46057813 41.2894219,6.09375 39.609375,6.09375 C37.9293281,6.09375 36.5625,7.46057813 36.5625,9.140625 C36.5625,10.8206719 37.9293281,12.1875 39.609375,12.1875 Z M39.609375,8.125 C40.1693906,8.125 40.625,8.58060937 40.625,9.140625 C40.625,9.70064062 40.1693906,10.15625 39.609375,10.15625 C39.0493594,10.15625 38.59375,9.70064063 38.59375,9.140625 C38.59375,8.58060937 39.0493594,8.125 39.609375,8.125 Z" id="Shape-Copy-52" fill-rule="nonzero"></path>
                    </g>
                </g>
            </g>
        </g>
    </g>
</svg>