<?xml version="1.0" encoding="UTF-8"?>
<svg width="96px" height="96px" viewBox="0 0 96 96" version="1.1" xmlns="http://www.w3.org/2000/svg" xmlns:xlink="http://www.w3.org/1999/xlink">
    <!-- Generator: sketchtool 54.1 (76490) - https://sketchapp.com -->
    <title>4D1DCFE5-0BE3-4F87-B41F-8BE99C376592</title>
    <desc>Created with sketchtool.</desc>
    <defs>
        <polygon id="path-1" points="1.42108547e-14 0 95.9580238 0 95.9580238 95.9581786 1.42108547e-14 95.9581786"></polygon>
    </defs>
    <g id="Page-2" stroke="none" stroke-width="1" fill="none" fill-rule="evenodd">
        <g id="iconos" transform="translate(-612.000000, -598.000000)">
            <g id="Group-14-Copy" transform="translate(612.000000, 598.000000)">
                <g id="Group-3">
                    <g id="Group-24">
                        <mask id="mask-2" fill="white">
                            <use xlink:href="#path-1"></use>
                        </mask>
                        <g id="Clip-2"></g>
                        <path d="M47.9788571,3.09527534 C23.2293457,3.09527534 3.09512056,23.2295005 3.09512056,47.9790119 C3.09512056,72.7285233 23.2293457,92.8627485 47.9788571,92.8627485 C72.7283685,92.8627485 92.8625937,72.7285233 92.8625937,47.9790119 C92.8625937,23.2295005 72.7283685,3.09527534 47.9788571,3.09527534 M47.9788571,95.9581786 C21.5237637,95.9581786 -0.000309543011,74.4341053 -0.000309543011,47.9790119 C-0.000309543011,21.5239185 21.5237637,-0.000154771505 47.9788571,-0.000154771505 C74.4339505,-0.000154771505 95.9580238,21.5239185 95.9580238,47.9790119 C95.9580238,74.4341053 74.4339505,95.9581786 47.9788571,95.9581786" id="Fill-1" fill="#FFFFFF" mask="url(#mask-2)"></path>
                        <path d="M66.653587,62.877317 L29.9278565,26.6654279 C29.6817698,26.4224366 29.3428202,26.295524 28.996132,26.3125489 C28.6494438,26.3311214 28.3275191,26.4920838 28.1092913,26.7582908 C28.0396441,26.8403197 26.4346636,28.8275858 26.3170372,32.2031524 C26.1684566,36.5413976 28.4234774,41.0406053 33.0201911,45.572315 L42.2198094,54.6434729 C43.0137872,55.425069 44.0677812,55.8553338 45.1898746,55.8553338 C46.311968,55.8553338 47.365962,55.425069 48.1599398,54.6434729 C48.2218484,54.5815643 48.294591,54.5676349 48.3441179,54.5676349 C48.3936448,54.5676349 48.4648397,54.5815643 48.528296,54.6434729 L50.0156501,56.1091591 C50.0713679,56.1664245 50.0481522,56.310362 49.9955298,56.4233452 C49.2696515,57.9880851 49.6101488,59.8577249 50.8452254,61.074229 L59.6641058,69.7692921 C60.6267845,70.7195892 61.8928155,71.1947377 63.1588464,71.1947377 C64.4248773,71.1947377 65.6909082,70.7195892 66.653587,69.7692921 C68.5820399,67.8702458 68.5820399,64.7779111 66.653587,62.877317 M64.9201461,68.0606147 C63.9497288,69.0171026 62.3695117,69.0171026 61.3975466,68.0606147 L52.5786663,59.3640038 C52.0663726,58.857901 51.9224351,58.0809481 52.2257872,57.42936 C52.721056,56.3629843 52.5322348,55.1727915 51.749091,54.4004817 L50.2617368,52.9347955 C49.7494431,52.4286927 49.0684485,52.150104 48.3425702,52.150104 C47.6197872,52.150104 46.9372449,52.4286927 46.4249512,52.9347955 C46.0952879,53.2598157 45.6572845,53.4378029 45.1898746,53.4378029 C44.7240124,53.4378029 44.2844613,53.2598157 43.9532503,52.9347955 L34.7551797,43.8636376 C27.6356905,36.8447498 28.4157388,31.7295515 29.3366293,29.5023896 L64.9201461,64.5859944 C65.8921112,65.54403 65.8921112,67.1025791 64.9201461,68.0606147" id="Fill-4" fill="#FFFFFF" mask="url(#mask-2)"></path>
                        <path d="M67.7213556,28.2374421 C67.2168005,27.732887 66.3980592,27.732887 65.8935041,28.2374421 L57.6441829,36.4867633 C57.1396278,36.9913184 57.1396278,37.8100597 57.6441829,38.3146148 C57.8964604,38.5668923 58.2276714,38.6922573 58.5588825,38.6922573 C58.8885458,38.6922573 59.2197568,38.5668923 59.4720343,38.3146148 L67.7213556,30.0652935 C68.2259107,29.5607384 68.2259107,28.7419972 67.7213556,28.2374421" id="Fill-6" fill="#FFFFFF" mask="url(#mask-2)"></path>
                        <path d="M63.1159747,25.1109029 C62.6624942,24.6481361 61.9242341,24.6481361 61.4723013,25.1109029 L53.9055224,32.8278101 C52.7462838,34.0102644 52.060646,35.5146435 52.028144,36.9524708 L51.9755217,39.1595124 L49.8675338,41.3108364 C49.4125056,41.7736032 49.4125056,42.5257927 49.8675338,42.9885595 C50.0935002,43.2207167 50.3922092,43.3352476 50.6893705,43.3352476 C50.9880795,43.3352476 51.2852408,43.2207167 51.5112072,42.9885595 L53.9488584,40.5013814 C54.1608954,40.286249 54.2816171,39.9968263 54.2893557,39.6919264 L54.352812,37.0081885 C54.3729323,36.1863518 54.820222,35.2515319 55.5507435,34.5055333 L63.1159747,26.788626 C63.5694552,26.3258592 63.5694552,25.5736697 63.1159747,25.1109029" id="Fill-8" fill="#FFFFFF" mask="url(#mask-2)"></path>
                        <path d="M42.9775707,57.9856088 C42.4993267,57.4996263 41.7239215,57.4996263 41.2472253,57.9856088 L31.4548321,67.9590846 C30.9858745,68.4373286 30.3621453,68.7019878 29.6966278,68.7019878 C29.0326581,68.7019878 28.4089289,68.4373286 27.9399712,67.9590846 C27.4694659,67.4808407 27.2109974,66.8447298 27.2109974,66.1683783 C27.2109974,65.4920268 27.4694659,64.8559159 27.9399712,64.377672 L37.3903194,54.7508843 C37.8685633,54.2633541 37.8685633,53.4740194 37.3903194,52.9880369 C36.9136231,52.5005067 36.1382179,52.5005067 35.6599739,52.9880369 L26.2096258,62.6148245 C25.2763536,63.5635739 24.7625122,64.8265093 24.7625122,66.169926 C24.7625122,67.511795 25.2763536,68.7731827 26.2096258,69.7219321 C27.1398026,70.6722291 28.3795223,71.1953568 29.6966278,71.1953568 C31.015281,71.1953568 32.2550008,70.6722291 33.1867253,69.7219321 L42.9775707,59.750004 C43.4558147,59.2624737 43.4558147,58.4715913 42.9775707,57.9856088" id="Fill-10" fill="#FFFFFF" mask="url(#mask-2)"></path>
                        <path d="M70.8508354,32.8473114 C70.3927118,32.38764 69.6482608,32.38764 69.1885894,32.8473114 L61.5444248,40.5085009 C60.8185464,41.2359269 59.8883697,41.6584532 59.0402218,41.6491669 L56.2775505,41.6073786 C55.9633643,41.6042831 55.6538213,41.7265526 55.4294026,41.952519 L52.966988,44.4211245 C52.5073166,44.8807959 52.5073166,45.6267946 52.966988,46.0864659 C53.1960498,46.3170755 53.4963065,46.4316064 53.7965632,46.4316064 C54.0983677,46.4316064 54.3986244,46.3170755 54.6292339,46.0864659 L56.7387696,43.9707394 L59.0046244,44.0047892 C60.4935263,44.0280049 62.0226688,43.359392 63.2066708,42.1722946 L70.8508354,34.5126528 C71.3089591,34.0529814 71.3089591,33.3069827 70.8508354,32.8473114" id="Fill-12" fill="#FFFFFF" mask="url(#mask-2)"></path>
                    </g>
                </g>
            </g>
        </g>
    </g>
</svg>