<?xml version="1.0" encoding="UTF-8"?>
<svg width="96px" height="96px" viewBox="0 0 96 96" version="1.1" xmlns="http://www.w3.org/2000/svg" xmlns:xlink="http://www.w3.org/1999/xlink">
    <!-- Generator: sketchtool 54.1 (76490) - https://sketchapp.com -->
    <title>799575F4-50D6-4F05-984D-3AAC981448C1</title>
    <desc>Created with sketchtool.</desc>
    <g id="Page-2" stroke="none" stroke-width="1" fill="none" fill-rule="evenodd">
        <g id="iconos" transform="translate(-1622.000000, -90.000000)">
            <g id="Group-10" transform="translate(1622.000000, 90.000000)">
                <path d="M48.0416459,95.9859012 C74.4358876,95.9859012 95.8342129,74.5875759 95.8342129,48.1933342 C95.8342129,21.7990925 74.4358876,0.400767226 48.0416459,0.400767226 C21.6458112,0.400767226 0.249078928,21.7990925 0.249078928,48.1933342 C0.249078928,74.5875759 21.6458112,95.9859012 48.0416459,95.9859012" id="Fill-67" fill="#1D87FA"></path>
                <path d="M75.1949928,39.3171394 C74.6374129,37.6029793 73.1813327,36.3763034 71.3986699,36.1182235 L58.3497061,34.2256379 L52.5110475,22.4033499 C51.7129116,20.7863681 50.0975228,19.7827241 48.29415,19.7827241 C46.489184,19.7827241 44.8737953,20.7879611 44.0756594,22.404943 L38.2433731,34.2304171 L25.1960024,36.1309682 C23.4117465,36.3890481 21.9572594,37.615724 21.3996794,39.3314771 C20.8436926,41.0472303 21.2993151,42.8952095 22.5913075,44.1521541 L32.0351187,53.3538163 L29.8111712,66.3486152 C29.5052988,68.1264987 30.2237804,69.8884514 31.6830468,70.9494464 C33.1168238,71.9913243 35.0651674,72.1331089 36.6359498,71.3062975 L48.3053016,65.1681388 L59.9778395,71.2999252 C61.5741113,72.1394813 63.4730692,71.9992897 64.9307425,70.9398878 C66.3884158,69.8788929 67.1053043,68.1169402 66.7994319,66.3406498 L65.776671,60.3841029 C65.7065752,59.9794592 65.4835432,59.6273872 65.1505883,59.3900175 C64.8160404,59.1542408 64.4113966,59.0602488 64.0051598,59.1319376 C63.170383,59.2753153 62.6096169,60.070265 62.7514015,60.9050419 L63.7757555,66.8599957 C63.8824922,67.4860783 63.6403432,68.0834854 63.1257766,68.4578605 C62.61121,68.8322356 61.9691965,68.8784351 61.4036511,68.5821212 L49.0174108,62.0743667 C48.5713469,61.8401831 48.0376632,61.8401831 47.5900062,62.0759598 L35.206952,68.5900866 C34.3737683,69.0281852 33.6775899,68.6044244 33.4848266,68.4642329 C32.971853,68.0914509 32.7281109,67.4940438 32.8348476,66.8663681 L35.1973935,53.0766194 C35.2834202,52.5779836 35.1177393,52.0713824 34.7561088,51.7177174 L24.7340075,41.953696 C24.2783851,41.5092251 24.1222627,40.8847356 24.3198053,40.279363 C24.5157548,39.6739905 25.0096113,39.2581952 25.6388801,39.1673893 L39.4827937,37.150543 C39.9830226,37.0788541 40.4147488,36.7650163 40.6393738,36.3109869 L46.8285113,23.763845 C47.1104874,23.1919273 47.6569157,22.8526 48.2925569,22.8526 C48.9297911,22.8526 49.4762195,23.1919273 49.7581956,23.7622519 L55.9537054,36.3062076 C56.1783304,36.760237 56.6100566,37.0740749 57.1086924,37.1457637 L70.9557922,39.1546446 C71.8909334,39.2900569 72.2031782,40.0404002 72.2764601,40.2666184 C72.4740027,40.8719909 72.3178803,41.4980735 71.8638509,41.9409513 L67.527472,46.1705935 C67.2327512,46.4557558 67.0686634,46.8396894 67.0638841,47.2507055 C67.0591049,47.6601285 67.2136342,48.0472483 67.4987965,48.340376 C68.0914243,48.9473416 69.0632065,48.9600863 69.6701721,48.3674585 L74.006551,44.1394094 C75.2969503,42.8808718 75.7525728,41.0328925 75.1949928,39.3171394" id="Fill-76" fill="#FFFFFF"></path>
                <path d="M67.4760154,53.8197938 C67.4760154,54.8457409 66.6444247,55.6773316 65.6184776,55.6773316 C64.5925305,55.6773316 63.7609398,54.8457409 63.7609398,53.8197938 C63.7609398,52.7938467 64.5925305,51.962256 65.6184776,51.962256 C66.6444247,51.962256 67.4760154,52.7938467 67.4760154,53.8197938" id="Fill-78" fill="#FFFFFF"></path>
            </g>
        </g>
    </g>
</svg>