<?xml version="1.0" encoding="UTF-8"?>
<svg width="43px" height="43px" viewBox="0 0 43 43" version="1.1" xmlns="http://www.w3.org/2000/svg" xmlns:xlink="http://www.w3.org/1999/xlink">
    <!-- Generator: sketchtool 54.1 (76490) - https://sketchapp.com -->
    <title>1131B4A6-3F80-42B2-96F0-052707987109</title>
    <desc>Created with sketchtool.</desc>
    <g id="Page-5-HOME-APROBADO" stroke="none" stroke-width="1" fill="none" fill-rule="evenodd">
        <g id="Home_cuponera_02" transform="translate(-1283.000000, -875.000000)">
            <g id="Group-21" transform="translate(1283.000000, 875.000000)">
                <circle id="Oval-Copy-9" fill="#ECECEC" opacity="0.624395461" transform="translate(21.500000, 21.500000) scale(-1, 1) translate(-21.500000, -21.500000) " cx="21.5" cy="21.5" r="21.5"></circle>
                <path d="M18.6366735,21.0859317 L27.0209722,11.002774 C27.227275,10.7546693 27.227275,10.3571286 27.0209722,10.1090239 C26.8148639,9.86109461 26.4841082,9.86109461 26.2779999,10.1090239 L17.5200023,20.6416008 C17.3138454,20.8894716 17.3138454,21.2872462 17.5200023,21.535117 L26.2779999,32.0628979 C26.3790601,32.1846693 26.5152822,32.25 26.6474678,32.25 C26.7797019,32.25 26.9159241,32.1892313 27.0171788,32.0628979 C27.2232871,31.8150272 27.2232871,31.4172525 27.0171788,31.1693818 L18.6366735,21.0859317 Z" id="Fill-1-Copy" stroke="#DA272C" stroke-width="2" fill="#DA272C" transform="translate(22.270542, 21.086538) scale(-1, 1) translate(-22.270542, -21.086538) "></path>
            </g>
        </g>
    </g>
</svg>