<?xml version="1.0" encoding="UTF-8"?>
<svg width="96px" height="96px" viewBox="0 0 96 96" version="1.1" xmlns="http://www.w3.org/2000/svg" xmlns:xlink="http://www.w3.org/1999/xlink">
    <!-- Generator: sketchtool 54.1 (76490) - https://sketchapp.com -->
    <title>47B1A128-F6AB-4E61-9E6D-BB5532D8729C</title>
    <desc>Created with sketchtool.</desc>
    <g id="Page-2" stroke="none" stroke-width="1" fill="none" fill-rule="evenodd">
        <g id="iconos" transform="translate(-1034.000000, -596.000000)" fill="#FFFFFF">
            <g id="Group-8-Copy" transform="translate(1034.000000, 596.000000)">
                <g id="Group-3">
                    <g id="Group-26">
                        <path d="M47.9793214,3.09527534 C23.22981,3.09527534 3.09558488,23.2310482 3.09558488,47.9790119 C3.09558488,72.7269756 23.22981,92.8627485 47.9793214,92.8627485 C72.7288329,92.8627485 92.863058,72.7269756 92.863058,47.9790119 C92.863058,23.2310482 72.7288329,3.09527534 47.9793214,3.09527534 M47.9793214,95.9581786 C21.524228,95.9581786 0.000154771505,74.435653 0.000154771505,47.9790119 C0.000154771505,21.5223708 21.524228,-0.000154771505 47.9793214,-0.000154771505 C74.4344149,-0.000154771505 95.9584881,21.5223708 95.9584881,47.9790119 C95.9584881,74.435653 74.4344149,95.9581786 47.9793214,95.9581786" id="Fill-1"></path>
                        <path d="M68.2916886,48.6736264 C66.7888573,47.4493838 64.4146624,47.3441392 62.8561133,48.9986466 L58.9868257,53.10783 C58.4869137,51.516779 56.9856301,50.3590881 55.2150441,50.3590881 L48.3106872,50.3590881 C47.7860118,50.3590881 47.61112,50.1609806 46.7010636,49.4676042 C43.2310864,46.475871 38.0199298,46.4836096 34.5607867,49.4954631 L32.022534,51.7056002 C30.881868,51.1097299 29.5492853,51.0942528 28.4024285,51.6622642 L25.4911765,53.1000915 C24.8411362,53.4220162 24.5780246,54.20516 24.9030448,54.8490095 L32.8010347,70.4747407 C33.1260548,71.1185901 33.9169372,71.3786062 34.5669776,71.0566815 L37.4782296,69.6173065 C38.9129614,68.908453 39.7115824,67.4597917 39.6589601,65.986367 L55.2150441,65.986367 C58.0999849,65.986367 60.8564655,64.62283 62.5868109,62.3399503 L68.9061315,54.0039571 C70.1319218,52.3881425 69.9369097,50.0185908 68.2916886,48.6736264 M36.3004184,67.2879954 L34.5669776,68.1454295 L27.8452511,54.8490095 L29.5802397,53.9915753 C30.23028,53.6696506 31.0196147,53.9296667 31.3446348,54.5735162 L36.8885501,65.5406251 C37.2135703,66.1844745 36.9504587,66.9660706 36.3004184,67.2879954 M66.7996913,52.4407649 L60.4803707,60.7767581 C59.2437464,62.4080498 57.2750528,63.3815626 55.2150441,63.3815626 L38.7411651,63.3815626 L33.8085972,53.6201237 L36.2988707,51.4517749 C38.7783102,49.2942601 42.5175898,49.2942601 44.9954816,51.4517749 C46.4565246,52.722449 47.3650333,52.9638925 48.3106872,52.9638925 L55.2150441,52.9638925 C55.9409224,52.9638925 56.5306019,53.5473811 56.5306019,54.2655209 C56.5306019,54.9836607 55.9409224,55.568697 55.2150441,55.568697 L48.4917699,55.568697 C47.7658915,55.568697 47.1762121,56.1521856 47.1762121,56.8703253 C47.1762121,57.5884651 47.7658915,58.1719537 48.4917699,58.1719537 L56.0972417,58.1719537 C57.1899285,58.1719537 58.2423747,57.7200209 58.9868257,56.9275908 L64.7814708,50.7738757 C65.3123371,50.2120552 66.1248875,50.2584866 66.6232517,50.6902991 C67.1448317,51.1406842 67.2005495,51.912994 66.7996913,52.4407649" id="Fill-4"></path>
                        <path d="M52.3610575,33.4413244 C53.2107531,32.5281725 53.7338808,31.2946436 53.7338808,29.9342021 C53.7338808,27.1359333 51.5268391,24.7632861 48.7688109,24.7632861 C46.0324507,24.7632861 43.7217121,27.1312901 43.7217121,29.9342021 C43.7217121,31.2528553 44.2262672,32.4972182 45.1409668,33.4521584 C42.8704688,34.7553345 41.2391772,37.2579897 41.2391772,40.1940052 L41.2391772,41.4662269 C41.2391772,42.1673419 41.7948069,42.736901 42.4804446,42.736901 L54.9751483,42.736901 C55.660786,42.736901 56.2164157,42.1673419 56.2164157,41.4662269 L56.2164157,40.1940052 C56.2164157,37.3152552 54.6717961,34.7739071 52.3610575,33.4413244 L52.3610575,33.4413244 Z M48.7688109,27.3077296 C50.115323,27.3077296 51.2513458,28.5103042 51.2513458,29.9342021 C51.2513458,31.3379796 50.1385387,32.4786456 48.7688109,32.4786456 C47.3789628,32.4786456 46.204247,31.3132162 46.204247,29.9342021 C46.204247,28.5350677 47.4037262,27.3077296 48.7688109,27.3077296 L48.7688109,27.3077296 Z M43.7217121,40.1940052 C43.7217121,37.3895455 46.0324507,35.0215415 48.7688109,35.0215415 C51.5067188,35.0215415 53.7338808,37.3415663 53.7338808,40.1940052 L43.7217121,40.1940052 Z" id="Fill-6"></path>
                    </g>
                </g>
            </g>
        </g>
    </g>
</svg>