<?xml version="1.0" encoding="UTF-8"?>
<svg width="93px" height="93px" viewBox="0 0 93 93" version="1.1" xmlns="http://www.w3.org/2000/svg" xmlns:xlink="http://www.w3.org/1999/xlink">
    <!-- Generator: sketchtool 54.1 (76490) - https://sketchapp.com -->
    <title>B74DC11D-7BE7-421A-B671-6BE728459110</title>
    <desc>Created with sketchtool.</desc>
    <g id="Page-5-HOME-APROBADO" stroke="none" stroke-width="1" fill="none" fill-rule="evenodd">
        <g id="Home_cuponera_02" transform="translate(-768.000000, -503.000000)">
            <g id="Group-20" transform="translate(768.000000, 503.000000)">
                <g id="Oval-Copy-11" fill="#FFFFFF">
                    <g id="Oval-Copy-10">
                        <circle id="Oval-Copy-6" cx="46.5" cy="46.5" r="46.5"></circle>
                    </g>
                </g>
                <g id="Group-3" transform="translate(22.000000, 18.000000)" fill="#DA272C">
                    <g id="Group-26">
                        <path d="M43.9165338,24.6736264 C42.4137025,23.4493838 40.0395076,23.3441392 38.4809585,24.9986466 L34.6116709,29.10783 C34.1117589,27.516779 32.6104753,26.3590881 30.8398893,26.3590881 L23.9355325,26.3590881 C23.4108571,26.3590881 23.2359653,26.1609806 22.3259088,25.4676042 C18.8559317,22.475871 13.6447751,22.4836096 10.1856319,25.4954631 L7.64737923,27.7056002 C6.50671324,27.1097299 5.17413058,27.0942528 4.02727372,27.6622642 L1.11602171,29.1000915 C0.465981384,29.4220162 0.202869825,30.20516 0.527889987,30.8490095 L8.42587991,46.4747407 C8.75090007,47.1185901 9.54178246,47.3786062 10.1918228,47.0566815 L13.1030748,45.6173065 C14.5378067,44.908453 15.3364276,43.4597917 15.2838053,41.986367 L30.8398893,41.986367 C33.7248302,41.986367 36.4813107,40.62283 38.2116561,38.3399503 L44.5309767,30.0039571 C45.756767,28.3881425 45.5617549,26.0185908 43.9165338,24.6736264 M11.9252636,43.2879954 L10.1918228,44.1454295 L3.4700963,30.8490095 L5.20508488,29.9915753 C5.8551252,29.6696506 6.64445988,29.9296667 6.96948004,30.5735162 L12.5133954,41.5406251 C12.8384155,42.1844745 12.575304,42.9660706 11.9252636,43.2879954 M42.4245365,28.4407649 L36.1052159,36.7767581 C34.8685916,38.4080498 32.8998981,39.3815626 30.8398893,39.3815626 L14.3660103,39.3815626 L9.43344241,29.6201237 L11.9237159,27.4517749 C14.4031554,25.2942601 18.142435,25.2942601 20.6203268,27.4517749 C22.0813698,28.722449 22.9898786,28.9638925 23.9355325,28.9638925 L30.8398893,28.9638925 C31.5657677,28.9638925 32.1554471,29.5473811 32.1554471,30.2655209 C32.1554471,30.9836607 31.5657677,31.568697 30.8398893,31.568697 L24.1166151,31.568697 C23.3907368,31.568697 22.8010573,32.1521856 22.8010573,32.8703253 C22.8010573,33.5884651 23.3907368,34.1719537 24.1166151,34.1719537 L31.7220869,34.1719537 C32.8147737,34.1719537 33.86722,33.7200209 34.6116709,32.9275908 L40.4063161,26.7738757 C40.9371823,26.2120552 41.7497327,26.2584866 42.248097,26.6902991 C42.7696769,27.1406842 42.8253947,27.912994 42.4245365,28.4407649" id="Fill-4"></path>
                        <path d="M27.9859028,9.4413244 C28.8355983,8.52817251 29.358726,7.29464362 29.358726,5.93420208 C29.358726,3.13593327 27.1516843,0.763286089 24.3936561,0.763286089 C21.6572959,0.763286089 19.3465573,3.13129012 19.3465573,5.93420208 C19.3465573,7.25285531 19.8511124,8.49721821 20.765812,9.4521584 C18.495314,10.7553345 16.8640224,13.2579897 16.8640224,16.1940052 L16.8640224,17.4662269 C16.8640224,18.1673419 17.4196521,18.736901 18.1052899,18.736901 L30.5999935,18.736901 C31.2856312,18.736901 31.841261,18.1673419 31.841261,17.4662269 L31.841261,16.1940052 C31.841261,13.3152552 30.2966413,10.7739071 27.9859028,9.4413244 L27.9859028,9.4413244 Z M24.3936561,3.30772964 C25.7401682,3.30772964 26.8761911,4.51030423 26.8761911,5.93420208 C26.8761911,7.33797964 25.7633839,8.47864563 24.3936561,8.47864563 C23.003808,8.47864563 21.8290923,7.3132162 21.8290923,5.93420208 C21.8290923,4.53506767 23.0285714,3.30772964 24.3936561,3.30772964 L24.3936561,3.30772964 Z M19.3465573,16.1940052 C19.3465573,13.3895455 21.6572959,11.0215415 24.3936561,11.0215415 C27.131564,11.0215415 29.358726,13.3415663 29.358726,16.1940052 L19.3465573,16.1940052 Z" id="Fill-6"></path>
                    </g>
                </g>
            </g>
        </g>
    </g>
</svg>