<?xml version="1.0" encoding="UTF-8"?>
<svg width="93px" height="93px" viewBox="0 0 93 93" version="1.1" xmlns="http://www.w3.org/2000/svg" xmlns:xlink="http://www.w3.org/1999/xlink">
    <!-- Generator: sketchtool 54.1 (76490) - https://sketchapp.com -->
    <title>42AA76AA-C72D-40C3-807B-2F26065788FA</title>
    <desc>Created with sketchtool.</desc>
    <g id="Page-5-HOME-APROBADO" stroke="none" stroke-width="1" fill="none" fill-rule="evenodd">
        <g id="Home_cuponera_02" transform="translate(-1144.000000, -502.000000)">
            <g id="Group-42" transform="translate(1144.000000, 502.000000)">
                <circle id="Oval-Copy-8" fill="#FFFFFF" cx="46.5" cy="46.5" r="46.5"></circle>
                <g id="Group-6" transform="translate(18.000000, 19.000000)" fill="#DA272C">
                    <path d="M2.22195491,22.0267871 L2.17085813,21.4569806 L51.078213,21.4569806 L51.0271162,22.0267871 C50.6849226,25.8064 49.1860839,29.3227871 46.6947291,32.1919484 L46.586342,32.3173677 L46.4253097,32.3560774 C46.1001485,32.4381419 45.7780839,32.5341419 45.462213,32.6456258 L44.9899549,32.8113032 L44.8041485,32.3467871 C44.2699549,31.0136258 43.4802775,29.8167226 42.4521485,28.7885935 L40.2038904,26.5418839 C39.8013097,26.1377548 39.098342,26.1377548 38.694213,26.5418839 L36.4459549,28.7885935 C35.4193743,29.8167226 34.6281485,31.0136258 34.0939549,32.3467871 L33.9081485,32.8113032 L33.4358904,32.6456258 C32.2962775,32.2445935 31.110213,32.0417548 29.910213,32.0417548 L26.7313743,32.0417548 C26.1429872,32.0417548 25.6645356,32.5202065 25.6645356,33.1085935 L25.6645356,36.2889806 C25.6645356,36.7937548 25.7001485,37.3031742 25.7729226,37.8033032 L25.8596323,38.4009806 L20.158471,38.4009806 C10.9316323,38.4009806 3.05189039,31.2087226 2.22195491,22.0267871 L2.22195491,22.0267871 Z M7.89989039,11.434271 L11.1081485,8.22756129 L24.9507291,19.3233032 L13.0653097,19.3233032 L7.89989039,11.434271 Z M5.77705168,10.5408516 C5.3791162,10.9387871 4.84801942,11.1571097 4.28440652,11.1571097 C3.71924523,11.1571097 3.18814845,10.9372387 2.79021297,10.5393032 C1.96647103,9.71556129 1.96647103,8.37620645 2.79021297,7.55091613 L7.2867291,3.0544 C8.08569684,2.25543226 9.47614845,2.25543226 10.2751162,3.0544 C10.6730517,3.45388387 10.8929226,3.98498065 10.8929226,4.54859355 C10.8929226,5.11375484 10.6730517,5.64485161 10.2751162,6.0427871 L5.77705168,10.5408516 Z M51.1014388,34.1754323 L51.1014388,36.2889806 C51.1014388,40.8923355 47.3558904,44.6920774 42.7525356,44.7586581 L41.4627291,44.7756903 L42.3747291,43.8652387 C44.454213,41.7842065 45.558213,39.122529 45.558213,36.2889806 C45.558213,35.962271 45.5427291,35.6371097 45.5133097,35.3150452 L45.4776968,34.9264 L45.8400194,34.7808516 C46.846471,34.3798194 47.9055678,34.1754323 48.9878904,34.1754323 L51.1014388,34.1754323 Z M39.4482775,43.7723355 L37.9556323,42.2796903 C36.3546001,40.6786581 35.4735678,38.5511742 35.4735678,36.2889806 C35.4735678,35.7176258 35.5308581,35.146271 35.642342,34.5934968 C35.9829872,32.9475613 36.7804065,31.4734968 37.9556323,30.298271 L39.4482775,28.8040774 L40.942471,30.298271 C42.1192452,31.4734968 42.9151162,32.9475613 43.2480194,34.5609806 C43.3672452,35.1493677 43.4245356,35.7191742 43.4245356,36.2889806 C43.4245356,38.5511742 42.5435033,40.6786581 40.942471,42.2796903 L39.4482775,43.7723355 Z M36.1455678,44.7586581 C31.542213,44.6920774 27.7966646,40.8923355 27.7966646,36.2889806 L27.7966646,34.1754323 L29.910213,34.1754323 C30.9925356,34.1754323 32.0516323,34.3798194 33.0580839,34.7808516 L33.4204065,34.9264 L33.3847936,35.3150452 C33.3553743,35.6371097 33.3398904,35.962271 33.3398904,36.2889806 C33.3398904,39.122529 34.4438904,41.7842065 36.4459549,43.7878194 L37.4353743,44.7756903 L36.1455678,44.7586581 Z M18.046471,44.7617548 L18.046471,40.4324645 L18.6085356,40.4758194 C19.4555033,40.5408516 19.9509872,40.5346581 21.7997614,40.5346581 C22.7969226,40.5315613 24.1827291,40.5269161 26.2173097,40.5346581 L26.5455678,40.5362065 L26.6880194,40.8334968 C27.2268581,41.962271 27.9561485,42.9826581 28.8557614,43.8652387 L29.7708581,44.7617548 L18.046471,44.7617548 Z M16.9796323,46.8938839 L42.6286646,46.8938839 C48.4769226,46.8938839 53.2335678,42.1372387 53.2335678,36.2889806 L53.2335678,33.1085935 C53.2335678,32.5202065 52.7566646,32.0417548 52.1682775,32.0417548 L49.5515033,32.0417548 L50.0655678,31.2365935 C52.1388581,27.9989161 53.2335678,24.250271 53.2335678,20.3901419 C53.2335678,19.8017548 52.7566646,19.3233032 52.1682775,19.3233032 L28.3618259,19.3233032 L12.5109872,6.61723871 L12.670471,6.25027097 C13.3626001,4.66007742 13.006471,2.76949677 11.7832452,1.54627097 C10.1791162,-0.0594064516 7.38427749,-0.0609548387 5.77705168,1.54627097 L1.28053555,6.0427871 C-0.374690255,7.6980129 -0.374690255,10.3922065 1.28053555,12.0489806 C2.48363233,13.2489806 4.27976136,13.6190452 5.86530974,12.9857548 L6.26169684,12.8278194 L10.5151162,19.3233032 L1.08079362,19.3233032 C0.492406519,19.3233032 0.015503293,19.8017548 0.015503293,20.3901419 C0.015503293,29.7687226 6.3871162,37.8296258 15.5117614,39.9927226 L15.9127936,40.0887226 L15.9127936,45.8270452 C15.9127936,46.4154323 16.3912452,46.8938839 16.9796323,46.8938839 L16.9796323,46.8938839 Z" id="Fill-4"></path>
                </g>
            </g>
        </g>
    </g>
</svg>