<?xml version="1.0" encoding="UTF-8"?>
<svg width="93px" height="93px" viewBox="0 0 93 93" version="1.1" xmlns="http://www.w3.org/2000/svg" xmlns:xlink="http://www.w3.org/1999/xlink">
    <!-- Generator: sketchtool 54.1 (76490) - https://sketchapp.com -->
    <title>F7629F6B-9C29-40C3-A347-6053614654D0</title>
    <desc>Created with sketchtool.</desc>
    <g id="Page-5--APROBADO" stroke="none" stroke-width="1" fill="none" fill-rule="evenodd">
        <g id="iconos-cuponera" transform="translate(-201.000000, -251.000000)">
            <g id="Group-9" transform="translate(201.000000, 251.000000)">
                <g id="Group-5-Copy" fill="#DA272C">
                    <circle id="Oval" cx="46.5" cy="46.5" r="46.5"></circle>
                </g>
                <path d="M71.9999109,56.4764 C71.9999109,54.7428 70.6336232,53.3333333 68.9526039,53.3333333 L67.9378154,53.3333333 L67.9378154,49.9570667 C67.9789953,49.9189333 68.0216458,49.8837333 68.0628256,49.8456 C68.7217028,49.2252 70.0997562,48.8292 70.996888,48.816 C71.5586985,48.8086667 72.0072644,48.3349333 71.9999109,47.7556 C71.9925573,47.1821333 71.5395793,46.7216 70.9851224,46.7216 L70.971886,46.7216 C70.0997562,46.7333333 68.942309,46.9724 67.9378154,47.4622667 L67.9378154,44.7152 C69.1746809,44.1930667 69.9968066,42.8804 69.8203217,41.4225333 C68.6216947,31.4902667 60.3901421,24 50.6717039,24 L41.3282961,24 C31.6098579,24 23.3783053,31.4902667 22.1796783,41.4210667 C22.0046641,42.876 22.820907,44.1916 24.0621846,44.7152 L24.0621846,47.4153333 C23.0547496,46.9445333 21.8928903,46.7084 21.0016413,46.7216 C20.4413015,46.7289333 19.9927356,47.2041333 20.0000891,47.7834667 C20.0074427,48.3569333 20.4604207,48.816 21.0148776,48.816 L21.0295847,48.816 C21.9370115,48.8028 23.3459498,49.1944 24.0342411,49.8412 L24.0621846,49.8661333 L24.0621846,53.3333333 L23.0473961,53.3333333 C21.3634354,53.3333333 20.0000891,54.7398667 20.0000891,56.4764 C20.0000891,58.034 21.1045908,59.3290667 22.5473553,59.5754667 C22.3091006,60.2222667 22.2929229,60.9277333 22.5135291,61.5994667 C23.7724551,65.4274667 27.2506794,68 31.1715869,68 L60.8284131,68 C64.7493206,68 68.2290156,65.4274667 69.4879417,61.598 C69.7070771,60.9277333 69.6908994,60.2222667 69.4541154,59.5769333 C70.8689364,59.3364 71.9999109,58.0648 71.9999109,56.4764 M24.196019,41.6806667 C25.2681651,32.7956 32.6319999,26.0958667 41.3282961,26.0958667 L50.6717039,26.0958667 C59.3665294,26.0958667 66.7318349,32.7956 67.803981,41.6821333 C67.8775164,42.2864 67.4201262,42.8144 66.8539037,42.8525333 C66.8480208,42.854 66.8406673,42.854 66.8333138,42.854 C66.817136,42.8554667 66.7994875,42.8569333 66.781839,42.8569333 L25.218161,42.8569333 C24.6195829,42.8569333 24.1195422,42.3142667 24.196019,41.6806667 M61.9696825,48.2953333 C59.7386185,46.1965333 56.739845,46.1965333 54.5073103,48.2953333 C53.0498387,49.6666667 51.2393971,49.6666667 49.7819255,48.2953333 C47.5493908,46.1965333 44.5506173,46.1965333 42.3195533,48.2953333 C40.8620817,49.6666667 39.0516402,49.6666667 37.5941686,48.2953333 C35.3631046,46.1965333 32.364331,46.1965333 30.1317963,48.2968 C28.8964017,49.4584 27.4168694,49.6432 26.0932323,48.8262667 L26.0932323,44.9528 L65.905297,44.9528 L65.905297,48.8864 C64.611074,49.63 63.1697802,49.4246667 61.9696825,48.2953333 M65.905297,51.1597333 L65.905297,53.3333333 L26.0932323,53.3333333 L26.0932323,51.1274667 C26.643277,51.3225333 27.2065582,51.4208 27.7698393,51.4208 C29.0802401,51.4208 30.3876995,50.8928 31.5010255,49.8441333 C32.9584971,48.4728 34.7689386,48.4728 36.2264102,49.8441333 C38.4574742,51.9444 41.4562477,51.9444 43.6887824,49.8441333 C45.146254,48.4728 46.9566955,48.4728 48.4126964,49.8441333 C50.6452311,51.9444 53.6440047,51.9444 55.8765394,49.8441333 C57.3325403,48.4728 59.1429818,48.4742667 60.6019241,49.8441333 C62.1549917,51.3064 64.1051505,51.7552 65.905297,51.1597333 M67.5627849,60.9262667 C66.5847641,63.9036 63.8786614,65.9041333 60.8284131,65.9041333 L31.1715869,65.9041333 C28.1228093,65.9041333 25.4152359,63.9036 24.4372151,60.9277333 C24.2254331,60.2853333 24.7637123,59.6194667 25.429943,59.6194667 L66.570057,59.6194667 C67.2392292,59.6194667 67.7730962,60.2882667 67.5627849,60.9262667 M68.9526039,57.5236 L23.0473961,57.5236 C22.4870563,57.5236 22.0311368,57.0542667 22.0311368,56.4764 C22.0311368,55.8970667 22.4855856,55.4292 23.0473961,55.4292 L68.9526039,55.4292 C69.5129437,55.4292 69.9688632,55.8985333 69.9688632,56.4764 C69.9688632,57.0542667 69.5144144,57.5236 68.9526039,57.5236" id="Fill-4" fill="#FFFFFF"></path>
            </g>
        </g>
    </g>
</svg>