<?xml version="1.0" encoding="UTF-8"?>
<svg width="59px" height="58px" viewBox="0 0 59 58" version="1.1" xmlns="http://www.w3.org/2000/svg" xmlns:xlink="http://www.w3.org/1999/xlink">
    <!-- Generator: sketchtool 54.1 (76490) - https://sketchapp.com -->
    <title>165896F9-EB88-4389-9FD9-7F4933CC5064</title>
    <desc>Created with sketchtool.</desc>
    <g id="Page-5-HOME-APROBADO" stroke="none" stroke-width="1" fill="none" fill-rule="evenodd">
        <g id="Home_cuponera_02" transform="translate(-362.000000, -1352.000000)">
            <g id="Group-38" transform="translate(362.000000, 1352.000000)">
                <ellipse id="Oval-Copy-16" fill="#FFFFFF" cx="29.5" cy="29" rx="29.5" ry="29"></ellipse>
                <g id="Group-12" transform="translate(14.000000, 11.000000)" fill="#DA272C">
                    <path d="M28.5215828,25.9496097 L3.51683011,1.29470645 C3.34928172,1.12926559 3.11850753,1.04285699 2.88246452,1.05444839 C2.64642151,1.06709355 2.42723871,1.17668495 2.27865806,1.35793226 C2.23123871,1.41378172 1.13848602,2.76681398 1.0584,5.06507204 C0.95723871,8.01877097 2.49257204,11.0820613 5.62224946,14.1674806 L11.8858194,20.3435882 C12.4264,20.8757387 13.1440129,21.1686849 13.9079914,21.1686849 C14.6719699,21.1686849 15.3895828,20.8757387 15.9301634,20.3435882 C15.972314,20.3014376 16.0218409,20.2919538 16.0555613,20.2919538 C16.0892817,20.2919538 16.1377548,20.3014376 16.1809591,20.3435882 L17.1936258,21.3415022 C17.2315613,21.3804914 17.2157548,21.4784914 17.1799269,21.5554161 C16.6857118,22.620771 16.9175398,23.8937172 17.758443,24.7219753 L23.7627871,30.6420183 C24.418228,31.289029 25.2802065,31.6125344 26.1421849,31.6125344 C27.0041634,31.6125344 27.8661419,31.289029 28.5215828,30.6420183 C29.834572,29.3490505 29.834572,27.2436312 28.5215828,25.9496097 M27.3413677,29.4786634 C26.6806581,30.1298892 25.6047656,30.1298892 24.9430022,29.4786634 L18.9386581,23.5575667 C18.5898624,23.212986 18.4918624,22.6839968 18.6984,22.2403624 C19.0356043,21.5143194 18.9070452,20.7039753 18.3738409,20.1781473 L17.3611742,19.1802333 C17.0123785,18.8356527 16.5487226,18.6459753 16.0545075,18.6459753 C15.5624,18.6459753 15.0976903,18.8356527 14.7488946,19.1802333 C14.524443,19.4015237 14.226228,19.5227065 13.9079914,19.5227065 C13.5908086,19.5227065 13.2915398,19.4015237 13.0660344,19.1802333 L6.80351828,13.0041258 C1.95620645,8.2253086 2.48730323,4.74262043 3.11429247,3.22625484 L27.3413677,27.1129645 C28.0031312,27.7652441 28.0031312,28.8263839 27.3413677,29.4786634" id="Fill-4"></path>
                    <path d="M29.2485742,2.36501398 C28.9050473,2.0214871 28.3476065,2.0214871 28.0040796,2.36501398 L22.3875204,7.98157312 C22.0439935,8.3251 22.0439935,8.88254086 22.3875204,9.22606774 C22.5592839,9.39783118 22.7847892,9.48318602 23.0102946,9.48318602 C23.2347462,9.48318602 23.4602516,9.39783118 23.6320151,9.22606774 L29.2485742,3.6095086 C29.5921011,3.26598172 29.5921011,2.70854086 29.2485742,2.36501398" id="Fill-6"></path>
                    <path d="M26.1129957,0.236306452 C25.804243,-0.0787688172 25.3015978,-0.0787688172 24.9938989,0.236306452 L19.8420495,5.49037097 C19.0527806,6.29544624 18.5859634,7.3197043 18.5638344,8.29865054 L18.5280065,9.8013172 L17.0927806,11.2660484 C16.7829742,11.5811237 16.7829742,12.0932527 17.0927806,12.408328 C17.2466301,12.5663925 17.4500065,12.644371 17.652329,12.644371 C17.8557054,12.644371 18.058028,12.5663925 18.2118774,12.408328 L19.8715548,10.7149301 C20.0159204,10.568457 20.098114,10.3714032 20.1033828,10.1638118 L20.1465871,8.33658602 C20.160286,7.77703763 20.4648237,7.14056452 20.9622,6.63265054 L26.1129957,1.37858602 C26.4217484,1.06351075 26.4217484,0.55138172 26.1129957,0.236306452" id="Fill-8"></path>
                    <path d="M12.4017419,22.6190849 C12.076129,22.2882032 11.5481935,22.2882032 11.2236344,22.6190849 L4.55647312,29.4095366 C4.2371828,29.7351495 3.81251613,29.915343 3.35939785,29.915343 C2.90733333,29.915343 2.48266667,29.7351495 2.16337634,29.4095366 C1.84303226,29.0839237 1.66705376,28.6508269 1.66705376,28.1903323 C1.66705376,27.7298376 1.84303226,27.2967409 2.16337634,26.971128 L8.59765591,20.4167194 C8.92326882,20.0847839 8.92326882,19.5473645 8.59765591,19.2164828 C8.27309677,18.8845473 7.74516129,18.8845473 7.41954839,19.2164828 L0.985268817,25.7708914 C0.349849462,26.4168484 -1.27897692e-13,27.2767194 -1.27897692e-13,28.191386 C-1.27897692e-13,29.1049989 0.349849462,29.9638161 0.985268817,30.6097731 C1.61858065,31.2567839 2.46264516,31.6129559 3.35939785,31.6129559 C4.2572043,31.6129559 5.10126882,31.2567839 5.73563441,30.6097731 L12.4017419,23.8203753 C12.7273548,23.4884398 12.7273548,22.9499667 12.4017419,22.6190849" id="Fill-10"></path>
                    <path d="M31.3792839,5.50364839 C31.0673699,5.19068065 30.5605097,5.19068065 30.2475419,5.50364839 L25.0430043,10.7197774 C24.5487892,11.2150462 23.9154774,11.5027237 23.3380151,11.4964011 L21.4570473,11.4679495 C21.2431333,11.4658419 21.0323806,11.5490892 20.8795849,11.7029387 L19.2030473,13.3836914 C18.8900796,13.6966591 18.8900796,14.2045731 19.2030473,14.5175409 C19.3590043,14.6745516 19.5634344,14.7525301 19.7678645,14.7525301 C19.9733484,14.7525301 20.1777785,14.6745516 20.3347892,14.5175409 L21.7710688,13.0770462 L23.3137785,13.100229 C24.3274989,13.1160355 25.3686172,12.6608097 26.1747462,11.8525731 L31.3792839,6.63749785 C31.6911978,6.32453011 31.6911978,5.81661613 31.3792839,5.50364839" id="Fill-12"></path>
                </g>
            </g>
        </g>
    </g>
</svg>