<svg xmlns="http://www.w3.org/2000/svg" width="28" height="28" viewBox="0 0 28 28">
    <path fill="#DA272C" fill-rule="nonzero" d="M23.57 16.69c-.61-.633-1.348-.971-2.129-.971-.775 0-1.518.332-2.155.966l-1.99 1.975c-.164-.087-.328-.169-.486-.25-.226-.113-.44-.22-.623-.333-1.865-1.18-3.56-2.716-5.186-4.704-.787-.991-1.316-1.826-1.7-2.672.516-.47.995-.96 1.46-1.43.177-.176.354-.358.53-.534 1.323-1.317 1.323-3.023 0-4.34l-1.72-1.712c-.195-.195-.397-.396-.586-.596-.378-.39-.775-.79-1.184-1.167C7.19.32 6.459 0 5.69 0c-.769 0-1.512.32-2.142.922l-.013.013-2.142 2.151A4.58 4.58 0 0 0 .026 6.003c-.151 1.831.39 3.537.806 4.654 1.021 2.74 2.546 5.281 4.82 8.003 2.76 3.28 6.08 5.871 9.873 7.697 1.45.683 3.383 1.492 5.544 1.63.133.007.271.013.397.013 1.456 0 2.678-.52 3.636-1.556.006-.012.019-.018.025-.03.328-.396.706-.754 1.103-1.136.27-.257.548-.527.819-.81.623-.645.951-1.398.951-2.17 0-.777-.334-1.524-.97-2.151l-3.46-3.456zm2.256 6.606c-.006 0-.006.006 0 0-.245.263-.497.501-.768.765-.41.389-.826.797-1.216 1.254-.637.678-1.386.998-2.37.998-.094 0-.195 0-.29-.007-1.87-.119-3.61-.846-4.913-1.467-3.567-1.719-6.698-4.159-9.3-7.251-2.148-2.578-3.585-4.962-4.536-7.52-.586-1.563-.8-2.78-.706-3.927a2.874 2.874 0 0 1 .87-1.863l2.148-2.14c.309-.288.636-.444.958-.444.397 0 .718.238.92.439l.018.018c.385.358.75.728 1.134 1.123.196.2.397.402.599.609l1.72 1.712c.668.665.668 1.28 0 1.944-.183.182-.36.364-.542.54-.529.54-1.033 1.041-1.581 1.53-.013.013-.025.02-.032.032-.542.54-.44 1.066-.327 1.424l.019.056c.447 1.079 1.077 2.095 2.035 3.306l.006.006c1.739 2.132 3.572 3.795 5.595 5.068.258.163.523.295.775.42.227.113.44.22.623.333.026.012.05.03.076.043.214.107.416.157.624.157.523 0 .85-.326.957-.432l2.155-2.146c.214-.213.555-.47.952-.47.39 0 .712.245.907.458l.012.012 3.472 3.456c.649.64.649 1.299.006 1.964z"/>
</svg>
