<?xml version="1.0" encoding="UTF-8"?>
<svg width="26px" height="25px" viewBox="0 0 26 25" version="1.1" xmlns="http://www.w3.org/2000/svg" xmlns:xlink="http://www.w3.org/1999/xlink">
    <!-- Generator: sketchtool 54.1 (76490) - https://sketchapp.com -->
    <title>B6C764E7-3085-4530-A664-8EDA5A80D271</title>
    <desc>Created with sketchtool.</desc>
    <g id="Page-5-HOME-APROBADO" stroke="none" stroke-width="1" fill="none" fill-rule="evenodd">
        <g id="Home_cuponera_cupon-_v2" transform="translate(-200.000000, -1080.000000)" fill-rule="nonzero" stroke="#CBCFD6">
            <g id="Group-5" transform="translate(201.000000, 763.000000)">
                <g id="phone-call-(1)" transform="translate(0.000000, 318.000000)">
                    <path d="M23.5305731,20.1814013 C23.5244267,20.1814013 23.5244267,20.1872611 23.5305731,20.1814013 C23.2908671,20.4275159 23.0450149,20.6501911 22.7807237,20.8963057 C22.3812138,21.2596178 21.9755576,21.6405096 21.5944866,22.0682803 C20.9737097,22.7011465 20.2422992,23 19.2834754,23 C19.1912809,23 19.09294,23 19.0007454,22.9941401 C17.1752924,22.8828025 15.4789119,22.2030573 14.2066265,21.6229299 C10.7278172,20.0173248 7.67310299,17.7378344 5.13467852,14.8489172 C3.03878809,12.4405096 1.63743027,10.213758 0.709338032,7.82292994 C0.137731553,6.36382166 -0.0712428586,5.22700637 0.0209517348,4.15464968 C0.082414797,3.46904459 0.358998577,2.90063694 0.869141994,2.41426752 L2.96503242,0.416050955 C3.26620142,0.146496815 3.58580935,0 3.89927096,0 C4.28648826,0 4.59994987,0.222675159 4.79663167,0.410191083 C4.80277798,0.416050955 4.80892429,0.421910828 4.81507059,0.427770701 C5.18999527,0.761783439 5.54648103,1.10751592 5.92140571,1.4766879 C6.11194121,1.66420382 6.308623,1.85171975 6.5053048,2.04509554 L8.1832464,3.64484076 C8.83475486,4.26598726 8.83475486,4.84025478 8.1832464,5.46140127 C8.00500352,5.63133758 7.83290695,5.80127389 7.65466407,5.96535032 C7.13837435,6.46929936 6.64666985,6.93808917 6.11194121,7.39515924 C6.09964859,7.40687898 6.08735598,7.41273885 6.08120967,7.4244586 C5.55262734,7.92840764 5.65096824,8.42063694 5.76160175,8.75464968 C5.76774806,8.7722293 5.77389436,8.78980892 5.78004067,8.80738854 C6.21642841,9.81528662 6.83105903,10.764586 7.76529758,11.8955414 L7.77144389,11.9014013 C9.4678244,13.893758 11.2563995,15.4466242 13.2293638,16.6361783 C13.4813624,16.788535 13.7395072,16.9115924 13.9853595,17.0287898 C14.2066265,17.1342675 14.4156009,17.2338854 14.5938438,17.3393631 C14.618429,17.3510828 14.6430142,17.3686624 14.6675995,17.3803822 C14.8765739,17.48 15.0732557,17.526879 15.2760838,17.526879 C15.7862272,17.526879 16.1058351,17.2221656 16.2103223,17.1225478 L18.3123591,15.1184713 C18.5213335,14.9192357 18.853234,14.6789809 19.2404513,14.6789809 C19.6215223,14.6789809 19.9349839,14.9075159 20.1255194,15.1067516 C20.1316657,15.1126115 20.1316657,15.1126115 20.137812,15.1184713 L23.5244267,18.3472611 C24.1574963,18.9449682 24.1574963,19.5602548 23.5305731,20.1814013 Z" id="Path"></path>
                </g>
            </g>
        </g>
    </g>
</svg>