<?xml version="1.0" encoding="UTF-8"?>
<svg width="171px" height="51px" viewBox="0 0 171 51" version="1.1" xmlns="http://www.w3.org/2000/svg" xmlns:xlink="http://www.w3.org/1999/xlink">
    <!-- Generator: sketchtool 54.1 (76490) - https://sketchapp.com -->
    <title>0E1AA88F-A5D0-4100-B977-7AD4B8102EAE</title>
    <desc>Created with sketchtool.</desc>
    <defs>
        <polygon id="path-1" points="4.88498131e-14 0.8797598 6.67811198 0.8797598 6.67811198 9.06848635 4.88498131e-14 9.06848635"></polygon>
        <polygon id="path-3" points="3.55271368e-14 9.35779025 77.0253901 9.35779025 77.0253901 0.815099392 3.55271368e-14 0.815099392"></polygon>
        <linearGradient x1="60.944388%" y1="4.9481245%" x2="26.6933649%" y2="71.9074222%" id="linearGradient-5">
            <stop stop-color="#00A0FF" offset="0%"></stop>
            <stop stop-color="#00A1FF" offset="1%"></stop>
            <stop stop-color="#00BEFF" offset="26%"></stop>
            <stop stop-color="#00D2FF" offset="51%"></stop>
            <stop stop-color="#00DFFF" offset="76%"></stop>
            <stop stop-color="#00E3FF" offset="100%"></stop>
        </linearGradient>
        <linearGradient x1="107.684729%" y1="50%" x2="-130.640394%" y2="50%" id="linearGradient-6">
            <stop stop-color="#FFE000" offset="0%"></stop>
            <stop stop-color="#FFBD00" offset="41%"></stop>
            <stop stop-color="#FFA500" offset="78%"></stop>
            <stop stop-color="#FF9C00" offset="100%"></stop>
        </linearGradient>
        <linearGradient x1="86.219293%" y1="30.7550895%" x2="-50.1497903%" y2="136.691147%" id="linearGradient-7">
            <stop stop-color="#FF3A44" offset="0%"></stop>
            <stop stop-color="#C31162" offset="100%"></stop>
        </linearGradient>
        <linearGradient x1="-18.7537448%" y1="-12.3374948%" x2="42.1210306%" y2="34.9728498%" id="linearGradient-8">
            <stop stop-color="#32A071" offset="0%"></stop>
            <stop stop-color="#2DA771" offset="7%"></stop>
            <stop stop-color="#15CF74" offset="48%"></stop>
            <stop stop-color="#06E775" offset="80%"></stop>
            <stop stop-color="#00F076" offset="100%"></stop>
        </linearGradient>
    </defs>
    <g id="Page-5-HOME-APROBADO" stroke="none" stroke-width="1" fill="none" fill-rule="evenodd">
        <g id="Home_cuponera_02" transform="translate(-873.000000, -1667.000000)">
            <g id="Group-13" transform="translate(710.000000, 1608.000000)">
                <g id="Group-12">
                    <g id="68747470733a2f2f63646e2e7261776769742e636f6d2f73746576657269636865792f676f6f676c652d706c61792d62616467652d7376672f6d61737465722f696d672f66725f6765742e737667" transform="translate(151.295775, 46.380282)">
                        <polygon id="Shape" points="-1.56319402e-13 -2.13162821e-14 195.028169 -2.13162821e-14 195.028169 75.8030164 -1.56319402e-13 75.8030164"></polygon>
                        <path d="M20.5824625,12.6338361 L174.445706,12.6338361 C178.863984,12.6338361 182.445706,16.2155581 182.445706,20.6338361 L182.445706,55.1691803 C182.445706,59.5874583 178.863984,63.1691803 174.445706,63.1691803 L20.5824625,63.1691803 C16.1641845,63.1691803 12.5824625,59.5874583 12.5824625,55.1691803 L12.5824625,20.6338361 C12.5824625,16.2155581 16.1641845,12.6338361 20.5824625,12.6338361 Z" id="Rectangle-path" fill="#000000" fill-rule="nonzero"></path>
                        <g id="Group-16" transform="translate(65.513338, 21.758273)">
                            <g id="Group-3" transform="translate(0.000000, 0.112454)">
                                <mask id="mask-2" fill="white">
                                    <use xlink:href="#path-1"></use>
                                </mask>
                                <g id="Clip-2"></g>
                                <path d="M5.378505,4.97412308 C5.378505,5.87752452 5.12331902,6.5867739 4.61952401,7.08205978 C4.11441361,7.57866643 3.41594063,7.83093203 2.54515134,7.83093203 L1.27711377,7.83093203 L1.27711377,2.11731412 L2.54515134,2.11731412 C3.41594063,2.11731412 4.11309822,2.37090049 4.61820862,2.87146942 C5.12331902,3.37071759 5.378505,4.0786462 5.378505,4.97412308 M2.54515134,0.8797598 L-0.000131539167,0.8797598 L-0.000131539167,9.06848635 L2.54515134,9.06848635 C3.78819647,9.06848635 4.79973267,8.68546527 5.54950592,7.92734769 C6.29796378,7.17187162 6.67811198,6.17865834 6.67811198,4.97412308 C6.67811198,3.76958782 6.29796378,2.77637453 5.54950592,2.02089847 C4.79973267,1.26278088 3.78819647,0.8797598 2.54515134,0.8797598" id="Fill-1" fill="#FFFFFF" mask="url(#mask-2)"></path>
                            </g>
                            <mask id="mask-4" fill="white">
                                <use xlink:href="#path-3"></use>
                            </mask>
                            <g id="Clip-5"></g>
                            <polygon id="Fill-4" fill="#FFFFFF" mask="url(#mask-4)" points="7.83841897 9.1808081 9.11566428 9.1808081 9.11566428 0.992081546 7.83841897 0.992081546"></polygon>
                            <path d="M14.9182516,5.08459576 C14.6433347,4.88383988 14.3697332,4.72138611 14.1027087,4.60119674 C13.8369996,4.48100736 13.5134133,4.35949723 13.1135342,4.23006252 C12.6413086,4.07421256 12.2782605,3.89855117 12.0362284,3.70571987 C11.8126118,3.52609619 11.7047497,3.31609497 11.7047497,3.06118784 C11.7047497,2.77590317 11.823135,2.54476976 12.0677978,2.35193846 C12.3177222,2.15382411 12.6255239,2.05344617 12.9833104,2.05344617 C13.3621432,2.05344617 13.6752064,2.15118258 13.9093461,2.34401389 C14.147432,2.53816595 14.2973867,2.75080869 14.3565793,2.97269676 L14.3960411,3.11930138 L15.5706858,2.62797779 L15.5338549,2.51307147 C15.4023157,2.09042751 15.1129295,1.69948186 14.6749041,1.34683831 C14.2342479,0.994194766 13.6581063,0.814571087 12.9622641,0.814571087 C12.2111755,0.814571087 11.591626,1.03910069 11.1194004,1.48155607 C10.6458594,1.92665298 10.4051427,2.45759945 10.4051427,3.06118784 C10.4051427,3.64100251 10.5998207,4.12440153 10.9852305,4.5008188 C11.3588017,4.86402844 11.9112662,5.1638415 12.6268393,5.38969186 C13.2858505,5.5917685 13.7699146,5.80969428 14.0685085,6.03818617 C14.3473716,6.25347043 14.4828569,6.55328349 14.4828569,6.956116 C14.4828569,7.31536336 14.3473716,7.59008193 14.0685085,7.79744162 C13.7817532,8.01140512 13.4279128,8.11970763 13.0175106,8.11970763 C12.6215777,8.11970763 12.2729989,7.98366911 11.950728,7.70366749 C11.6324032,7.42498664 11.4193097,7.07762614 11.3153938,6.66951057 L11.2785628,6.52290595 L10.1065488,6.99970116 L10.1341721,7.1106452 C10.3091191,7.81857382 10.6892673,8.37725629 11.2627781,8.77084347 C11.8297119,9.16046836 12.4203228,9.35726195 13.0175106,9.35726195 C13.3450431,9.35726195 13.6699449,9.30971451 13.9816927,9.21329885 C14.2921251,9.11952473 14.5880883,8.97688239 14.8603743,8.79329643 C15.1392374,8.60310665 15.3654847,8.34423723 15.5312241,8.0259335 C15.6982788,7.70630902 15.7837793,7.33913708 15.7837793,6.9349838 C15.7837793,6.53347205 15.7101173,6.17422469 15.5667397,5.86648707 C15.4207312,5.55478715 15.2023762,5.29195544 14.9182516,5.08459576" id="Fill-6" fill="#FFFFFF" mask="url(#mask-4)"></path>
                            <path d="M21.0976986,3.4821148 C21.0976986,3.797777 20.9832595,4.08042014 20.746489,4.34589338 C20.5136647,4.60608356 20.2098092,4.73287674 19.8191378,4.73287674 L18.2525064,4.73287674 L18.2525064,2.23003209 L19.8191378,2.23003209 C20.2098092,2.23003209 20.5136647,2.35682528 20.746489,2.61833622 C20.9832595,2.88380946 21.0976986,3.1664526 21.0976986,3.4821148 M19.7967762,0.992477775 L16.9752611,0.992477775 L16.9752611,9.18120433 L18.2525064,9.18120433 L18.2525064,5.97175182 L19.7967762,5.97175182 C20.4965646,5.97175182 21.1108525,5.7340146 21.6212244,5.26778549 C22.136858,4.7975941 22.3973055,4.19664723 22.3973055,3.4821148 C22.3973055,2.76626161 22.136858,2.16531474 21.6212244,1.69644411 C21.1108525,1.22889424 20.4965646,0.992477775 19.7967762,0.992477775" id="Fill-7" fill="#FFFFFF" mask="url(#mask-4)"></path>
                            <path d="M29.9932978,5.0865769 C29.9932978,5.96752539 29.711804,6.70186925 29.1540779,7.2684763 C28.5989826,7.83376258 27.9097174,8.11904725 27.1033823,8.11904725 C26.2983626,8.11904725 25.6090974,7.83376258 25.0540021,7.2684763 C24.4975914,6.70186925 24.2147822,5.96752539 24.2147822,5.0865769 C24.2147822,4.20562841 24.4975914,3.47128455 25.0540021,2.9046775 C25.6090974,2.33939122 26.2983626,2.05410655 27.1033823,2.05410655 C27.9097174,2.05410655 28.5989826,2.33939122 29.1540779,2.9046775 C29.711804,3.47128455 29.9932978,4.20562841 29.9932978,5.0865769 M27.1033823,0.815231468 C25.9182144,0.815231468 24.9132552,1.23259237 24.1161278,2.05674807 C23.3203159,2.87826225 22.9164906,3.89657002 22.9164906,5.0865769 C22.9164906,6.27658377 23.3203159,7.29489154 24.1161278,8.11640572 C24.9132552,8.93924067 25.9182144,9.35792233 27.1033823,9.35792233 C28.2898656,9.35792233 29.2948248,8.93924067 30.0919522,8.11640572 C30.8877641,7.29357078 31.2915894,6.27394225 31.2915894,5.0865769 C31.2915894,3.9044946 30.8864488,2.88750759 30.0866906,2.06071036 C29.2843017,1.23391313 28.2806579,0.815231468 27.1033823,0.815231468" id="Fill-8" fill="#FFFFFF" mask="url(#mask-4)"></path>
                            <polygon id="Fill-9" fill="#FFFFFF" mask="url(#mask-4)" points="37.5227313 5.7657129 37.5529853 6.87911556 33.8909349 0.992477775 32.4518964 0.992477775 32.4518964 9.18120433 33.7291417 9.18120433 33.7291417 4.10947691 33.6962569 2.99607426 37.4977388 9.1191285 37.5372006 9.18120433 38.7999766 9.18120433 38.7999766 0.992477775 37.5227313 0.992477775"></polygon>
                            <polygon id="Fill-10" fill="#FFFFFF" mask="url(#mask-4)" points="40.3443779 9.1808081 41.6203079 9.1808081 41.6203079 0.992081546 40.3443779 0.992081546"></polygon>
                            <path d="M47.200594,7.57661015 L47.200594,7.57661015 C46.9809235,7.82359271 46.7033759,7.94246132 46.3508509,7.94246132 L44.4409022,7.94246132 L44.4409022,5.60603273 L46.3048122,5.60603273 C46.6757527,5.60603273 46.9638235,5.72490134 47.1900708,5.96792161 C47.418949,6.21358341 47.5307573,6.47641512 47.5307573,6.7683036 C47.5307573,7.0628336 47.4228951,7.32830683 47.200594,7.57661015 M46.9743466,4.05149545 C46.7691455,4.27866657 46.4994902,4.38961061 46.1509114,4.38961061 L44.4409022,4.38961061 L44.4409022,2.23016417 L46.1956347,2.23016417 C46.5271134,2.23016417 46.7849302,2.33978745 46.9848697,2.56299628 C47.1887554,2.79016741 47.2874098,3.03318768 47.2874098,3.30526472 C47.2874098,3.576021 47.1848093,3.82036204 46.9743466,4.05149545 M47.6294116,4.94036851 C47.8806514,4.79112236 48.0871679,4.59432877 48.2502765,4.35262926 C48.4594238,4.04489164 48.5646551,3.68432352 48.5646551,3.28281176 C48.5646551,2.62639287 48.3226231,2.07431421 47.8438205,1.6397834 C47.3676487,1.21053564 46.7980841,0.992609851 46.1509114,0.992609851 L43.1662877,0.992609851 L43.1662877,9.18133641 L46.3048122,9.18133641 C46.9822389,9.18133641 47.5781114,8.95284452 48.074014,8.50510608 C48.5764936,8.0520846 48.8290488,7.47623221 48.8290488,6.79075656 C48.8290488,6.33641431 48.6948789,5.92961951 48.4278544,5.58093825 C48.2121301,5.30093663 47.9437902,5.08697313 47.6294116,4.94036851" id="Fill-11" fill="#FFFFFF" mask="url(#mask-4)"></path>
                            <polygon id="Fill-12" fill="#FFFFFF" mask="url(#mask-4)" points="51.2097762 0.992081546 49.9338463 0.992081546 49.9338463 9.1808081 54.6271638 9.1808081 54.6271638 7.94325378 51.2097762 7.94325378"></polygon>
                            <polygon id="Fill-13" fill="#FFFFFF" mask="url(#mask-4)" points="55.6439616 9.18107225 60.5135415 9.18107225 60.5135415 7.94351793 56.9198915 7.94351793 56.9198915 5.69425966 60.1610166 5.69425966 60.1610166 4.47783753 56.9198915 4.47783753 56.9198915 2.22990002 60.5135415 2.22990002 60.5135415 0.992345699 55.6439616 0.992345699"></polygon>
                            <polygon id="Fill-14" fill="#FFFFFF" mask="url(#mask-4)" points="64.4843144 9.18107225 69.3538943 9.18107225 69.3538943 7.94351793 65.7602443 7.94351793 65.7602443 5.69425966 69.0013694 5.69425966 69.0013694 4.47783753 65.7602443 4.47783753 65.7602443 2.22990002 69.3538943 2.22990002 69.3538943 0.992345699 64.4843144 0.992345699"></polygon>
                            <polygon id="Fill-15" fill="#FFFFFF" mask="url(#mask-4)" points="75.7486709 0.992081546 75.7486709 5.76531667 75.7789249 6.88004009 72.1168745 0.992081546 70.6791514 0.992081546 70.6791514 9.1808081 71.953766 9.1808081 71.953766 4.10908069 71.923512 2.99567803 75.7236785 9.11873227 75.7631402 9.1808081 77.0259162 9.1808081 77.0259162 0.992081546"></polygon>
                        </g>
                        <path d="M176.154475,13.6445429 C179.073098,13.6445429 181.439109,16.0202146 181.439109,18.9507541 L181.439109,56.8522623 C181.439109,59.7828018 179.073098,62.1584734 176.154475,62.1584734 L18.8736938,62.1584734 C15.9550709,62.1584734 13.5890595,59.7828018 13.5890595,56.8522623 L13.5890595,18.9507541 C13.5890595,16.0202146 15.9550709,13.6445429 18.8736938,13.6445429 L176.154475,13.6445429 L176.154475,13.6445429 Z M176.154475,12.6338361 L18.8736938,12.6338361 C15.3991427,12.6338361 12.5824625,15.4620166 12.5824625,18.9507541 L12.5824625,56.8522623 C12.5824625,60.3409998 15.3991427,63.1691803 18.8736938,63.1691803 L176.154475,63.1691803 C179.629026,63.1691803 182.445706,60.3409998 182.445706,56.8522623 L182.445706,18.9507541 C182.445706,15.4620166 179.629026,12.6338361 176.154475,12.6338361 Z" id="Shape" fill="#A6A6A6" fill-rule="nonzero"></path>
                        <path d="M98.3193621,40.1124295 C95.3693094,40.1263689 92.9877624,42.5364598 92.9970067,45.4985757 C93.006251,48.4606916 95.4027941,50.8557488 98.3528759,50.8511241 C101.302958,50.8464995 103.692041,48.4439403 103.692074,45.4818098 C103.712801,44.0470783 103.152577,42.665361 102.139719,41.6531304 C101.12686,40.6408998 99.7481465,40.0848822 98.3193621,40.1124295 L98.3193621,40.1124295 Z M98.3193621,48.7413395 C96.9896819,48.8347102 95.7382875,48.1024635 95.1637073,46.8948249 C94.5891271,45.6871863 94.8081452,44.2496101 95.7160077,43.2696732 C96.6238701,42.2897363 98.0360527,41.9666122 99.2771239,42.4548476 C100.518195,42.9430831 101.335905,44.1434436 101.339153,45.4818098 C101.3801,46.3190186 101.082512,47.1373386 100.51392,47.7510705 C99.9453283,48.3648024 99.1539469,48.7219041 98.3193621,48.7413395 L98.3193621,48.7413395 Z M86.6050895,40.1124295 C83.653369,40.1194031 81.2655045,42.5264357 81.270132,45.4902126 C81.2747594,48.4539894 83.6701285,50.8534927 86.6218563,50.8511736 C89.5735841,50.8488546 91.9652104,48.4455903 91.9652185,45.4818098 C91.9859456,44.0470783 91.4257223,42.665361 90.4128637,41.6531304 C89.4000051,40.6408998 88.0212914,40.0848822 86.592507,40.1124295 L86.6050895,40.1124295 Z M86.6050895,48.7413395 C85.2747152,48.8399757 84.0196722,48.1113802 83.4410427,46.9045018 C82.8624133,45.6976234 83.0780022,44.2581742 83.9845569,43.2755547 C84.8911115,42.2929352 86.3040636,41.9671999 87.5467029,42.4543544 C88.7893422,42.9415089 89.6086761,44.1423719 89.612298,45.4818098 C89.6532449,46.3190186 89.355657,47.1373386 88.7870651,47.7510705 C88.2184732,48.3648024 87.4270919,48.7219041 86.592507,48.7413395 L86.6050895,48.7413395 Z M72.6511386,41.767462 L72.6511386,44.0415525 L78.0867624,44.0415525 C78.0015331,45.1126539 77.5581035,46.123349 76.8285161,46.9094333 C75.7288377,48.0341285 74.2070144,48.6398368 72.6385561,48.5770997 C69.3029871,48.5770997 66.5989741,45.8620463 66.5989741,42.5128583 C66.5989741,39.1636704 69.3029871,36.448617 72.6385561,36.448617 C74.170843,36.4235248 75.6504981,37.0096252 76.7530214,38.0783819 L78.3509941,36.4738847 C76.8472886,34.9450113 74.7910611,34.0927277 72.6511386,34.1113574 C69.604875,33.9923201 66.7378764,35.5562535 65.1794887,38.187105 C63.621101,40.8179564 63.621101,44.0940558 65.1794887,46.7249072 C66.7378764,49.3557586 69.604875,50.919692 72.6511386,50.8006548 C74.8301254,50.89952 76.9452068,50.0472691 78.4516538,48.4633951 C79.7698879,47.0091415 80.4737097,45.0974395 80.4145179,43.1319163 C80.4185781,42.653079 80.3764399,42.1749725 80.2886933,41.7042928 L72.6511386,41.767462 Z M129.662276,43.5361991 C128.990473,41.5516888 127.168341,40.1895629 125.08226,40.1124295 C123.691097,40.1096984 122.360856,40.6852572 121.4074,41.7024402 C120.453944,42.7196232 119.962324,44.0876952 120.049275,45.4818098 C120.018374,46.908544 120.566621,48.2865572 121.568044,49.299217 C122.569467,50.3118767 123.937958,50.8721103 125.359074,50.8511901 C127.146864,50.8608664 128.820061,49.9686479 129.813266,48.476029 L127.988809,47.2126454 C127.434861,48.1398959 126.435952,48.7061758 125.359074,48.703438 C124.243754,48.7461216 123.215829,48.0997931 122.767087,47.0736732 L129.926508,44.1047217 L129.662276,43.5361991 Z M122.364448,45.3302038 C122.312925,44.5407966 122.580018,43.7637913 123.105513,43.1743548 C123.631008,42.5849183 124.370672,42.2326672 125.157755,42.1970124 C125.987404,42.1421204 126.769652,42.5895237 127.145784,43.3340577 L122.364448,45.3302038 Z M116.55135,50.5353442 L118.904271,50.5353442 L118.904271,34.7430492 L116.55135,34.7430492 L116.55135,50.5353442 Z M112.701117,41.3126439 L112.61304,41.3126439 C111.895791,40.5074602 110.87044,40.0478453 109.794568,40.0492603 C106.938534,40.188323 104.694062,42.5538925 104.694062,45.4249576 C104.694062,48.2960226 106.938534,50.6615921 109.794568,50.8006548 C110.873928,50.8188775 111.905925,50.3562834 112.61304,49.5372712 L112.688534,49.5372712 L112.688534,50.3079352 C112.688534,52.3672505 111.59386,53.4663942 109.832315,53.4663942 C108.63233,53.4381922 107.568388,52.684402 107.139668,51.558685 L105.088727,52.4177858 C105.878505,54.3467338 107.755241,55.6013335 109.832315,55.5888787 C112.587875,55.5888787 114.8653,53.9591138 114.8653,49.9920893 L114.8653,40.4282754 L112.701117,40.4282754 L112.701117,41.3126439 Z M110.00847,48.7413395 C108.326053,48.5924621 107.035707,47.1776433 107.035707,45.4818098 C107.035707,43.7859763 108.326053,42.3711575 110.00847,42.2222801 C110.821447,42.2641708 111.583147,42.6338528 112.120876,43.2475115 C112.658605,43.8611702 112.926812,44.6668224 112.864689,45.4818098 C112.934062,46.3005448 112.666713,47.1121194 112.124803,47.7278377 C111.582892,48.343556 110.813635,48.7097724 109.995887,48.7413395 L110.00847,48.7413395 Z M140.684513,34.7430492 L135.060153,34.7430492 L135.060153,50.5353442 L137.413073,50.5353442 L137.413073,44.546906 L140.697096,44.546906 C142.52493,44.6787575 144.272999,43.7743582 145.226946,42.2032952 C146.180893,40.6322322 146.180893,38.6577229 145.226946,37.0866599 C144.272999,35.5155969 142.52493,34.6111976 140.697096,34.7430492 L140.684513,34.7430492 Z M140.684513,42.3233508 L137.400491,42.3233508 L137.400491,36.9413366 L140.734843,36.9413366 C142.225426,36.9413366 143.433781,38.1546261 143.433781,39.6512945 C143.433781,41.1479629 142.225426,42.3612523 140.734843,42.3612523 L140.684513,42.3233508 Z M155.192093,40.0492603 C153.441511,39.944196 151.795692,40.8920484 151.002133,42.462323 L153.090821,43.3340577 C153.511586,42.5553942 154.350483,42.0995494 155.22984,42.1717448 C155.833204,42.1009885 156.439586,42.2765678 156.91278,42.6590447 C157.385975,43.0415216 157.686312,43.5988312 157.746333,44.2057924 L157.746333,44.3700322 C156.99062,43.9682751 156.147847,43.7599761 155.292752,43.7636081 C153.040492,43.7636081 150.763066,45.0269917 150.763066,47.313716 C150.80797,48.2987874 151.247793,49.2237367 151.982472,49.8781288 C152.71715,50.5325208 153.684208,50.8607068 154.663629,50.788021 C155.870576,50.8750467 157.02859,50.2936756 157.68342,49.2719606 L157.758915,49.2719606 L157.758915,50.5353442 L160.023758,50.5353442 L160.023758,44.4584691 C160.023758,41.691659 157.93507,40.0871618 155.255005,40.0871618 L155.192093,40.0492603 Z M154.902696,48.703438 C154.135166,48.703438 153.065657,48.3117891 153.065657,47.3642514 C153.065657,46.1008678 154.399398,45.6839512 155.582149,45.6839512 C156.3296,45.6654324 157.068302,45.8486805 157.721168,46.2145723 C157.558471,47.6288229 156.383053,48.7066477 154.965608,48.7413395 L154.902696,48.703438 Z M168.277854,40.4282754 L165.585207,47.2758145 L165.509712,47.2758145 L162.716405,40.4282754 L160.199913,40.4282754 L164.389873,50.0047231 L161.999205,55.3235681 L164.452785,55.3235681 L170.895006,40.4282754 L168.277854,40.4282754 Z M147.126734,50.5353442 L149.479655,50.5353442 L149.479655,34.7430492 L147.126734,34.7430492 L147.126734,50.5353442 Z" id="Shape" fill="#FFFFFF" fill-rule="nonzero"></path>
                        <path d="M25.7185534,22.1597485 C25.3084468,22.6538683 25.1014511,23.2864275 25.1397601,23.9284855 L25.1397601,51.8745309 C25.1014511,52.5165888 25.3084468,53.1491481 25.7185534,53.6432679 L25.8066306,53.7317048 L41.3963017,38.0910157 L41.3963017,37.7246345 L25.8066306,22.0713116 L25.7185534,22.1597485 Z" id="Shape" fill="url(#linearGradient-5)" fill-rule="nonzero"></path>
                        <path d="M46.5551113,43.30879 L41.3963017,38.0910157 L41.3963017,37.7246345 L46.5551113,32.4942263 L46.6683535,32.5573955 L52.8463426,36.0822358 C54.6078873,37.0803088 54.6078873,38.7227075 52.8463426,39.7334144 L46.6935184,43.2456208 L46.5551113,43.30879 Z" id="Shape" fill="url(#linearGradient-6)" fill-rule="nonzero"></path>
                        <path d="M46.7061009,43.232987 L41.3963017,37.9015082 L25.7185534,53.6432679 C26.4593053,54.2970972 27.5586491,54.3289386 28.3357056,53.7190709 L46.7186833,43.232987" id="Shape" fill="url(#linearGradient-7)" fill-rule="nonzero"></path>
                        <path d="M46.7061009,32.5700294 L28.3231231,22.0839454 C27.5460667,21.4740778 26.4467228,21.5059191 25.7059709,22.1597485 L41.3963017,37.9015082 L46.7061009,32.5700294 Z" id="Shape" fill="url(#linearGradient-8)" fill-rule="nonzero"></path>
                        <path d="M46.5551113,43.1192825 L28.3231231,53.5421972 C27.5770316,54.1023012 26.5527222,54.1023012 25.8066306,53.5421972 L25.7185534,53.6306341 L25.8066306,53.7190709 C26.5513184,54.2833982 27.5784354,54.2833982 28.3231231,53.7190709 L46.7061009,43.232987 L46.5551113,43.1192825 Z" id="Shape" fill="#000000" fill-rule="nonzero" opacity="0.2"></path>
                        <path d="M25.7185534,53.4663942 C25.3084468,52.9722744 25.1014511,52.3397151 25.1397601,51.6976572 L25.1397601,51.8871647 C25.1014511,52.5292227 25.3084468,53.1617819 25.7185534,53.6559018 L25.8066306,53.5674649 L25.7185534,53.4663942 Z M52.8463426,39.5439069 L46.5551113,43.1192825 L46.6683535,43.232987 L52.8463426,39.7207806 C53.5598564,39.3842319 54.0397494,38.6903645 54.1045888,37.9015082 C53.9611859,38.6151152 53.4964859,39.2216917 52.8463426,39.5439069 Z" id="Shape" fill="#000000" fill-rule="nonzero" opacity="0.12"></path>
                        <path d="M28.3231231,22.2608191 L52.8463426,36.2591095 C53.4964859,36.5813247 53.9611859,37.1879012 54.1045888,37.9015082 C54.0397494,37.1126519 53.5598564,36.4187845 52.8463426,36.0822358 L28.3231231,22.0839454 C26.5615784,21.0858724 25.1271776,21.9197056 25.1271776,23.9411193 L25.1271776,24.1306269 C25.164925,22.0965793 26.5741608,21.2627461 28.3231231,22.2608191 L28.3231231,22.2608191 Z" id="Shape" fill="#FFFFFF" fill-rule="nonzero" opacity="0.25"></path>
                    </g>
                </g>
            </g>
        </g>
    </g>
</svg>