<svg xmlns="http://www.w3.org/2000/svg" width="85" height="54" viewBox="0 0 85 54">
    <g fill="none" fill-rule="nonzero">
        <path fill="#0FBDDF" d="M0 0h58c14.9 0 27 12.1 27 27S72.9 54 58 54H.2L0 0z"/>
        <path fill="#FFF" d="M55.4 36.3l-5.6-5.6-.1-.1c1.2-1.7 1.8-3.8 1.8-5.9 0-5.9-4.8-10.7-10.7-10.7-6 0-10.8 4.8-10.8 10.7 0 5.9 4.8 10.7 10.7 10.7 2.2 0 4.2-.6 5.9-1.8 0 0 0 .1.1.1l5.6 5.6c.9.8 2.2.8 3.1 0 .8-.8.8-2.2 0-3zm-14.7-4.6c-3.9 0-7-3-7.1-6.9 0-3.9 3-7 6.9-7.1h.2c3.9 0 6.9 3.2 6.9 7.1-.1 3.8-3.1 6.8-6.9 6.9z"/>
    </g>
</svg>
