<?xml version="1.0" encoding="UTF-8"?>
<svg width="25px" height="25px" viewBox="0 0 25 25" version="1.1" xmlns="http://www.w3.org/2000/svg" xmlns:xlink="http://www.w3.org/1999/xlink">
    <!-- Generator: sketchtool 54.1 (76490) - https://sketchapp.com -->
    <title>4E431E50-A27E-4DAF-B156-C26E39D6CA4B</title>
    <desc>Created with sketchtool.</desc>
    <g id="Page-5--APROBADO" stroke="none" stroke-width="1" fill="none" fill-rule="evenodd">
        <g id="Home_cuponera_buscador" transform="translate(-99.000000, -439.000000)">
            <g id="Group-5" transform="translate(99.000000, 439.000000)">
                <g id="Group-21-Copy-4" transform="translate(12.500000, 12.500000) scale(-1, 1) translate(-12.500000, -12.500000) ">
                    <circle id="Oval-Copy-9" fill="#FFFFFF" transform="translate(12.500000, 12.500000) scale(-1, 1) translate(-12.500000, -12.500000) " cx="12.5" cy="12.5" r="12.5"></circle>
                    <path d="M11.6504269,12.711228 L15.9400681,7.55240314 C16.0456183,7.42546585 16.0456183,7.22207293 15.9400681,7.09513564 C15.8346173,6.96828812 15.6653935,6.96828812 15.5599427,7.09513564 L11.0791067,12.4838959 C10.9736311,12.6107135 10.9736311,12.8142262 11.0791067,12.9410437 L15.5599427,18.3273503 C15.6116479,18.3896519 15.681343,18.4230769 15.7489728,18.4230769 C15.8166275,18.4230769 15.8863225,18.391986 15.9381272,18.3273503 C16.043578,18.2005327 16.043578,17.9970201 15.9381272,17.8702025 L11.6504269,12.711228 Z" id="Fill-1-Copy" stroke="#DA272C" stroke-width="1.5" fill="#DA272C" transform="translate(13.509615, 12.711538) scale(-1, 1) translate(-13.509615, -12.711538) "></path>
                </g>
            </g>
        </g>
    </g>
</svg>