<svg xmlns="http://www.w3.org/2000/svg" width="85" height="54" viewBox="0 0 85 54">
    <g fill="none" fill-rule="evenodd">
        <path fill="#2197AE" d="M0 0h58c14.912 0 27 12.088 27 27S72.912 54 58 54H.25L0 0z"/>
        <path fill="#FFF" d="M55.364 36.291l-5.649-5.648c-.03-.03-.065-.051-.096-.08a10.637 10.637 0 0 0 1.76-5.873c0-5.904-4.786-10.69-10.69-10.69C34.786 14 30 18.786 30 24.69c0 5.903 4.786 10.689 10.69 10.689 2.17 0 4.188-.649 5.874-1.76.028.031.048.066.078.096l5.649 5.649a2.173 2.173 0 0 0 3.073-3.073zm-14.675-4.618a6.984 6.984 0 1 1 0-13.967 6.984 6.984 0 0 1 0 13.967z"/>
    </g>
</svg>
