<?xml version="1.0" encoding="UTF-8"?>
<svg width="38px" height="40px" viewBox="0 0 38 40" version="1.1" xmlns="http://www.w3.org/2000/svg" xmlns:xlink="http://www.w3.org/1999/xlink">
    <!-- Generator: sketchtool 54.1 (76490) - https://sketchapp.com -->
    <title>75F127D9-B6C4-4EB1-9967-559EDDF77AD8</title>
    <desc>Created with sketchtool.</desc>
    <g id="Page-5-HOME-APROBADO" stroke="none" stroke-width="1" fill="none" fill-rule="evenodd">
        <g id="Home_cuponera_cupon-_v2" transform="translate(-1124.000000, -415.000000)" fill="#4A4A4A" fill-rule="nonzero">
            <g id="Group-2" transform="translate(1124.000000, 415.000000)">
                <g id="share-(1)">
                    <path d="M30.2161725,25.4692812 C27.9454509,25.4692812 25.9206558,26.5558827 24.6254428,28.235176 L13.780083,22.1518538 C14.0342071,21.419221 14.1735654,20.6289653 14.1735654,19.8140142 C14.1735654,18.9908312 14.0342071,18.2088074 13.7718854,17.4679427 L24.6090477,11.3928524 C25.8960632,13.0803775 27.9290558,14.1752108 30.2079749,14.1752108 C34.093614,14.1752108 37.2660662,10.9977245 37.2660662,7.08760541 C37.2660662,3.17748628 34.1018116,0 30.2079749,0 C26.3141382,0 23.1498836,3.17748628 23.1498836,7.08760541 C23.1498836,7.91078838 23.289242,8.70104404 23.5515636,9.43367688 L12.7225989,15.5087672 C11.4355834,13.8130103 9.40259083,12.7264088 7.12367169,12.7264088 C3.23803259,12.7264088 0.0655804068,15.9038951 0.0655804068,19.8140142 C0.0655804068,23.7241333 3.23803259,26.9016196 7.13186924,26.9016196 C9.41078838,26.9016196 11.443781,25.8067862 12.738994,24.1110293 L23.5761563,30.1943515 C23.3138346,30.9352162 23.1662787,31.7337037 23.1662787,32.5568866 C23.1662787,36.4587739 26.3305333,39.644492 30.22437,39.644492 C34.1182067,39.644492 37.2824613,36.4670058 37.2824613,32.5568866 C37.2824613,28.6467675 34.1100091,25.4692812 30.2161725,25.4692812 Z M30.2161725,2.23082586 C32.888574,2.23082586 35.060925,4.41226074 35.060925,7.09583724 C35.060925,9.77941373 32.888574,11.9608486 30.2161725,11.9608486 C27.5437709,11.9608486 25.3714199,9.77941373 25.3714199,7.09583724 C25.3714199,4.41226074 27.5519684,2.23082586 30.2161725,2.23082586 Z M7.13186924,24.6790256 C4.45946767,24.6790256 2.28711669,22.4975907 2.28711669,19.8140142 C2.28711669,17.1304377 4.45946767,14.9490028 7.13186924,14.9490028 C9.80427082,14.9490028 11.9766218,17.1304377 11.9766218,19.8140142 C11.9766218,22.4975907 9.79607327,24.6790256 7.13186924,24.6790256 Z M30.2161725,37.4136662 C27.5437709,37.4136662 25.3714199,35.2322313 25.3714199,32.5486548 C25.3714199,29.8650783 27.5437709,27.6836434 30.2161725,27.6836434 C32.888574,27.6836434 35.060925,29.8650783 35.060925,32.5486548 C35.060925,35.2322313 32.888574,37.4136662 30.2161725,37.4136662 Z" id="Shape"></path>
                </g>
            </g>
        </g>
    </g>
</svg>