<?xml version="1.0" encoding="UTF-8"?>
<svg width="52px" height="35px" viewBox="0 0 52 35" version="1.1" xmlns="http://www.w3.org/2000/svg" xmlns:xlink="http://www.w3.org/1999/xlink">
    <!-- Generator: sketchtool 54.1 (76490) - https://sketchapp.com -->
    <title>0F4A9E7A-AC6A-405E-8B34-1434540D2414</title>
    <desc>Created with sketchtool.</desc>
    <g id="Page-5-HOME-APROBADO" stroke="none" stroke-width="1" fill="none" fill-rule="evenodd">
        <g id="Home_cuponera_cupon-_v2" transform="translate(-209.000000, -700.000000)">
            <g id="Group-5" transform="translate(209.000000, 692.000000)">
                <g id="Promo">
                    <rect id="base" x="0" y="0" width="43.828125" height="44"></rect>
                    <g id="004-voucher" transform="translate(0.000000, 8.000000)" fill="#9B9B9B" fill-rule="nonzero">
                        <path d="M42.8715588,0.0701875902 L0.956566222,0.0701875902 C0.452194942,0.0701875902 0.0434802847,0.482539683 0.0434802847,0.991399711 L0.0434802847,10.8615296 C0.0434802847,11.3703896 0.452194942,11.7827417 0.956566222,11.7827417 C2.76534598,11.7827417 4.23497954,13.2654545 4.23497954,15.0903319 C4.23497954,16.9152092 2.76534598,18.3979221 0.956566222,18.3979221 C0.452194942,18.3979221 0.0434802847,18.8102742 0.0434802847,19.3191342 L0.0434802847,29.1892641 C0.0434802847,29.6981241 0.452194942,30.1104762 0.956566222,30.1104762 L42.8715588,30.1104762 C43.3759301,30.1104762 43.7846447,29.6981241 43.7846447,29.1892641 L43.7846447,0.991399711 C43.7846447,0.482539683 43.3759301,0.0701875902 42.8715588,0.0701875902 Z M41.9584728,28.2680519 L14.4441499,28.2680519 L14.4441499,27.7767388 C14.4441499,27.2678788 14.0354353,26.8555267 13.531064,26.8555267 C13.0266927,26.8555267 12.6179781,27.2678788 12.6179781,27.7767388 L12.6179781,28.2680519 L1.86965216,28.2680519 L1.86965216,20.1701587 L2.16531808,20.0999711 C4.46107701,19.5384704 6.06115142,17.47671 6.06115142,15.0991053 C6.06115142,12.7215007 4.46107701,10.6597403 2.16531808,10.0982395 L1.86965216,10.0280519 L1.86965216,1.93015873 L12.6179781,1.93015873 L12.6179781,2.42147186 C12.6179781,2.93033189 13.0266927,3.34268398 13.531064,3.34268398 C14.0354353,3.34268398 14.4441499,2.93033189 14.4441499,2.42147186 L14.4441499,1.93015873 L41.9584728,1.93015873 L41.9584728,28.2680519 Z" id="Shape"></path>
                        <path d="M14.4441499,11.3352958 L14.4441499,9.92277056 C14.4441499,9.41391053 14.0354353,9.00155844 13.531064,9.00155844 C13.0266927,9.00155844 12.6179781,9.41391053 12.6179781,9.92277056 L12.6179781,11.3352958 C12.6179781,11.8441558 13.0266927,12.2565079 13.531064,12.2565079 C14.0354353,12.2565079 14.4441499,11.8353824 14.4441499,11.3352958 Z" id="Shape"></path>
                        <path d="M14.4441499,20.2578932 L14.4441499,18.845368 C14.4441499,18.3365079 14.0354353,17.9241558 13.531064,17.9241558 C13.0266927,17.9241558 12.6179781,18.3365079 12.6179781,18.845368 L12.6179781,20.2578932 C12.6179781,20.7667532 13.0266927,21.1791053 13.531064,21.1791053 C14.0354353,21.1791053 14.4441499,20.7667532 14.4441499,20.2578932 Z" id="Shape"></path>
                    </g>
                </g>
                <ellipse id="Oval" stroke="#DA272C" stroke-width="2" fill="#FFFFFF" cx="40.640625" cy="31.2" rx="10.359375" ry="10.4"></ellipse>
                <polyline id="Path-4" stroke="#DA272C" stroke-width="2.3" stroke-linecap="round" stroke-linejoin="round" points="40.0038683 25.8900093 40.0038683 33.1522845 44.8493617 33.2312483"></polyline>
            </g>
        </g>
    </g>
</svg>