<svg xmlns="http://www.w3.org/2000/svg" width="37" height="37" viewBox="0 0 37 37">
    <g fill="#DA272C" fill-rule="evenodd">
        <path fill-rule="nonzero" d="M35.872 2.166h-7.394V1.091C28.478.488 27.972 0 27.349 0s-1.128.488-1.128 1.09v1.076h-6.593V1.091C19.628.488 19.123 0 18.5 0c-.623 0-1.128.488-1.128 1.09v1.076h-6.313V1.091C11.06.488 10.554 0 9.931 0c-.623 0-1.129.488-1.129 1.09v1.076H1.128C.505 2.166 0 2.655 0 3.257v24.644c0 .603.505 1.091 1.128 1.091h6.926C9.164 33.575 13.424 37 18.5 37c5.075 0 9.336-3.425 10.446-8.008h6.926c.623 0 1.128-.488 1.128-1.09V3.256c0-.602-.505-1.09-1.128-1.09zM8.802 4.348v.985c0 .603.506 1.091 1.129 1.091s1.128-.488 1.128-1.09v-.986h6.313v.985c0 .603.505 1.091 1.128 1.091.623 0 1.128-.488 1.128-1.09v-.986h6.593v.985c0 .603.505 1.091 1.128 1.091.623 0 1.129-.488 1.129-1.09v-.986h6.265v4.46H2.257v-4.46h6.545zm9.698 30.47c-4.672 0-8.473-3.673-8.473-8.19 0-4.515 3.8-8.189 8.473-8.189 4.672 0 8.473 3.674 8.473 8.19s-3.8 8.19-8.473 8.19zm10.725-8.007c.001-.061.005-.121.005-.182 0-5.719-4.813-10.371-10.73-10.371-5.917 0-10.73 4.652-10.73 10.37 0 .062.004.122.005.183H2.257V10.989h32.486v15.822h-5.518z"/>
        <path d="M19.063 27.435V22.39c0-.576-.444-1.043-.993-1.043-.548 0-.993.467-.993 1.043v5.478c0 .277.105.542.29.738l2.284 2.397a.967.967 0 0 0 .702.306.967.967 0 0 0 .702-.306 1.08 1.08 0 0 0 0-1.475l-1.992-2.092z"/>
    </g>
</svg>
