<?xml version="1.0" encoding="UTF-8"?>
<svg width="24px" height="23px" viewBox="0 0 24 23" version="1.1" xmlns="http://www.w3.org/2000/svg" xmlns:xlink="http://www.w3.org/1999/xlink">
    <!-- Generator: sketchtool 54.1 (76490) - https://sketchapp.com -->
    <title>EAFECA5C-14EA-4CF0-98A2-BF041892CD08</title>
    <desc>Created with sketchtool.</desc>
    <g id="Page-5-HOME-APROBADO" stroke="none" stroke-width="1" fill="none" fill-rule="evenodd" stroke-linecap="round">
        <g id="Home_cuponera_cupon-_v2" transform="translate(-204.000000, -1140.000000)" stroke="#C8CCD4">
            <g id="Group-5" transform="translate(201.000000, 763.000000)">
                <g id="Group-10" transform="translate(4.000000, 377.000000)">
                    <path d="M10.866174,17.0703755 L7.02874821,20.7301118 C5.6153406,22.0780725 3.32518612,22.0780725 1.91177851,20.7301118 L1.05915122,19.9169649 C-0.353050408,18.5701543 -0.353050408,16.3848937 1.05915122,15.0380831 L6.60303756,9.75205289 C8.01523919,8.40409217 10.3065997,8.40409217 11.7188013,9.75205289 L12.5714286,10.5651998" id="Stroke-88"></path>
                    <path d="M10.3432335,5.41137605 L14.4598597,1.75196346 C15.9761029,0.404121985 18.4328826,0.404121985 19.9491258,1.75196346 L20.8637879,2.56503847 C22.3787374,3.91287995 22.3787374,6.09794718 20.8637879,7.44463862 L14.9178376,12.7302012 C13.4028881,14.0780427 10.9435209,14.0780427 9.42857143,12.7302012" id="Stroke-89"></path>
                </g>
            </g>
        </g>
    </g>
</svg>