<svg xmlns="http://www.w3.org/2000/svg" width="30" height="30" viewBox="0 0 30 30">
    <path fill="#DA272C" fill-rule="nonzero" stroke="#DA272C" stroke-width=".25" d="M15 1C7.28 1 1 7.28 1 15s6.28 14 14 14 14-6.28 14-14S22.72 1 15 1zm11.417 8.167h-6.101c-.551-2.953-1.511-5.324-2.72-6.736 3.854.795 7.073 3.328 8.82 6.736zM19.667 15c0 1.683-.127 3.244-.341 4.667h-8.652a31.442 31.442 0 0 1-.34-4.667c0-1.683.126-3.244.34-4.667h8.652c.214 1.423.34 2.984.34 4.667zM15 2.167c1.578 0 3.28 2.702 4.125 7h-8.25c.846-4.298 2.547-7 4.125-7zm-2.597.264c-1.208 1.412-2.168 3.783-2.719 6.736h-6.1c1.747-3.408 4.966-5.94 8.82-6.736zM2.167 15c0-1.648.323-3.218.89-4.667h6.437A33.006 33.006 0 0 0 9.167 15c0 1.646.118 3.21.327 4.667H3.058A12.745 12.745 0 0 1 2.167 15zm1.416 5.833h6.101c.551 2.953 1.511 5.324 2.72 6.736-3.854-.795-7.073-3.328-8.82-6.736zm11.417 7c-1.578 0-3.28-2.702-4.125-7h8.25c-.846 4.298-2.547 7-4.125 7zm2.597-.264c1.208-1.412 2.168-3.783 2.719-6.736h6.1c-1.747 3.408-4.966 5.94-8.82 6.736zm2.91-7.902c.208-1.456.326-3.02.326-4.667 0-1.646-.118-3.21-.327-4.667h6.436c.568 1.449.891 3.02.891 4.667 0 1.648-.323 3.218-.891 4.667h-6.436z"/>
</svg>
