<?xml version="1.0" encoding="utf-8"?>
<!-- Generator: Adobe Illustrator 16.0.0, SVG Export Plug-In . SVG Version: 6.00 Build 0)  -->
<!DOCTYPE svg PUBLIC "-//W3C//DTD SVG 1.1//EN" "http://www.w3.org/Graphics/SVG/1.1/DTD/svg11.dtd">
<svg version="1.1" id="Layer_1" xmlns="http://www.w3.org/2000/svg" xmlns:xlink="http://www.w3.org/1999/xlink" x="0px" y="0px"
	 width="595.279px" height="841.891px" viewBox="0 0 595.279 841.891" enable-background="new 0 0 595.279 841.891"
	 xml:space="preserve">
<g>
	<path fill-rule="evenodd" clip-rule="evenodd" fill="#E6E7E8" d="M290.525,569.389c-3.428,7.254-26.653,124.955-34.511,135.895
		c-7.859,10.938-50.998-12.943-50.38-18.541c0.616-5.6,42.413-116.295,55.078-129.482
		C273.375,544.074,293.094,559.658,290.525,569.389z"/>
	<path fill-rule="evenodd" clip-rule="evenodd" fill="#E07CB1" d="M262.617,686.465c-2.657,9.602-4.964,16.537-6.604,18.818
		c-7.859,10.938-50.996-12.943-50.38-18.541c0.149-1.336,2.64-8.652,6.514-19.189c4.039,2.234,10.725,5.715,17.897,8.535
		C237.26,678.924,252.003,683.328,262.617,686.465z"/>
	<path fill-rule="evenodd" clip-rule="evenodd" fill="#E6E7E8" d="M403.482,532.582c6.568,4.609,118.818,50.434,128.055,57.102
		c9.234,6.664-20.287,51.467-26.832,46.496c-6.547-4.971-107.396-61.557-118.24-76.277
		C375.622,545.18,390.65,523.891,403.482,532.582z"/>
	<path fill-rule="evenodd" clip-rule="evenodd" fill="#E07CB1" d="M504.823,576.943c13.809,6.096,24.17,10.904,26.713,12.74
		c9.234,6.664-20.287,51.467-26.832,46.496c-2.135-1.621-14.309-8.736-30.115-18.098c6.16-7.775,17.203-21.881,23.744-31.678
		C500.796,582.719,502.964,579.574,504.823,576.943z"/>
	<path fill-rule="evenodd" clip-rule="evenodd" fill="#E587B7" d="M231.177,482.088c-35.427-20.523-53.282-48.117-149.399-11.158
		c-22.191,8.531-82.24-6.607-79.34-1.834c2.897,4.773,18.744,37.549,45.491,53.463c26.748,15.914,47.698,22.285,78.816,4.084
		c31.114-18.199,32.388-18.393,48.882-21.336c16.494-2.945,45.532,10.885,46.225,6.869
		C222.545,508.16,231.177,482.088,231.177,482.088z"/>
	<path fill-rule="evenodd" clip-rule="evenodd" fill="#EDB1D0" d="M221.032,509.357c0.521-3.018,7.273-18.506,9.729-26.012
		c-100.996-32.209-77.37-7.02-148.55,9.707c-30.543,7.174-79.774-23.957-79.774-23.957s40.728,57.523,87.55,50.791
		C136.811,513.156,165.294,466.316,221.032,509.357z"/>
	<path fill-rule="evenodd" clip-rule="evenodd" fill="#FFFFFF" d="M407.029,256.632c1.477-4.569,35.736-124.899,42.135-122.831
		c6.395,2.068-9.289,121.224-9.811,123.995C438.829,260.567,407.029,256.632,407.029,256.632z"/>
	<path fill-rule="evenodd" clip-rule="evenodd" fill="#FFFFFF" d="M427.312,421.863c0,0,38.711,19.355,69.541,31.607
		c30.834,12.252,79.312-20.318,93.951-46.872c18.379-33.336-86.986-102.513-114.988-128.52
		c-31.365-29.128-93.738-22.23-112.848,0.658c-19.107,22.89-1.389,126.158-14.664,156.864
		c-24.473,56.6-119.864-13.178-148.748,68.258c-9.121,25.715-13.389,61.549,40.141,91.637
		c53.527,30.084,141.178,23.703,179.447-16.002C441.648,556.145,415.404,443.957,427.312,421.863z"/>
	<path fill-rule="evenodd" clip-rule="evenodd" fill="#E6E7E8" d="M486.718,287.408c-4.307-3.508-8.02-6.648-10.902-9.329
		c-31.365-29.128-93.738-22.23-112.848,0.658c-19.107,22.89-1.389,126.158-14.664,156.864
		c-13.818,31.961-50.25,23.628-84.552,24.975c2.939,4.234,8.467,10.822,16.428,14.625c12.415,5.932,39.71,5.471,58.097-6.449
		c18.389-11.92,26.312-35.496,27.988-51.607c1.678-16.111-6.816-110.499-4.223-117.733c2.59-7.238,23.836-22.998,23.836-22.998
		s10.932-2.6,21.721-1.637c10.789,0.967,32.492,7.984,47.1,11.192c14.605,3.208,32.023,1.444,32.023,1.444L486.718,287.408z"/>
	<path fill-rule="evenodd" clip-rule="evenodd" fill="#E6E7E8" d="M427.312,421.863c0,0,38.711,19.355,69.541,31.607
		c14.883,5.912,33.873,1.385,51.186-7.869c-37.922,15.246-90.076-9.055-116.072-31.331c-10.342-8.859-30.033-53.207-30.033-53.207
		s7.869,77.43,9.684,123.635c1.816,46.207,0.68,71.381-10.457,87.51c-11.137,16.125-75.77,31.75-117.323,24.15
		c-41.554-7.598-65.166-22.146-76.412-43.24c-7.257-13.615-10.513-27.113-11.915-34.975c-4.803,23.75-0.009,52.508,44.187,77.352
		c53.527,30.084,141.178,23.703,179.447-16.002C441.648,556.145,415.404,443.957,427.312,421.863z"/>
	<path fill-rule="evenodd" clip-rule="evenodd" fill="#E587B7" d="M463.646,227.61c0,0,10.07,1.942,10.891,8.768
		c3.898,32.392-116.805-68.855-165.555,45.382c-12.49,29.269-2.525,43.392-20.514,62.202
		c-17.989,18.808-32.646,13.637-31.013,16.013c13.712,19.976,43.839,16.201,50.734,2.272c-0.773,58.534-52.593,69.275-75.216,50.975
		c9.673,44.462,35.519,63.943,78.916,56.568c83.525-14.195,29.652-162.105,52.609-181.838
		c50.527-43.435,104.621,20.547,137.389-7.479C533.734,253.235,499.152,204.545,463.646,227.61z"/>
	<path fill-rule="evenodd" clip-rule="evenodd" fill="#E07CB1" d="M311.843,403.173c-13.176,20.467-28.563,24.979-40.549,26.15
		c-11.985,1.173-20.256-3.218-20.256-3.218s10.338,17.977,38.055,10.283c27.719-7.691,39.655-37.743,41.153-53.609
		c1.496-15.866-2.281-70.679,4.754-88.692c23.17-59.329,118.131-31.368,117.699-31.587c-1.648-0.835-36.33-16.334-64.219-14.047
		s-46.105,16.024-57.418,36.893C313.409,317.914,329.323,376.025,311.843,403.173z"/>
	<path fill-rule="evenodd" clip-rule="evenodd" fill="#EDB1D0" d="M463.646,227.61c0,0,10.07,1.942,10.891,8.768
		c3.898,32.392-116.805-68.855-165.555,45.382c-12.49,29.269-2.525,43.392-20.514,62.202
		c-17.989,18.808-32.646,13.637-31.013,16.013c0,0,4.478,1.583,10.668,0.859c6.188-0.725,24.683-3.046,37.804-24.213
		c33.395-53.876,9.273-128.004,133.717-90.498c4.836,1.458,26.271,8.765,35.133,2.827
		C483.587,243.047,475.513,226.209,463.646,227.61z"/>
	<path fill-rule="evenodd" clip-rule="evenodd" fill="#EDB1D0" d="M232.972,413.221c9.673,44.462,35.519,63.943,78.916,56.568
		c83.525-14.195,29.652-162.105,52.609-181.838c50.527-43.435,104.621,20.547,137.389-7.479
		c31.848-27.237-2.734-75.926-38.24-52.862c0,0,14.961-1.639,23.094,1.143c8.135,2.781,17.406,17.335,13.438,28.365
		c-3.971,11.03-13.258,22.481-25.857,19.622c-200.121-45.462-114.814,79.982-144.238,141.571
		c-11.861,24.827-26.475,34.436-50.01,31.065C256.535,446.004,232.972,413.221,232.972,413.221z"/>
	<path fill-rule="evenodd" clip-rule="evenodd" fill="#FFFFFF" d="M396.097,551.123c4.012,6.947,85.17,94.1,92.066,105.742
		c6.896,11.646-40.678,37.449-43.928,30.863c-3.25-6.59-71.455-101.084-75.086-119.002
		C365.521,550.807,389.441,541.346,396.097,551.123z"/>
	<path fill-rule="evenodd" clip-rule="evenodd" fill="#E07CB1" d="M469.146,633.789c9.791,11.182,17.145,19.916,19.018,23.076
		c6.896,11.645-40.678,37.449-43.928,30.863c-0.947-1.924-7.424-11.328-16.209-24.121c8.248-4.795,21.863-12.418,30.375-19.869
		C463.657,639.137,466.941,635.842,469.146,633.789z"/>
	<path fill-rule="evenodd" clip-rule="evenodd" fill="#FFFFFF" d="M262.994,564.846c-5.332,5.994-61.657,113.762-71.411,120.66
		c-9.749,6.898-44.723-25.137-43.113-31.988c1.611-6.852,73.468-99.629,89.336-108.713
		C253.675,535.723,268.199,556.232,262.994,564.846z"/>
	<path fill-rule="evenodd" clip-rule="evenodd" fill="#E07CB1" d="M206.811,663.408c-7.064,11.773-12.703,20.314-15.227,22.098
		c-9.749,6.898-44.723-25.137-43.113-31.988c0.42-1.777,5.577-9.354,13.254-19.746c3.364,3.631,9.225,9.438,16.123,14.035
		C187.365,654.15,203.038,661.637,206.811,663.408z"/>
	
		<ellipse transform="matrix(-0.1504 -0.9886 0.9886 -0.1504 199.8494 817.422)" fill-rule="evenodd" clip-rule="evenodd" fill="#B2628E" cx="451.174" cy="322.835" rx="10.658" ry="11.234"/>
	
		<ellipse transform="matrix(-0.1503 -0.9886 0.9886 -0.1503 250.4384 1012.7838)" fill-rule="evenodd" clip-rule="evenodd" fill="#E57C79" cx="560.431" cy="398.774" rx="4.08" ry="4.354"/>
	<path fill-rule="evenodd" clip-rule="evenodd" fill="#F38480" d="M562.437,402.364c1.592-0.807,2.568-2.484,2.301-4.244
		c-0.314-2.06-2.219-3.509-4.385-3.428c-1.592,0.804-2.566,2.484-2.301,4.244C558.366,400.993,560.273,402.441,562.437,402.364z"/>
	<path fill-rule="evenodd" clip-rule="evenodd" fill="#FFFFFF" d="M455.273,316.066c-1.809,0.276-3.066,1.869-2.809,3.56
		c0.256,1.689,1.932,2.836,3.738,2.562c1.811-0.274,3.068-1.869,2.811-3.558C458.755,316.937,457.081,315.79,455.273,316.066z"/>
	<path fill-rule="evenodd" clip-rule="evenodd" fill="#FFFFFF" d="M448.282,323.788c-1.279,0.196-2.158,1.373-1.967,2.633
		c0.191,1.255,1.383,2.119,2.658,1.925c1.279-0.193,2.158-1.373,1.967-2.631C450.751,324.458,449.56,323.594,448.282,323.788z"/>
	<path fill-rule="evenodd" clip-rule="evenodd" fill="#FFFFFF" d="M393.165,287.587c0,0-14.066-23.927-30.531-37.929
		c-16.465-14.003-43.465-17.282-43.539-12.057c-0.072,5.225,3.941,25.9,25.195,45.69c21.258,19.792,41.664,19.726,41.664,19.726
		L393.165,287.587z"/>
	<path fill-rule="evenodd" clip-rule="evenodd" fill="#DE8FB7" d="M353.435,253.445c-12.473-9.18-24.584-11.682-24.344-8.677
		c0.238,3.004,7.992,16.899,19.898,30.858c8.869,10.395,14.957,16.036,23.051,9.72C384.314,275.772,361.218,259.173,353.435,253.445
		z"/>
	<path fill-rule="evenodd" clip-rule="evenodd" fill="#E6D9D9" d="M448.601,177.777l-14.379-9.648
		c-1.324-1.013,4.369-18.712,6.311-17.837l9.699,6.457C451.788,157.848,451.167,177.197,448.601,177.777z"/>
	<path fill-rule="evenodd" clip-rule="evenodd" fill="#E6D9D9" d="M429.566,182.29l17.514,11.063
		c1.953,2.352-0.752,19.779-2.178,19.956c-5.238-3.81-14.6-10.44-20.516-14.615C423.855,194.196,427.532,182.836,429.566,182.29z"/>
	<path fill-rule="evenodd" clip-rule="evenodd" fill="#E6D9D9" d="M419.015,216.224c6.992,5.344,17.709,13.456,23.484,17.317
		c0.736,1.317,0.227,2.261-0.367,2.974c-8.088-2.517-17.256-5.285-26.988-7.388C415.316,226.479,416.851,217.598,419.015,216.224z"
		/>
</g>
</svg>
