<?xml version="1.0" encoding="utf-8"?>
<!-- Generator: Adobe Illustrator 16.0.0, SVG Export Plug-In . SVG Version: 6.00 Build 0)  -->
<!DOCTYPE svg PUBLIC "-//W3C//DTD SVG 1.1//EN" "http://www.w3.org/Graphics/SVG/1.1/DTD/svg11.dtd">
<svg version="1.1" id="Layer_1" xmlns:sketch="http://www.bohemiancoding.com/sketch/ns"
	 xmlns="http://www.w3.org/2000/svg" xmlns:xlink="http://www.w3.org/1999/xlink" x="0px" y="0px" width="191.5px" height="24.5px"
	 viewBox="0 0 191.5 24.5" enable-background="new 0 0 191.5 24.5" xml:space="preserve">
<g>
	<path fill="#E6E7E8" d="M13.059,18.502c-0.146,0.31-1.135,5.325-1.47,5.791s-2.173-0.552-2.146-0.791
		c0.026-0.237,1.807-4.954,2.347-5.516S13.168,18.088,13.059,18.502z"/>
	<path fill="#E07CB1" d="M11.87,23.49c-0.113,0.41-0.211,0.705-0.281,0.803c-0.335,0.466-2.173-0.552-2.146-0.791
		c0.006-0.057,0.112-0.367,0.277-0.816c0.172,0.095,0.457,0.242,0.763,0.363C10.79,23.17,11.417,23.357,11.87,23.49z"/>
	<path fill="#E6E7E8" d="M17.872,16.935c0.28,0.196,5.062,2.149,5.456,2.433c0.394,0.283-0.864,2.193-1.143,1.981
		c-0.279-0.212-4.576-2.623-5.038-3.25C16.684,17.471,17.325,16.563,17.872,16.935z"/>
	<path fill="#E07CB1" d="M22.189,18.824c0.588,0.26,1.03,0.465,1.138,0.543c0.394,0.283-0.864,2.193-1.143,1.981
		c-0.091-0.069-0.609-0.372-1.283-0.771c0.262-0.331,0.733-0.932,1.011-1.35C22.018,19.07,22.11,18.937,22.189,18.824z"/>
	<path fill="#E587B7" d="M10.53,14.783c-1.509-0.875-2.27-2.05-6.366-0.476c-0.945,0.363-3.504-0.281-3.38-0.078
		s0.799,1.6,1.938,2.277c1.14,0.679,2.032,0.95,3.358,0.175s1.38-0.784,2.083-0.909c0.703-0.126,1.94,0.464,1.969,0.292
		C10.162,15.894,10.53,14.783,10.53,14.783z"/>
	<path fill="#EDB1D0" d="M10.098,15.945c0.022-0.129,0.31-0.789,0.415-1.108c-4.303-1.373-3.297-0.299-6.33,0.413
		c-1.301,0.306-3.399-1.021-3.399-1.021s1.735,2.451,3.73,2.164S7.723,14.111,10.098,15.945z"/>
	<path fill="#FFFFFF" d="M18.023,5.177c0.062-0.194,1.522-5.321,1.795-5.233c0.272,0.088-0.396,5.165-0.418,5.283
		C19.377,5.345,18.023,5.177,18.023,5.177z"/>
	<path fill="#FFFFFF" d="M18.887,12.217c0,0,1.649,0.825,2.963,1.346c1.314,0.522,3.379-0.865,4.003-1.997
		c0.783-1.421-3.707-4.368-4.9-5.476c-1.336-1.241-3.994-0.947-4.808,0.028c-0.814,0.975-0.059,5.375-0.625,6.684
		c-1.042,2.411-5.107-0.562-6.338,2.908c-0.389,1.095-0.57,2.622,1.71,3.904c2.281,1.281,6.015,1.01,7.646-0.683
		C19.498,17.938,18.379,13.158,18.887,12.217z"/>
	<path fill="#E6E7E8" d="M21.418,6.488c-0.184-0.149-0.342-0.283-0.465-0.397c-1.336-1.241-3.994-0.947-4.808,0.028
		c-0.814,0.975-0.059,5.375-0.625,6.684c-0.589,1.361-2.141,1.006-3.603,1.063c0.125,0.181,0.361,0.462,0.7,0.623
		c0.529,0.253,1.692,0.233,2.475-0.274c0.784-0.508,1.122-1.513,1.192-2.199c0.072-0.687-0.291-4.708-0.18-5.017
		c0.11-0.309,1.016-0.979,1.016-0.979s0.466-0.111,0.925-0.07s1.384,0.34,2.007,0.477C20.676,6.563,21.418,6.488,21.418,6.488
		L21.418,6.488z"/>
	<path fill="#E6E7E8" d="M18.887,12.217c0,0,1.649,0.825,2.963,1.346c0.634,0.252,1.443,0.06,2.181-0.335
		c-1.616,0.649-3.838-0.386-4.945-1.335c-0.441-0.377-1.28-2.267-1.28-2.267s0.335,3.3,0.413,5.269
		c0.077,1.969,0.029,3.041-0.446,3.728c-0.474,0.688-3.228,1.354-4.999,1.03c-1.771-0.324-2.776-0.944-3.256-1.843
		c-0.309-0.58-0.448-1.155-0.507-1.49c-0.205,1.012,0,2.237,1.882,3.296c2.281,1.281,6.015,1.01,7.646-0.683
		C19.498,17.938,18.379,13.158,18.887,12.217z"/>
	<path fill="#E587B7" d="M20.435,3.94c0,0,0.429,0.083,0.464,0.374c0.166,1.38-4.977-2.934-7.054,1.934
		c-0.532,1.247-0.108,1.849-0.874,2.65c-0.767,0.801-1.391,0.581-1.322,0.682c0.584,0.851,1.868,0.69,2.162,0.097
		c-0.033,2.494-2.241,2.952-3.205,2.172c0.412,1.895,1.513,2.725,3.362,2.41c3.559-0.604,1.263-6.907,2.241-7.747
		c2.153-1.851,4.458,0.875,5.854-0.319C23.421,5.032,21.948,2.958,20.435,3.94z"/>
	<path fill="#E07CB1" d="M13.967,11.42c-0.561,0.873-1.216,1.065-1.728,1.115c-0.51,0.05-0.863-0.138-0.863-0.138
		s0.44,0.767,1.621,0.438c1.181-0.328,1.689-1.608,1.753-2.284c0.064-0.676-0.097-3.012,0.203-3.779
		c0.987-2.528,5.033-1.336,5.015-1.346c-0.071-0.036-1.548-0.696-2.736-0.599S15.268,5.511,14.786,6.4
		C14.034,7.788,14.712,10.264,13.967,11.42z"/>
	<path fill="#EDB1D0" d="M20.435,3.94c0,0,0.429,0.083,0.464,0.374c0.166,1.38-4.977-2.934-7.054,1.934
		c-0.532,1.247-0.108,1.849-0.874,2.65c-0.767,0.801-1.391,0.581-1.322,0.682c0,0,0.191,0.067,0.455,0.037s1.052-0.129,1.61-1.032
		c1.423-2.295,0.396-5.454,5.697-3.856c0.206,0.062,1.12,0.374,1.497,0.121C21.285,4.598,20.94,3.881,20.435,3.94z"/>
	<path fill="#EDB1D0" d="M10.607,11.849c0.412,1.895,1.513,2.725,3.362,2.41c3.559-0.604,1.263-6.907,2.241-7.748
		c2.153-1.851,4.458,0.876,5.854-0.318c1.357-1.161-0.116-3.235-1.629-2.252c0,0,0.637-0.07,0.984,0.049
		c0.347,0.118,0.741,0.738,0.573,1.208c-0.169,0.47-0.565,0.958-1.102,0.836c-8.526-1.937-4.892,3.408-6.146,6.032
		c-0.505,1.058-1.128,1.468-2.13,1.323C11.61,13.246,10.607,11.849,10.607,11.849z"/>
	<path fill="#FFFFFF" d="M17.557,17.725c0.17,0.296,3.628,4.009,3.922,4.505s-1.733,1.596-1.872,1.315
		c-0.139-0.281-3.044-4.307-3.199-5.07S17.273,17.308,17.557,17.725z"/>
	<path fill="#E07CB1" d="M20.669,21.246c0.417,0.478,0.73,0.849,0.81,0.983c0.294,0.496-1.733,1.596-1.872,1.315
		c-0.041-0.082-0.316-0.482-0.691-1.028c0.352-0.203,0.932-0.529,1.294-0.847C20.436,21.474,20.575,21.334,20.669,21.246z"/>
	<path fill="#FFFFFF" d="M11.886,18.31c-0.227,0.255-2.627,4.847-3.042,5.141s-1.905-1.071-1.837-1.363
		c0.069-0.292,3.131-4.245,3.807-4.632C11.489,17.068,12.107,17.942,11.886,18.31z"/>
	<path fill="#E07CB1" d="M9.492,22.509c-0.301,0.501-0.541,0.865-0.648,0.941c-0.416,0.294-1.905-1.071-1.837-1.363
		c0.018-0.075,0.237-0.398,0.564-0.841c0.144,0.155,0.393,0.402,0.687,0.598C8.664,22.114,9.332,22.434,9.492,22.509z"/>
	
		<ellipse transform="matrix(-0.9886 0.1504 -0.1504 -0.9886 40.7817 12.9111)" fill="#B2628E" cx="19.903" cy="7.998" rx="0.479" ry="0.454"/>
	
		<ellipse transform="matrix(-0.9887 0.1501 -0.1501 -0.9887 50.5256 18.6567)" fill="#E57C79" cx="24.559" cy="11.235" rx="0.185" ry="0.174"/>
	<path fill="#F38480" d="M24.644,11.386c0.068-0.034,0.109-0.105,0.098-0.181c-0.013-0.087-0.095-0.149-0.187-0.146
		c-0.068,0.034-0.109,0.105-0.098,0.18C24.471,11.328,24.552,11.389,24.644,11.386z"/>
	<path fill="#FFFFFF" d="M20.078,7.709c-0.077,0.012-0.13,0.08-0.12,0.151c0.011,0.072,0.082,0.121,0.16,0.109
		c0.077-0.012,0.13-0.08,0.119-0.152C20.227,7.746,20.155,7.698,20.078,7.709z"/>
	<path fill="#FFFFFF" d="M19.78,8.038c-0.054,0.009-0.092,0.059-0.084,0.113c0.008,0.053,0.059,0.09,0.114,0.082
		c0.054-0.008,0.092-0.058,0.083-0.112C19.886,8.067,19.834,8.03,19.78,8.038z"/>
	<path fill="#FFFFFF" d="M17.432,6.496c0,0-0.6-1.019-1.301-1.616c-0.702-0.597-1.852-0.736-1.855-0.514
		c-0.003,0.223,0.167,1.104,1.073,1.947s1.775,0.84,1.775,0.84L17.432,6.496z"/>
	<path fill="#DE8FB7" d="M15.739,5.042c-0.531-0.392-1.047-0.498-1.037-0.37s0.34,0.72,0.848,1.315
		c0.378,0.443,0.637,0.684,0.982,0.414C17.055,5.993,16.071,5.285,15.739,5.042z"/>
	<path fill="#E6D9D9" d="M19.794,1.817l-0.613-0.411c-0.056-0.043,0.187-0.797,0.269-0.76l0.413,0.275
		C19.93,0.968,19.903,1.792,19.794,1.817z"/>
	<path fill="#E6D9D9" d="M18.983,2.01l0.746,0.471c0.083,0.101-0.032,0.843-0.093,0.851c-0.223-0.162-0.622-0.445-0.874-0.623
		C18.739,2.517,18.896,2.033,18.983,2.01z"/>
	<path fill="#E6D9D9" d="M18.534,3.456c0.297,0.227,0.754,0.573,1,0.738c0.032,0.056,0.01,0.096-0.016,0.126
		c-0.345-0.107-0.735-0.225-1.149-0.315C18.376,3.892,18.441,3.514,18.534,3.456z"/>
</g>
<g>
	<path fill="#FFFFFF" d="M40.949,13.256c-0.107,1.123-0.507,2.006-1.198,2.647c-0.691,0.643-1.654,0.964-2.889,0.964
		c-1.265,0-2.271-0.412-3.018-1.234c-0.747-0.823-1.121-1.9-1.121-3.234V10.37c0-1.323,0.377-2.4,1.132-3.23
		c0.754-0.83,1.756-1.245,3.006-1.245c1.26,0,2.228,0.316,2.904,0.949s1.073,1.534,1.19,2.706h-1.78
		c-0.093-0.742-0.314-1.299-0.663-1.67c-0.35-0.371-0.9-0.557-1.652-0.557c-0.742,0-1.322,0.283-1.74,0.85
		c-0.417,0.566-0.626,1.294-0.626,2.183v2.043c0,0.904,0.206,1.637,0.619,2.201c0.412,0.564,0.995,0.846,1.747,0.846
		c0.737,0,1.283-0.18,1.637-0.541c0.354-0.361,0.577-0.911,0.67-1.648H40.949z"/>
	<path fill="#FFFFFF" d="M44.956,6.049l3.091,8.262l3.098-8.262h2.307v10.664h-1.78V13.08l0.183-4.688h-0.022l-3.193,8.32h-1.194
		l-3.179-8.298h-0.022l0.183,4.666v3.633h-1.78V6.049H44.956z"/>
	<path fill="#FFFFFF" d="M61.516,13.974c0-0.449-0.16-0.813-0.48-1.095c-0.32-0.281-0.904-0.534-1.754-0.758
		c-1.221-0.322-2.146-0.735-2.776-1.238s-0.945-1.179-0.945-2.029c0-0.874,0.35-1.585,1.051-2.135
		c0.701-0.549,1.623-0.824,2.765-0.824c1.191,0,2.141,0.312,2.849,0.938s1.062,1.399,1.062,2.322h-1.78
		c0-0.557-0.183-1.002-0.549-1.337c-0.366-0.334-0.898-0.501-1.597-0.501c-0.659,0-1.161,0.141-1.505,0.421
		c-0.344,0.281-0.516,0.648-0.516,1.102c0,0.415,0.184,0.753,0.553,1.014c0.368,0.262,1.002,0.514,1.9,0.758
		c1.167,0.317,2.042,0.74,2.626,1.267c0.583,0.527,0.875,1.221,0.875,2.08c0,0.903-0.351,1.614-1.051,2.131
		c-0.701,0.519-1.64,0.777-2.816,0.777c-1.138,0-2.122-0.291-2.952-0.872s-1.245-1.406-1.245-2.476h1.78
		c0,0.659,0.22,1.146,0.659,1.461c0.439,0.315,1.025,0.473,1.758,0.473c0.669,0,1.184-0.131,1.545-0.392
		C61.335,14.8,61.516,14.438,61.516,13.974z"/>
	<path fill="#FFFFFF" d="M76.713,13.256c-0.107,1.123-0.507,2.006-1.198,2.647c-0.691,0.643-1.654,0.964-2.889,0.964
		c-1.265,0-2.271-0.412-3.018-1.234c-0.747-0.823-1.121-1.9-1.121-3.234V10.37c0-1.323,0.377-2.4,1.132-3.23
		c0.754-0.83,1.756-1.245,3.006-1.245c1.26,0,2.228,0.316,2.904,0.949s1.073,1.534,1.19,2.706h-1.78
		c-0.093-0.742-0.314-1.299-0.663-1.67c-0.35-0.371-0.9-0.557-1.652-0.557c-0.742,0-1.322,0.283-1.74,0.85
		c-0.417,0.566-0.626,1.294-0.626,2.183v2.043c0,0.904,0.206,1.637,0.619,2.201c0.412,0.564,0.995,0.846,1.747,0.846
		c0.737,0,1.283-0.18,1.637-0.541c0.354-0.361,0.577-0.911,0.67-1.648H76.713z"/>
	<path fill="#FFFFFF" d="M83.122,15.658l-0.015-0.008c-0.254,0.396-0.566,0.696-0.938,0.901s-0.808,0.308-1.311,0.308
		c-0.869,0-1.538-0.264-2.007-0.791s-0.703-1.374-0.703-2.541V8.788h1.772v4.753c0,0.709,0.11,1.197,0.33,1.465
		c0.22,0.27,0.562,0.403,1.025,0.403c0.435,0,0.795-0.075,1.08-0.228c0.286-0.15,0.514-0.373,0.685-0.666V8.788h1.78v7.925h-1.582
		L83.122,15.658z"/>
	<path fill="#FFFFFF" d="M93.625,13.014c0,1.178-0.266,2.112-0.798,2.806s-1.292,1.04-2.278,1.04c-0.459,0-0.857-0.077-1.194-0.23
		c-0.337-0.154-0.627-0.385-0.872-0.692l-0.022,0.007v3.816h-1.78V8.788h1.589l0.117,0.952c0.254-0.361,0.555-0.635,0.905-0.82
		c0.349-0.186,0.76-0.278,1.234-0.278c0.996,0,1.761,0.381,2.296,1.143c0.534,0.762,0.802,1.787,0.802,3.076V13.014z M91.853,12.86
		c0-0.825-0.149-1.492-0.447-2s-0.757-0.762-1.377-0.762c-0.376,0-0.692,0.078-0.949,0.234c-0.256,0.156-0.462,0.378-0.619,0.667
		v3.582c0.156,0.283,0.361,0.496,0.615,0.641c0.254,0.144,0.576,0.216,0.967,0.216c0.62,0,1.077-0.219,1.37-0.655
		c0.293-0.438,0.439-1.026,0.439-1.77V12.86z"/>
	<path fill="#FFFFFF" d="M94.848,12.677c0-1.201,0.317-2.174,0.952-2.918c0.635-0.745,1.526-1.117,2.673-1.117
		c1.157,0,2.055,0.371,2.691,1.113c0.638,0.742,0.956,1.716,0.956,2.922v0.154c0,1.211-0.317,2.186-0.952,2.923
		s-1.528,1.105-2.681,1.105c-1.157,0-2.053-0.368-2.688-1.105c-0.635-0.737-0.952-1.712-0.952-2.923V12.677z M96.628,12.831
		c0,0.791,0.149,1.424,0.446,1.897c0.299,0.474,0.77,0.71,1.414,0.71c0.635,0,1.104-0.238,1.406-0.714
		c0.303-0.477,0.454-1.107,0.454-1.894v-0.154c0-0.771-0.151-1.399-0.454-1.882s-0.776-0.725-1.421-0.725
		c-0.635,0-1.101,0.242-1.399,0.725c-0.297,0.483-0.446,1.111-0.446,1.882V12.831z"/>
	<path fill="#FFFFFF" d="M105.285,8.788l0.103,1.106l0.015,0.007c0.259-0.4,0.581-0.71,0.967-0.93s0.828-0.33,1.326-0.33
		c0.844,0,1.492,0.245,1.944,0.736c0.451,0.49,0.677,1.275,0.677,2.354v4.98h-1.779v-4.966c0-0.61-0.121-1.038-0.362-1.282
		c-0.242-0.244-0.619-0.366-1.132-0.366c-0.356,0-0.668,0.076-0.934,0.227c-0.267,0.151-0.49,0.364-0.67,0.637v5.75h-1.78V8.788
		H105.285z"/>
	<path fill="#FFFFFF" d="M115.568,16.859c-1.143,0-2.042-0.361-2.699-1.084c-0.656-0.723-0.984-1.67-0.984-2.842v-0.293
		c0-1.177,0.325-2.139,0.978-2.886c0.651-0.747,1.485-1.118,2.501-1.113c1.094,0,1.919,0.318,2.476,0.956
		c0.557,0.637,0.835,1.51,0.835,2.618v1.048h-4.995c0.049,0.658,0.24,1.186,0.575,1.582c0.334,0.395,0.809,0.593,1.424,0.593
		c0.488,0,0.9-0.058,1.234-0.172c0.335-0.115,0.663-0.282,0.985-0.502l0.521,1.216c-0.299,0.259-0.685,0.47-1.158,0.634
		C116.786,16.777,116.223,16.859,115.568,16.859z M115.363,10.07c-0.444,0-0.809,0.172-1.092,0.516
		c-0.283,0.345-0.469,0.802-0.557,1.374h3.193v-0.183c0-0.513-0.125-0.925-0.377-1.238C116.28,10.226,115.891,10.07,115.363,10.07z"
		/>
	<path fill="#FFFFFF" d="M124.138,10.414l-0.843-0.029c-0.352,0-0.642,0.071-0.871,0.212s-0.408,0.347-0.535,0.615v5.5h-1.779V8.788
		h1.626l0.11,1.113h0.021c0.2-0.396,0.454-0.704,0.762-0.927c0.308-0.222,0.669-0.333,1.084-0.333c0.117,0,0.234,0.009,0.352,0.025
		c0.117,0.018,0.213,0.038,0.285,0.062L124.138,10.414z"/>
	<path fill="#FFFFFF" d="M130.077,16.713c-0.054-0.166-0.099-0.332-0.135-0.498c-0.037-0.166-0.065-0.337-0.084-0.513
		c-0.27,0.342-0.594,0.62-0.975,0.835s-0.811,0.322-1.289,0.322c-0.815,0-1.441-0.209-1.879-0.626
		c-0.437-0.418-0.655-1.002-0.655-1.755c0-0.781,0.298-1.381,0.894-1.801c0.596-0.42,1.452-0.63,2.57-0.63h1.297v-0.696
		c0-0.42-0.122-0.746-0.366-0.978s-0.601-0.348-1.069-0.348c-0.43,0-0.767,0.097-1.011,0.29s-0.366,0.445-0.366,0.758h-1.779
		c0-0.664,0.299-1.235,0.896-1.714c0.599-0.479,1.389-0.718,2.369-0.718c0.942,0,1.696,0.23,2.26,0.692
		c0.564,0.461,0.846,1.139,0.846,2.032v3.522c0,0.338,0.021,0.652,0.062,0.945c0.042,0.293,0.113,0.586,0.217,0.879H130.077z
		 M127.983,15.432c0.41,0,0.777-0.088,1.102-0.264c0.325-0.176,0.57-0.396,0.736-0.66V13.16h-1.326c-0.532,0-0.94,0.127-1.227,0.378
		c-0.285,0.251-0.428,0.556-0.428,0.911c0,0.309,0.095,0.549,0.285,0.722C127.316,15.345,127.603,15.432,127.983,15.432z"/>
	<path fill="#FFFFFF" d="M140.896,13.922l0.205,0.799h0.021l0.198-0.783l2.542-7.889h1.896l-3.801,10.664h-1.692l-3.809-10.664
		h1.904L140.896,13.922z"/>
	<path fill="#FFFFFF" d="M148.791,6.847h-1.779v-1.56h1.779V6.847z M148.791,16.713h-1.779V8.788h1.779V16.713z"/>
	<path fill="#FFFFFF" d="M154.812,10.414l-0.843-0.029c-0.352,0-0.642,0.071-0.871,0.212s-0.408,0.347-0.535,0.615v5.5h-1.779V8.788
		h1.626l0.11,1.113h0.021c0.2-0.396,0.454-0.704,0.762-0.927c0.308-0.222,0.669-0.333,1.084-0.333c0.117,0,0.234,0.009,0.352,0.025
		c0.117,0.018,0.213,0.038,0.285,0.062L154.812,10.414z"/>
	<path fill="#FFFFFF" d="M158.423,6.862v1.926h1.428v1.318h-1.428v4.38c0,0.337,0.06,0.571,0.179,0.703
		c0.12,0.132,0.284,0.197,0.495,0.197c0.121,0,0.236-0.008,0.344-0.025c0.107-0.017,0.21-0.04,0.308-0.069l0.19,1.304
		c-0.161,0.078-0.356,0.142-0.586,0.19s-0.464,0.073-0.703,0.073c-0.64,0-1.134-0.187-1.483-0.561
		c-0.349-0.373-0.523-0.978-0.523-1.812v-4.38h-1.091V8.788h1.091V6.862H158.423z"/>
	<path fill="#FFFFFF" d="M166.142,15.658l-0.015-0.008c-0.254,0.396-0.566,0.696-0.938,0.901s-0.809,0.308-1.311,0.308
		c-0.87,0-1.539-0.264-2.008-0.791s-0.703-1.374-0.703-2.541V8.788h1.773v4.753c0,0.709,0.109,1.197,0.329,1.465
		c0.22,0.27,0.562,0.403,1.025,0.403c0.435,0,0.795-0.075,1.08-0.228c0.286-0.15,0.514-0.373,0.685-0.666V8.788h1.78v7.925h-1.582
		L166.142,15.658z"/>
	<path fill="#FFFFFF" d="M174.469,16.713c-0.054-0.166-0.099-0.332-0.135-0.498c-0.037-0.166-0.065-0.337-0.084-0.513
		c-0.27,0.342-0.594,0.62-0.975,0.835s-0.811,0.322-1.289,0.322c-0.815,0-1.441-0.209-1.879-0.626
		c-0.437-0.418-0.655-1.002-0.655-1.755c0-0.781,0.298-1.381,0.894-1.801c0.596-0.42,1.452-0.63,2.57-0.63h1.297v-0.696
		c0-0.42-0.122-0.746-0.366-0.978s-0.601-0.348-1.069-0.348c-0.43,0-0.767,0.097-1.011,0.29s-0.366,0.445-0.366,0.758h-1.779
		c0-0.664,0.299-1.235,0.896-1.714c0.599-0.479,1.389-0.718,2.369-0.718c0.942,0,1.696,0.23,2.26,0.692
		c0.564,0.461,0.846,1.139,0.846,2.032v3.522c0,0.338,0.021,0.652,0.062,0.945c0.042,0.293,0.113,0.586,0.217,0.879H174.469z
		 M172.375,15.432c0.41,0,0.777-0.088,1.102-0.264c0.325-0.176,0.57-0.396,0.736-0.66V13.16h-1.326c-0.532,0-0.94,0.127-1.227,0.378
		c-0.285,0.251-0.428,0.556-0.428,0.911c0,0.309,0.095,0.549,0.285,0.722C171.708,15.345,171.994,15.432,172.375,15.432z"/>
	<path fill="#FFFFFF" d="M179.758,16.713h-1.779V5.287h1.779V16.713z"/>
</g>
</svg>
